<svg version="1.1" xmlns="http://www.w3.org/2000/svg" viewBox="0 0 797.5000000000001 544" width="2392.5000000000005" height="1632">
  <!-- svg-source:excalidraw -->
  
  <defs>
    <style class="style-fonts">
      @font-face {
        font-family: "Virgil";
        src: url("https://excalidraw.com/Virgil.woff2");
      }
      @font-face {
        font-family: "Cascadia";
        src: url("https://excalidraw.com/Cascadia.woff2");
      }
      @font-face {
        font-family: "Assistant";
        src: url("https://excalidraw.com/Assistant-Regular.woff2");
      }
    </style>
    
  </defs>
  <g stroke-linecap="round" transform="translate(430.5000000000001 10) rotate(0 178.5 262)"><path d="M0 0 C0 0, 0 0, 0 0 M0 0 C0 0, 0 0, 0 0 M0.13 12.04 C4.14 7.43, 8.15 2.82, 10.63 -0.03 M0.13 12.04 C3.19 8.52, 6.25 5.01, 10.63 -0.03 M0.27 24.08 C4.5 19.21, 8.73 14.34, 21.26 -0.07 M0.27 24.08 C6.68 16.7, 13.09 9.33, 21.26 -0.07 M-0.26 36.88 C9.07 26.15, 18.39 15.42, 31.89 -0.1 M-0.26 36.88 C7.85 27.55, 15.96 18.22, 31.89 -0.1 M-0.12 48.92 C10.6 36.59, 21.32 24.26, 42.52 -0.14 M-0.12 48.92 C15.63 30.8, 31.38 12.68, 42.52 -0.14 M0.01 60.96 C16.68 41.78, 33.36 22.6, 53.15 -0.17 M0.01 60.96 C16.83 41.61, 33.65 22.26, 53.15 -0.17 M0.14 73 C20.09 50.05, 40.04 27.1, 63.78 -0.21 M0.14 73 C15.45 55.39, 30.76 37.78, 63.78 -0.21 M0.28 85.04 C28.39 52.69, 56.51 20.35, 74.41 -0.24 M0.28 85.04 C25.56 55.95, 50.85 26.86, 74.41 -0.24 M-0.25 97.84 C26.77 66.76, 53.79 35.68, 85.04 -0.28 M-0.25 97.84 C28.42 64.85, 57.09 31.87, 85.04 -0.28 M-0.11 109.88 C27.93 77.62, 55.97 45.36, 95.67 -0.31 M-0.11 109.88 C21.72 84.76, 43.55 59.64, 95.67 -0.31 M0.02 121.92 C23.37 95.06, 46.72 68.19, 106.3 -0.34 M0.02 121.92 C39.16 76.89, 78.31 31.86, 106.3 -0.34 M0.15 133.96 C28.02 101.9, 55.89 69.83, 116.27 0.38 M0.15 133.96 C26.22 103.97, 52.28 73.99, 116.27 0.38 M0.29 146 C39.59 100.78, 78.9 55.56, 126.91 0.34 M0.29 146 C31.25 110.38, 62.22 74.75, 126.91 0.34 M-0.24 158.8 C39.24 113.38, 78.71 67.97, 137.54 0.31 M-0.24 158.8 C30.53 123.4, 61.31 88, 137.54 0.31 M-0.1 170.84 C45.39 118.5, 90.89 66.16, 148.17 0.27 M-0.1 170.84 C54.43 108.11, 108.96 45.38, 148.17 0.27 M0.03 182.88 C44.09 132.19, 88.14 81.51, 158.8 0.24 M0.03 182.88 C41.73 134.91, 83.42 86.94, 158.8 0.24 M0.16 194.92 C43.57 144.99, 86.97 95.06, 169.43 0.2 M0.16 194.92 C57.06 129.47, 113.95 64.02, 169.43 0.2 M0.3 206.96 C61.02 137.1, 121.75 67.25, 180.06 0.17 M0.3 206.96 C40.85 160.3, 81.41 113.65, 180.06 0.17 M-0.23 219.75 C44.91 167.83, 90.04 115.91, 190.69 0.13 M-0.23 219.75 C46.18 166.36, 92.6 112.97, 190.69 0.13 M-0.09 231.8 C74.83 145.6, 149.76 59.4, 201.32 0.1 M-0.09 231.8 C68.58 152.8, 137.25 73.8, 201.32 0.1 M0.04 243.84 C53.81 181.98, 107.57 120.13, 211.95 0.06 M0.04 243.84 C80.03 151.82, 160.02 59.8, 211.95 0.06 M0.17 255.88 C81.21 162.65, 162.26 69.42, 222.58 0.03 M0.17 255.88 C63.02 183.58, 125.87 111.28, 222.58 0.03 M0.3 267.92 C80.65 175.5, 160.99 83.08, 233.21 0 M0.3 267.92 C75.62 181.28, 150.93 94.64, 233.21 0 M-0.22 280.71 C67.84 202.42, 135.89 124.13, 243.84 -0.04 M-0.22 280.71 C65.62 204.97, 131.47 129.23, 243.84 -0.04 M-0.08 292.75 C70.27 211.82, 140.62 130.89, 254.47 -0.07 M-0.08 292.75 C66.15 216.56, 132.39 140.36, 254.47 -0.07 M0.05 304.8 C95.21 195.32, 190.38 85.85, 265.1 -0.11 M0.05 304.8 C97.35 192.86, 194.66 80.92, 265.1 -0.11 M0.18 316.84 C67.41 239.5, 134.63 162.17, 275.73 -0.14 M0.18 316.84 C72.57 233.57, 144.95 150.29, 275.73 -0.14 M0.31 328.88 C65.61 253.76, 130.9 178.65, 286.36 -0.18 M0.31 328.88 C110.29 202.36, 220.27 75.85, 286.36 -0.18 M-0.21 341.67 C110.76 214.01, 221.73 86.36, 296.99 -0.21 M-0.21 341.67 C59.5 272.98, 119.21 204.3, 296.99 -0.21 M-0.08 353.71 C119.78 215.83, 239.64 77.95, 307.62 -0.25 M-0.08 353.71 C115.94 220.25, 231.96 86.79, 307.62 -0.25 M0.06 365.75 C70.06 285.23, 140.06 204.7, 318.25 -0.28 M0.06 365.75 C76.48 277.84, 152.91 189.92, 318.25 -0.28 M0.19 377.79 C107.19 254.7, 214.19 131.61, 328.88 -0.31 M0.19 377.79 C113.71 247.2, 227.23 116.61, 328.88 -0.31 M0.32 389.84 C91.5 284.95, 182.67 180.07, 339.51 -0.35 M0.32 389.84 C116.05 256.71, 231.78 123.58, 339.51 -0.35 M-0.2 402.63 C139.2 242.27, 278.6 81.91, 349.48 0.37 M-0.2 402.63 C117.04 267.77, 234.27 132.91, 349.48 0.37 M-0.07 414.67 C83.8 318.2, 167.66 221.72, 357.49 3.36 M-0.07 414.67 C128.62 266.63, 257.32 118.59, 357.49 3.36 M0.07 426.71 C125.55 282.36, 251.03 138.02, 357.62 15.4 M0.07 426.71 C120.86 287.75, 241.66 148.79, 357.62 15.4 M0.2 438.75 C129.5 290.01, 258.81 141.26, 357.75 27.44 M0.2 438.75 C124.51 295.76, 248.81 152.76, 357.75 27.44 M-0.32 451.55 C72.68 367.58, 145.67 283.6, 357.23 40.23 M-0.32 451.55 C138.97 291.31, 278.27 131.07, 357.23 40.23 M-0.19 463.59 C115.71 330.26, 231.62 196.93, 357.36 52.27 M-0.19 463.59 C89.56 360.34, 179.31 257.1, 357.36 52.27 M-0.06 475.63 C128.57 327.66, 257.2 179.69, 357.5 64.31 M-0.06 475.63 C97.28 363.66, 194.61 251.69, 357.5 64.31 M0.08 487.67 C116.6 353.62, 233.13 219.58, 357.63 76.36 M0.08 487.67 C75.85 400.51, 151.61 313.35, 357.63 76.36 M0.21 499.71 C106.86 377.03, 213.51 254.34, 357.11 89.15 M0.21 499.71 C76.18 412.32, 152.15 324.93, 357.11 89.15 M-0.31 512.51 C71.32 430.11, 142.95 347.7, 357.24 101.19 M-0.31 512.51 C95.36 402.45, 191.03 292.4, 357.24 101.19 M0.48 523.79 C101.2 407.92, 201.93 292.05, 357.37 113.23 M0.48 523.79 C137.48 366.19, 274.48 208.59, 357.37 113.23 M10.45 524.51 C118.26 400.5, 226.06 276.48, 357.51 125.27 M10.45 524.51 C97.4 424.49, 184.36 324.46, 357.51 125.27 M21.08 524.48 C105.37 427.52, 189.65 330.56, 357.64 137.31 M21.08 524.48 C89.39 445.9, 157.69 367.32, 357.64 137.31 M31.71 524.45 C112.94 431, 194.17 337.56, 357.12 150.11 M31.71 524.45 C125.65 416.38, 219.59 308.32, 357.12 150.11 M42.34 524.41 C144.26 407.16, 246.18 289.92, 357.25 162.15 M42.34 524.41 C115.76 439.96, 189.17 355.5, 357.25 162.15 M52.97 524.38 C156.42 405.37, 259.88 286.36, 357.38 174.19 M52.97 524.38 C145.87 417.51, 238.76 310.65, 357.38 174.19 M63.6 524.34 C152.29 422.32, 240.98 320.29, 357.52 186.23 M63.6 524.34 C146.7 428.75, 229.79 333.16, 357.52 186.23 M74.23 524.31 C168.76 415.57, 263.29 306.82, 357.65 198.27 M74.23 524.31 C164.49 420.48, 254.75 316.65, 357.65 198.27 M84.86 524.27 C184.05 410.17, 283.24 296.07, 357.13 211.07 M84.86 524.27 C168 428.63, 251.14 332.99, 357.13 211.07 M95.49 524.24 C177.31 430.11, 259.14 335.99, 357.26 223.11 M95.49 524.24 C185.11 421.14, 274.74 318.04, 357.26 223.11 M106.12 524.2 C199.23 417.09, 292.34 309.98, 357.39 235.15 M106.12 524.2 C181.51 437.49, 256.89 350.77, 357.39 235.15 M116.75 524.17 C210.31 416.54, 303.87 308.91, 357.53 247.19 M116.75 524.17 C185.61 444.95, 254.48 365.74, 357.53 247.19 M127.38 524.14 C210.16 428.91, 292.93 333.69, 357.66 259.23 M127.38 524.14 C175.95 468.26, 224.52 412.39, 357.66 259.23 M138.01 524.1 C182.46 472.97, 226.91 421.84, 357.14 272.03 M138.01 524.1 C193.62 460.13, 249.23 396.16, 357.14 272.03 M148.64 524.07 C200.72 464.16, 252.8 404.25, 357.27 284.07 M148.64 524.07 C196.14 469.43, 243.64 414.79, 357.27 284.07 M159.27 524.03 C204.11 472.45, 248.95 420.87, 357.4 296.11 M159.27 524.03 C207.9 468.1, 256.52 412.16, 357.4 296.11 M169.9 524 C233.58 450.74, 297.26 377.49, 357.54 308.15 M169.9 524 C223.4 462.45, 276.91 400.9, 357.54 308.15 M180.53 523.96 C226.53 471.05, 272.52 418.14, 357.67 320.19 M180.53 523.96 C225.87 471.8, 271.21 419.65, 357.67 320.19 M191.16 523.93 C225.47 484.46, 259.79 444.99, 357.15 332.99 M191.16 523.93 C251.51 454.51, 311.85 385.1, 357.15 332.99 M201.79 523.89 C253.6 464.29, 305.42 404.69, 357.28 345.03 M201.79 523.89 C260.22 456.68, 318.65 389.46, 357.28 345.03 M212.42 523.86 C242.77 488.94, 273.13 454.03, 357.41 357.07 M212.42 523.86 C268.74 459.08, 325.05 394.3, 357.41 357.07 M223.05 523.82 C250.9 491.79, 278.75 459.75, 357.54 369.11 M223.05 523.82 C262.13 478.87, 301.21 433.92, 357.54 369.11 M233.68 523.79 C281.37 468.93, 329.06 414.07, 357.68 381.15 M233.68 523.79 C274.66 476.65, 315.64 429.5, 357.68 381.15 M243.66 524.51 C274.4 489.15, 305.14 453.78, 357.15 393.95 M243.66 524.51 C286.93 474.74, 330.19 424.96, 357.15 393.95 M254.29 524.48 C290.3 483.05, 326.31 441.62, 357.29 405.99 M254.29 524.48 C285.81 488.22, 317.33 451.96, 357.29 405.99 M264.92 524.44 C287.49 498.47, 310.07 472.5, 357.42 418.03 M264.92 524.44 C285.65 500.59, 306.38 476.74, 357.42 418.03 M275.55 524.41 C292.04 505.44, 308.53 486.46, 357.55 430.07 M275.55 524.41 C298.21 498.33, 320.88 472.26, 357.55 430.07 M286.18 524.37 C305.9 501.69, 325.61 479.01, 357.69 442.11 M286.18 524.37 C306.98 500.45, 327.77 476.52, 357.69 442.11 M296.81 524.34 C309.81 509.38, 322.82 494.41, 357.16 454.9 M296.81 524.34 C317.83 500.15, 338.86 475.96, 357.16 454.9 M307.44 524.3 C319.64 510.27, 331.84 496.23, 357.3 466.95 M307.44 524.3 C319.82 510.06, 332.2 495.82, 357.3 466.95 M318.07 524.27 C331.8 508.47, 345.54 492.67, 357.43 478.99 M318.07 524.27 C328.85 511.86, 339.64 499.45, 357.43 478.99 M328.7 524.23 C336.19 515.62, 343.67 507.01, 357.56 491.03 M328.7 524.23 C336.17 515.64, 343.63 507.05, 357.56 491.03 M339.33 524.2 C345.52 517.07, 351.72 509.95, 357.7 503.07 M339.33 524.2 C345.77 516.79, 352.22 509.37, 357.7 503.07 M349.96 524.17 C352.54 521.19, 355.12 518.22, 357.17 515.86 M349.96 524.17 C351.98 521.84, 353.99 519.52, 357.17 515.86 M0.17 524.15 C0.17 524.15, 0.17 524.15, 0.17 524.15 M0.17 524.15 C0.17 524.15, 0.17 524.15, 0.17 524.15 M12.21 524.01 C9.7 521.83, 7.18 519.64, 0.14 513.52 M12.21 524.01 C7.82 520.19, 3.42 516.37, 0.14 513.52 M24.25 523.88 C16.52 517.16, 8.79 510.44, 0.1 502.89 M24.25 523.88 C17.64 518.14, 11.03 512.39, 0.1 502.89 M36.29 523.75 C28.76 517.2, 21.23 510.65, 0.07 492.26 M36.29 523.75 C23.26 512.42, 10.22 501.08, 0.07 492.26 M49.09 524.27 C30.21 507.86, 11.34 491.46, 0.03 481.63 M49.09 524.27 C32.35 509.73, 15.62 495.18, 0.03 481.63 M61.13 524.14 C37.65 503.73, 14.17 483.32, 0 471 M61.13 524.14 C48.25 512.94, 35.37 501.74, 0 471 M73.17 524 C55.28 508.45, 37.39 492.9, -0.04 460.37 M73.17 524 C58.36 511.13, 43.55 498.26, -0.04 460.37 M85.21 523.87 C60.17 502.11, 35.13 480.34, -0.07 449.74 M85.21 523.87 C63.43 504.94, 41.65 486, -0.07 449.74 M97.25 523.74 C74.54 504, 51.83 484.25, -0.11 439.11 M97.25 523.74 C60.14 491.48, 23.03 459.21, -0.11 439.11 M110.05 524.26 C74.44 493.31, 38.84 462.36, -0.14 428.48 M110.05 524.26 C73.9 492.84, 37.76 461.42, -0.14 428.48 M122.09 524.13 C89.65 495.93, 57.2 467.72, -0.18 417.85 M122.09 524.13 C79.65 487.24, 37.22 450.35, -0.18 417.85 M134.13 524 C81.88 478.57, 29.62 433.15, -0.21 407.22 M134.13 524 C99.47 493.87, 64.81 463.74, -0.21 407.22 M146.17 523.86 C97.23 481.32, 48.29 438.78, -0.24 396.59 M146.17 523.86 C114.77 496.56, 83.36 469.26, -0.24 396.59 M158.21 523.73 C120.64 491.07, 83.07 458.41, -0.28 385.96 M158.21 523.73 C99.57 472.75, 40.92 421.77, -0.28 385.96 M171.01 524.25 C134.47 492.49, 97.93 460.73, -0.31 375.33 M171.01 524.25 C129.32 488.01, 87.63 451.77, -0.31 375.33 M183.05 524.12 C120.13 469.42, 57.21 414.73, -0.35 364.7 M183.05 524.12 C112.59 462.87, 42.14 401.63, -0.35 364.7 M195.09 523.99 C125.88 463.82, 56.67 403.66, 0.37 354.72 M195.09 523.99 C129.12 466.64, 63.15 409.29, 0.37 354.72 M207.13 523.85 C163.21 485.67, 119.29 447.5, 0.34 344.09 M207.13 523.85 C141.83 467.09, 76.53 410.32, 0.34 344.09 M219.17 523.72 C133.06 448.87, 46.95 374.01, 0.3 333.46 M219.17 523.72 C142.25 456.86, 65.34 390, 0.3 333.46 M231.97 524.24 C167.1 467.85, 102.23 411.46, 0.27 322.83 M231.97 524.24 C144.95 448.6, 57.94 372.97, 0.27 322.83 M244.01 524.11 C185.59 473.33, 127.18 422.55, 0.23 312.2 M244.01 524.11 C152.1 444.22, 60.19 364.32, 0.23 312.2 M256.05 523.98 C202.17 477.14, 148.28 430.3, 0.2 301.57 M256.05 523.98 C187.11 464.05, 118.18 404.13, 0.2 301.57 M268.09 523.84 C164.64 433.92, 61.2 344, 0.17 290.94 M268.09 523.84 C199.31 464.05, 130.53 404.27, 0.17 290.94 M280.13 523.71 C168.5 426.68, 56.88 329.64, 0.13 280.31 M280.13 523.71 C196.48 451, 112.84 378.29, 0.13 280.31 M292.92 524.23 C233.02 472.16, 173.11 420.08, 0.1 269.68 M292.92 524.23 C211.82 453.73, 130.72 383.23, 0.1 269.68 M304.96 524.1 C223.17 453, 141.38 381.9, 0.06 259.05 M304.96 524.1 C225.67 455.17, 146.38 386.24, 0.06 259.05 M317.01 523.97 C238.86 456.04, 160.71 388.1, 0.03 248.42 M317.01 523.97 C231.57 449.7, 146.13 375.43, 0.03 248.42 M329.05 523.83 C206.26 417.09, 83.47 310.36, -0.01 237.79 M329.05 523.83 C215.41 425.05, 101.78 326.27, -0.01 237.79 M341.09 523.7 C224.05 421.96, 107.02 320.23, -0.04 227.16 M341.09 523.7 C234.83 431.33, 128.57 338.96, -0.04 227.16 M353.88 524.22 C248.81 432.88, 143.74 341.55, -0.08 216.53 M353.88 524.22 C268.3 449.83, 182.72 375.44, -0.08 216.53 M357.62 516.87 C248.51 422.02, 139.39 327.17, -0.11 205.9 M357.62 516.87 C277.04 446.83, 196.47 376.78, -0.11 205.9 M357.59 506.24 C231.49 396.63, 105.39 287.01, -0.14 195.27 M357.59 506.24 C274.61 434.12, 191.64 361.99, -0.14 195.27 M357.55 495.61 C277.82 426.3, 198.09 356.99, -0.18 184.64 M357.55 495.61 C257.93 409.01, 158.31 322.42, -0.18 184.64 M357.52 484.98 C256.31 397, 155.1 309.02, -0.21 174.01 M357.52 484.98 C252.46 393.66, 147.4 302.33, -0.21 174.01 M357.48 474.35 C226.25 360.28, 95.02 246.2, -0.25 163.38 M357.48 474.35 C255.82 385.97, 154.15 297.59, -0.25 163.38 M357.45 463.72 C228.42 351.56, 99.39 239.39, -0.28 152.75 M357.45 463.72 C285.85 401.48, 214.24 339.23, -0.28 152.75 M357.42 453.09 C254.83 363.91, 152.24 274.74, -0.32 142.12 M357.42 453.09 C249.83 359.57, 142.24 266.04, -0.32 142.12 M357.38 442.46 C254.35 352.9, 151.33 263.34, -0.35 131.49 M357.38 442.46 C278.73 374.09, 200.07 305.72, -0.35 131.49 M357.35 431.83 C245.88 334.94, 134.41 238.04, 0.37 121.52 M357.35 431.83 C238.92 328.88, 120.49 225.94, 0.37 121.52 M357.31 421.2 C251.37 329.11, 145.43 237.02, 0.33 110.89 M357.31 421.2 C279.99 353.99, 202.67 286.78, 0.33 110.89 M357.28 410.57 C267.13 332.21, 176.98 253.85, 0.3 100.26 M357.28 410.57 C276.54 340.39, 195.81 270.21, 0.3 100.26 M357.24 399.94 C268.5 322.8, 179.76 245.65, 0.26 89.63 M357.24 399.94 C232.5 291.5, 107.75 183.07, 0.26 89.63 M357.21 389.31 C251.35 297.29, 145.49 205.27, 0.23 79 M357.21 389.31 C222.18 271.94, 87.16 154.56, 0.23 79 M357.17 378.68 C237.67 274.8, 118.17 170.92, 0.2 68.37 M357.17 378.68 C224.08 262.98, 90.98 147.28, 0.2 68.37 M357.14 368.05 C245.44 270.95, 133.73 173.85, 0.16 57.74 M357.14 368.05 C275.9 297.43, 194.66 226.81, 0.16 57.74 M357.86 358.08 C223.27 241.08, 88.67 124.08, 0.13 47.11 M357.86 358.08 C237.48 253.43, 117.1 148.79, 0.13 47.11 M357.82 347.45 C232.63 238.62, 107.43 129.79, 0.09 36.48 M357.82 347.45 C229.38 235.8, 100.94 124.14, 0.09 36.48 M357.79 336.82 C242 236.16, 126.2 135.5, 0.06 25.85 M357.79 336.82 C255.66 248.03, 153.52 159.25, 0.06 25.85 M357.76 326.19 C237.66 221.79, 117.57 117.4, 0.02 15.22 M357.76 326.19 C285.19 263.11, 212.63 200.03, 0.02 15.22 M357.72 315.56 C229.85 204.4, 101.98 93.24, -0.01 4.59 M357.72 315.56 C228.88 203.55, 100.03 91.55, -0.01 4.59 M357.69 304.93 C225.1 189.67, 92.5 74.41, 6.75 -0.14 M357.69 304.93 C240.3 202.89, 122.92 100.85, 6.75 -0.14 M357.65 294.3 C226.32 180.13, 94.99 65.97, 18.79 -0.27 M357.65 294.3 C257.28 207.05, 156.92 119.8, 18.79 -0.27 M357.62 283.67 C271.45 208.76, 185.28 133.86, 30.83 -0.41 M357.62 283.67 C235.14 177.2, 112.66 70.73, 30.83 -0.41 M357.58 273.04 C246.25 176.26, 134.92 79.48, 42.87 -0.54 M357.58 273.04 C255.45 184.25, 153.32 95.47, 42.87 -0.54 M357.55 262.41 C248.49 167.6, 139.43 72.8, 54.91 -0.67 M357.55 262.41 C269.81 186.13, 182.06 109.86, 54.91 -0.67 M357.51 251.78 C263.2 169.79, 168.89 87.81, 67.71 -0.15 M357.51 251.78 C278.83 183.38, 200.15 114.99, 67.71 -0.15 M357.48 241.15 C270.1 165.19, 182.73 89.24, 79.75 -0.28 M357.48 241.15 C276.57 170.82, 195.67 100.49, 79.75 -0.28 M357.45 230.52 C303.87 183.94, 250.29 137.37, 91.79 -0.42 M357.45 230.52 C288.73 170.78, 220.01 111.04, 91.79 -0.42 M357.41 219.89 C267.93 142.1, 178.45 64.32, 103.83 -0.55 M357.41 219.89 C272.28 145.88, 187.15 71.88, 103.83 -0.55 M357.38 209.26 C306.35 164.9, 255.32 120.54, 115.87 -0.68 M357.38 209.26 C308.35 166.64, 259.32 124.02, 115.87 -0.68 M357.34 198.63 C270.16 122.84, 182.97 47.05, 128.66 -0.16 M357.34 198.63 C305.84 153.86, 254.34 109.08, 128.66 -0.16 M357.31 188 C311.23 147.94, 265.15 107.89, 140.71 -0.29 M357.31 188 C288.7 128.36, 220.1 68.73, 140.71 -0.29 M357.27 177.37 C298.86 126.59, 240.44 75.81, 152.75 -0.43 M357.27 177.37 C294.44 122.75, 231.61 68.13, 152.75 -0.43 M357.24 166.74 C281.38 100.79, 205.52 34.85, 164.79 -0.56 M357.24 166.74 C317.33 132.05, 277.43 97.36, 164.79 -0.56 M357.2 156.11 C315.46 119.82, 273.72 83.53, 176.83 -0.69 M357.2 156.11 C289.67 97.4, 222.14 38.7, 176.83 -0.69 M357.17 145.48 C294.6 91.08, 232.03 36.69, 189.62 -0.17 M357.17 145.48 C293.88 90.46, 230.58 35.44, 189.62 -0.17 M357.89 135.5 C301.04 86.09, 244.2 36.67, 201.66 -0.3 M357.89 135.5 C300.9 85.97, 243.92 36.43, 201.66 -0.3 M357.86 124.87 C314.88 87.52, 271.91 50.16, 213.71 -0.44 M357.86 124.87 C310.84 84.01, 263.83 43.14, 213.71 -0.44 M357.82 114.24 C317.16 78.9, 276.5 43.55, 225.75 -0.57 M357.82 114.24 C323.26 84.2, 288.7 54.16, 225.75 -0.57 M357.79 103.61 C316.34 67.59, 274.9 31.56, 237.79 -0.7 M357.79 103.61 C328.28 77.96, 298.77 52.31, 237.79 -0.7 M357.75 92.98 C329.04 68.02, 300.33 43.06, 250.58 -0.18 M357.75 92.98 C315.56 56.3, 273.36 19.62, 250.58 -0.18 M357.72 82.35 C336.6 63.99, 315.47 45.63, 262.62 -0.31 M357.72 82.35 C326.72 55.41, 295.73 28.47, 262.62 -0.31 M357.68 71.72 C330.43 48.03, 303.17 24.33, 274.66 -0.45 M357.68 71.72 C329.88 47.55, 302.08 23.38, 274.66 -0.45 M357.65 61.09 C338.85 44.75, 320.05 28.41, 286.71 -0.58 M357.65 61.09 C339.89 45.66, 322.14 30.22, 286.71 -0.58 M357.61 50.46 C336.83 32.4, 316.05 14.33, 298.75 -0.71 M357.61 50.46 C345.58 40, 333.54 29.54, 298.75 -0.71 M357.58 39.83 C341.92 26.22, 326.25 12.6, 311.54 -0.19 M357.58 39.83 C343.84 27.89, 330.11 15.95, 311.54 -0.19 M357.54 29.2 C347.84 20.77, 338.14 12.34, 323.58 -0.32 M357.54 29.2 C345.08 18.37, 332.62 7.54, 323.58 -0.32 M357.51 18.57 C349.98 12.03, 342.46 5.49, 335.62 -0.45 M357.51 18.57 C352.15 13.91, 346.79 9.25, 335.62 -0.45 M357.48 7.94 C355.03 5.81, 352.58 3.69, 347.66 -0.59 M357.48 7.94 C354.22 5.11, 350.96 2.27, 347.66 -0.59" stroke="#e9ecef" stroke-width="1" fill="none"></path><path d="M0 0 C137.2 0, 274.39 0, 357 0 M0 0 C113.88 0, 227.77 0, 357 0 M357 0 C357 106.85, 357 213.69, 357 524 M357 0 C357 146.37, 357 292.75, 357 524 M357 524 C223.95 524, 90.91 524, 0 524 M357 524 C282.4 524, 207.79 524, 0 524 M0 524 C0 397.17, 0 270.35, 0 0 M0 524 C0 355.07, 0 186.14, 0 0" stroke="#1e1e1e" stroke-width="2" fill="none"></path></g><g stroke-linecap="round" transform="translate(10 10) rotate(0 178.5 262)"><path d="M0 0 C0 0, 0 0, 0 0 M0 0 C0 0, 0 0, 0 0 M0.13 12.04 C4.21 7.35, 8.28 2.67, 10.63 -0.03 M0.13 12.04 C2.76 9.02, 5.38 6, 10.63 -0.03 M0.27 24.08 C7.25 16.04, 14.24 8, 21.26 -0.07 M0.27 24.08 C6.95 16.39, 13.63 8.7, 21.26 -0.07 M-0.26 36.88 C7.68 27.74, 15.62 18.61, 31.89 -0.1 M-0.26 36.88 C12.03 22.75, 24.31 8.62, 31.89 -0.1 M-0.12 48.92 C12.66 34.22, 25.44 19.52, 42.52 -0.14 M-0.12 48.92 C10.03 37.24, 20.18 25.56, 42.52 -0.14 M0.01 60.96 C14.99 43.73, 29.97 26.5, 53.15 -0.17 M0.01 60.96 C15.5 43.14, 30.98 25.33, 53.15 -0.17 M0.14 73 C17.43 53.12, 34.71 33.24, 63.78 -0.21 M0.14 73 C15.39 55.47, 30.63 37.93, 63.78 -0.21 M0.28 85.04 C29.9 50.96, 59.53 16.87, 74.41 -0.24 M0.28 85.04 C19.31 63.14, 38.35 41.25, 74.41 -0.24 M-0.25 97.84 C26.66 66.89, 53.56 35.94, 85.04 -0.28 M-0.25 97.84 C23.52 70.49, 47.3 43.14, 85.04 -0.28 M-0.11 109.88 C33.64 71.05, 67.39 32.22, 95.67 -0.31 M-0.11 109.88 C36.92 67.28, 73.94 24.68, 95.67 -0.31 M0.02 121.92 C41.85 73.8, 83.68 25.68, 106.3 -0.34 M0.02 121.92 C31 86.27, 61.99 50.63, 106.3 -0.34 M0.15 133.96 C27.72 102.24, 55.3 70.52, 116.27 0.38 M0.15 133.96 C37.2 91.34, 74.25 48.72, 116.27 0.38 M0.29 146 C33.64 107.63, 67 69.26, 126.91 0.34 M0.29 146 C37.44 103.26, 74.6 60.51, 126.91 0.34 M-0.24 158.8 C54.53 95.79, 109.3 32.79, 137.54 0.31 M-0.24 158.8 C44.13 107.76, 88.5 56.72, 137.54 0.31 M-0.1 170.84 C55.93 106.38, 111.96 41.92, 148.17 0.27 M-0.1 170.84 C41.36 123.13, 82.83 75.43, 148.17 0.27 M0.03 182.88 C50.94 124.31, 101.85 65.75, 158.8 0.24 M0.03 182.88 C62.43 111.09, 124.83 39.31, 158.8 0.24 M0.16 194.92 C65.36 119.91, 130.56 44.91, 169.43 0.2 M0.16 194.92 C55.19 131.62, 110.21 68.32, 169.43 0.2 M0.3 206.96 C61.44 136.62, 122.58 66.28, 180.06 0.17 M0.3 206.96 C64.88 132.66, 129.47 58.36, 180.06 0.17 M-0.23 219.75 C43.44 169.51, 87.12 119.28, 190.69 0.13 M-0.23 219.75 C54.04 157.33, 108.3 94.91, 190.69 0.13 M-0.09 231.8 C67.31 154.26, 134.71 76.72, 201.32 0.1 M-0.09 231.8 C75.98 144.28, 152.06 56.76, 201.32 0.1 M0.04 243.84 C52.46 183.53, 104.88 123.23, 211.95 0.06 M0.04 243.84 C61.78 172.81, 123.53 101.77, 211.95 0.06 M0.17 255.88 C50.9 197.52, 101.63 139.16, 222.58 0.03 M0.17 255.88 C52.42 195.78, 104.66 135.68, 222.58 0.03 M0.3 267.92 C64.39 194.19, 128.48 120.47, 233.21 0 M0.3 267.92 C60.97 198.13, 121.63 128.35, 233.21 0 M-0.22 280.71 C70.5 199.36, 141.22 118.01, 243.84 -0.04 M-0.22 280.71 C60.09 211.33, 120.41 141.95, 243.84 -0.04 M-0.08 292.75 C86.86 192.74, 173.8 92.72, 254.47 -0.07 M-0.08 292.75 C97.95 179.98, 195.99 67.2, 254.47 -0.07 M0.05 304.8 C62.13 233.38, 124.21 161.96, 265.1 -0.11 M0.05 304.8 C95.56 194.92, 191.07 85.04, 265.1 -0.11 M0.18 316.84 C102.48 199.16, 204.78 81.48, 275.73 -0.14 M0.18 316.84 C65.95 241.18, 131.71 165.53, 275.73 -0.14 M0.31 328.88 C92.24 223.13, 184.17 117.37, 286.36 -0.18 M0.31 328.88 C71.9 246.52, 143.49 164.17, 286.36 -0.18 M-0.21 341.67 C84.29 244.47, 168.79 147.26, 296.99 -0.21 M-0.21 341.67 C81.25 247.96, 162.71 154.25, 296.99 -0.21 M-0.08 353.71 C78.82 262.96, 157.71 172.2, 307.62 -0.25 M-0.08 353.71 C68.29 275.06, 136.66 196.41, 307.62 -0.25 M0.06 365.75 C94.28 257.36, 188.5 148.97, 318.25 -0.28 M0.06 365.75 C103.18 247.12, 206.31 128.49, 318.25 -0.28 M0.19 377.79 C95.45 268.21, 190.71 158.62, 328.88 -0.31 M0.19 377.79 C102.47 260.13, 204.75 142.47, 328.88 -0.31 M0.32 389.84 C74.03 305.04, 147.74 220.25, 339.51 -0.35 M0.32 389.84 C102.44 272.37, 204.55 154.9, 339.51 -0.35 M-0.2 402.63 C110.81 274.93, 221.82 147.22, 349.48 0.37 M-0.2 402.63 C133.36 248.99, 266.92 95.35, 349.48 0.37 M-0.07 414.67 C126.46 269.12, 252.99 123.56, 357.49 3.36 M-0.07 414.67 C106.14 292.5, 212.35 170.32, 357.49 3.36 M0.07 426.71 C136.1 270.22, 272.14 113.73, 357.62 15.4 M0.07 426.71 C81.91 332.57, 163.75 238.42, 357.62 15.4 M0.2 438.75 C74.25 353.57, 148.3 268.38, 357.75 27.44 M0.2 438.75 C101.67 322.03, 203.14 205.3, 357.75 27.44 M-0.32 451.55 C130.28 301.31, 260.88 151.07, 357.23 40.23 M-0.32 451.55 C98.4 337.98, 197.13 224.41, 357.23 40.23 M-0.19 463.59 C133.4 309.92, 266.98 156.25, 357.36 52.27 M-0.19 463.59 C75.88 376.08, 151.95 288.58, 357.36 52.27 M-0.06 475.63 C108.51 350.74, 217.08 225.85, 357.5 64.31 M-0.06 475.63 C99.13 361.53, 198.32 247.43, 357.5 64.31 M0.08 487.67 C87.79 386.77, 175.5 285.88, 357.63 76.36 M0.08 487.67 C112.72 358.09, 225.37 228.5, 357.63 76.36 M0.21 499.71 C97.52 387.77, 194.83 275.83, 357.11 89.15 M0.21 499.71 C77.39 410.93, 154.56 322.15, 357.11 89.15 M-0.31 512.51 C110.32 385.24, 220.96 257.97, 357.24 101.19 M-0.31 512.51 C71.74 429.62, 143.79 346.74, 357.24 101.19 M0.48 523.79 C105.65 402.8, 210.83 281.81, 357.37 113.23 M0.48 523.79 C73.91 439.31, 147.35 354.83, 357.37 113.23 M10.45 524.51 C96.7 425.3, 182.95 326.08, 357.51 125.27 M10.45 524.51 C136.3 379.74, 262.16 234.96, 357.51 125.27 M21.08 524.48 C101.01 432.54, 180.93 340.59, 357.64 137.31 M21.08 524.48 C151.95 373.94, 282.81 223.39, 357.64 137.31 M31.71 524.45 C109.95 434.45, 188.18 344.44, 357.12 150.11 M31.71 524.45 C119.12 423.9, 206.52 323.35, 357.12 150.11 M42.34 524.41 C141.22 410.66, 240.11 296.91, 357.25 162.15 M42.34 524.41 C117.29 438.2, 192.23 351.98, 357.25 162.15 M52.97 524.38 C131.61 433.91, 210.25 343.45, 357.38 174.19 M52.97 524.38 C134.95 430.07, 216.93 335.77, 357.38 174.19 M63.6 524.34 C176.05 394.98, 288.51 265.62, 357.52 186.23 M63.6 524.34 C138.68 437.98, 213.75 351.61, 357.52 186.23 M74.23 524.31 C179.3 403.44, 284.37 282.57, 357.65 198.27 M74.23 524.31 C157.64 428.36, 241.04 332.41, 357.65 198.27 M84.86 524.27 C152.09 446.94, 219.31 369.61, 357.13 211.07 M84.86 524.27 C159.22 438.74, 233.57 353.2, 357.13 211.07 M95.49 524.24 C158.67 451.56, 221.86 378.87, 357.26 223.11 M95.49 524.24 C187.85 417.99, 280.21 311.75, 357.26 223.11 M106.12 524.2 C195.54 421.34, 284.96 318.47, 357.39 235.15 M106.12 524.2 C194.71 422.3, 283.3 320.39, 357.39 235.15 M116.75 524.17 C171.98 460.63, 227.22 397.09, 357.53 247.19 M116.75 524.17 C173.06 459.4, 229.36 394.63, 357.53 247.19 M127.38 524.14 C197.33 443.67, 267.28 363.2, 357.66 259.23 M127.38 524.14 C193.04 448.61, 258.69 373.08, 357.66 259.23 M138.01 524.1 C201.39 451.2, 264.76 378.29, 357.14 272.03 M138.01 524.1 C183.15 472.18, 228.28 420.25, 357.14 272.03 M148.64 524.07 C217.52 444.83, 286.39 365.6, 357.27 284.07 M148.64 524.07 C209.5 454.05, 270.36 384.04, 357.27 284.07 M159.27 524.03 C212.88 462.36, 266.49 400.7, 357.4 296.11 M159.27 524.03 C222.19 451.65, 285.1 379.28, 357.4 296.11 M169.9 524 C211.16 476.53, 252.42 429.07, 357.54 308.15 M169.9 524 C230.52 454.27, 291.13 384.54, 357.54 308.15 M180.53 523.96 C219.23 479.44, 257.94 434.92, 357.67 320.19 M180.53 523.96 C233.06 463.53, 285.59 403.11, 357.67 320.19 M191.16 523.93 C224.9 485.12, 258.63 446.31, 357.15 332.99 M191.16 523.93 C250.83 455.29, 310.49 386.66, 357.15 332.99 M201.79 523.89 C244.29 475, 286.79 426.12, 357.28 345.03 M201.79 523.89 C240.77 479.06, 279.74 434.22, 357.28 345.03 M212.42 523.86 C249.5 481.21, 286.57 438.56, 357.41 357.07 M212.42 523.86 C257.51 471.99, 302.59 420.13, 357.41 357.07 M223.05 523.82 C272.92 466.46, 322.78 409.1, 357.54 369.11 M223.05 523.82 C272.45 467, 321.85 410.17, 357.54 369.11 M233.68 523.79 C283.04 467.01, 332.4 410.23, 357.68 381.15 M233.68 523.79 C273.02 478.53, 312.37 433.28, 357.68 381.15 M243.66 524.51 C282.45 479.89, 321.24 435.26, 357.15 393.95 M243.66 524.51 C267.89 496.64, 292.12 468.76, 357.15 393.95 M254.29 524.48 C295.13 477.5, 335.96 430.52, 357.29 405.99 M254.29 524.48 C279.81 495.11, 305.34 465.74, 357.29 405.99 M264.92 524.44 C284.59 501.81, 304.26 479.18, 357.42 418.03 M264.92 524.44 C286.75 499.33, 308.58 474.21, 357.42 418.03 M275.55 524.41 C297.07 499.65, 318.59 474.89, 357.55 430.07 M275.55 524.41 C292.09 505.38, 308.63 486.35, 357.55 430.07 M286.18 524.37 C307.99 499.28, 329.8 474.19, 357.69 442.11 M286.18 524.37 C304.86 502.88, 323.54 481.39, 357.69 442.11 M296.81 524.34 C318.09 499.85, 339.38 475.37, 357.16 454.9 M296.81 524.34 C309.34 509.92, 321.88 495.49, 357.16 454.9 M307.44 524.3 C324.18 505.04, 340.92 485.78, 357.3 466.95 M307.44 524.3 C327.15 501.62, 346.87 478.94, 357.3 466.95 M318.07 524.27 C328.66 512.08, 339.26 499.89, 357.43 478.99 M318.07 524.27 C330.83 509.58, 343.6 494.9, 357.43 478.99 M328.7 524.23 C337.85 513.7, 347.01 503.17, 357.56 491.03 M328.7 524.23 C338.06 513.47, 347.42 502.7, 357.56 491.03 M339.33 524.2 C345.93 516.6, 352.53 509.01, 357.7 503.07 M339.33 524.2 C345.57 517.02, 351.81 509.85, 357.7 503.07 M349.96 524.17 C351.81 522.03, 353.66 519.9, 357.17 515.86 M349.96 524.17 C351.5 522.39, 353.04 520.62, 357.17 515.86 M0.17 524.15 C0.17 524.15, 0.17 524.15, 0.17 524.15 M0.17 524.15 C0.17 524.15, 0.17 524.15, 0.17 524.15 M12.21 524.01 C9.1 521.31, 6 518.61, 0.14 513.52 M12.21 524.01 C9.7 521.83, 7.19 519.65, 0.14 513.52 M24.25 523.88 C15.14 515.96, 6.02 508.04, 0.1 502.89 M24.25 523.88 C17.79 518.26, 11.33 512.65, 0.1 502.89 M36.29 523.75 C28.43 516.91, 20.56 510.07, 0.07 492.26 M36.29 523.75 C24.25 513.28, 12.2 502.8, 0.07 492.26 M49.09 524.27 C37.98 514.62, 26.88 504.97, 0.03 481.63 M49.09 524.27 C34.13 511.27, 19.17 498.26, 0.03 481.63 M61.13 524.14 C40.98 506.62, 20.83 489.11, 0 471 M61.13 524.14 C37.16 503.3, 13.18 482.46, 0 471 M73.17 524 C51.82 505.44, 30.46 486.88, -0.04 460.37 M73.17 524 C51.89 505.51, 30.62 487.01, -0.04 460.37 M85.21 523.87 C52.5 495.44, 19.8 467.01, -0.07 449.74 M85.21 523.87 C62.12 503.8, 39.02 483.72, -0.07 449.74 M97.25 523.74 C63.43 494.34, 29.6 464.93, -0.11 439.11 M97.25 523.74 C62.09 493.18, 26.93 462.61, -0.11 439.11 M110.05 524.26 C81.07 499.07, 52.08 473.87, -0.14 428.48 M110.05 524.26 C84.43 501.99, 58.81 479.72, -0.14 428.48 M122.09 524.13 C83.85 490.89, 45.61 457.65, -0.18 417.85 M122.09 524.13 C75.29 483.45, 28.49 442.77, -0.18 417.85 M134.13 524 C100.88 495.09, 67.62 466.18, -0.21 407.22 M134.13 524 C104.46 498.2, 74.78 472.41, -0.21 407.22 M146.17 523.86 C94.59 479.02, 43 434.18, -0.24 396.59 M146.17 523.86 C109.35 491.85, 72.52 459.84, -0.24 396.59 M158.21 523.73 C108.8 480.78, 59.39 437.82, -0.28 385.96 M158.21 523.73 C101.28 474.24, 44.34 424.75, -0.28 385.96 M171.01 524.25 C106.6 468.26, 42.19 412.28, -0.31 375.33 M171.01 524.25 C103.68 465.72, 36.35 407.19, -0.31 375.33 M183.05 524.12 C141.64 488.12, 100.23 452.13, -0.35 364.7 M183.05 524.12 C137.1 484.18, 91.15 444.23, -0.35 364.7 M195.09 523.99 C129.11 466.63, 63.13 409.27, 0.37 354.72 M195.09 523.99 C143.95 479.53, 92.81 435.08, 0.37 354.72 M207.13 523.85 C154.41 478.03, 101.7 432.2, 0.34 344.09 M207.13 523.85 C149.74 473.96, 92.34 424.07, 0.34 344.09 M219.17 523.72 C144.41 458.73, 69.65 393.74, 0.3 333.46 M219.17 523.72 C165.46 477.03, 111.75 430.34, 0.3 333.46 M231.97 524.24 C171.75 471.9, 111.54 419.56, 0.27 322.83 M231.97 524.24 C161.86 463.3, 91.75 402.36, 0.27 322.83 M244.01 524.11 C163.58 454.2, 83.15 384.28, 0.23 312.2 M244.01 524.11 C157.21 448.66, 70.42 373.21, 0.23 312.2 M256.05 523.98 C154.58 435.77, 53.12 347.57, 0.2 301.57 M256.05 523.98 C161.96 442.19, 67.88 360.4, 0.2 301.57 M268.09 523.84 C162.25 431.84, 56.41 339.84, 0.17 290.94 M268.09 523.84 C177.27 444.9, 86.46 365.95, 0.17 290.94 M280.13 523.71 C219.54 471.04, 158.96 418.38, 0.13 280.31 M280.13 523.71 C169.6 427.63, 59.07 331.54, 0.13 280.31 M292.92 524.23 C212.88 454.65, 132.83 385.07, 0.1 269.68 M292.92 524.23 C185.09 430.49, 77.25 336.75, 0.1 269.68 M304.96 524.1 C193.41 427.13, 81.86 330.16, 0.06 259.05 M304.96 524.1 C218.04 448.54, 131.12 372.98, 0.06 259.05 M317.01 523.97 C238.82 456, 160.64 388.04, 0.03 248.42 M317.01 523.97 C206.79 428.16, 96.57 332.35, 0.03 248.42 M329.05 523.83 C234.63 441.76, 140.22 359.68, -0.01 237.79 M329.05 523.83 C256.71 460.95, 184.36 398.06, -0.01 237.79 M341.09 523.7 C258.54 451.94, 175.98 380.18, -0.04 227.16 M341.09 523.7 C269.18 461.19, 197.27 398.68, -0.04 227.16 M353.88 524.22 C241.74 426.74, 129.59 329.25, -0.08 216.53 M353.88 524.22 C226.51 413.5, 99.13 302.77, -0.08 216.53 M357.62 516.87 C238.93 413.7, 120.25 310.52, -0.11 205.9 M357.62 516.87 C278.68 448.25, 199.74 379.63, -0.11 205.9 M357.59 506.24 C218.75 385.55, 79.91 264.86, -0.14 195.27 M357.59 506.24 C233.95 398.76, 110.31 291.28, -0.14 195.27 M357.55 495.61 C273.95 422.94, 190.35 350.26, -0.18 184.64 M357.55 495.61 C260.9 411.59, 164.24 327.57, -0.18 184.64 M357.52 484.98 C239.96 382.79, 122.4 280.6, -0.21 174.01 M357.52 484.98 C215.38 361.42, 73.24 237.86, -0.21 174.01 M357.48 474.35 C282.08 408.81, 206.68 343.26, -0.25 163.38 M357.48 474.35 C220.88 355.6, 84.27 236.85, -0.25 163.38 M357.45 463.72 C228.12 351.3, 98.78 238.87, -0.28 152.75 M357.45 463.72 C280.59 396.91, 203.72 330.09, -0.28 152.75 M357.42 453.09 C224.58 337.62, 91.74 222.14, -0.32 142.12 M357.42 453.09 C283.02 388.42, 208.63 323.76, -0.32 142.12 M357.38 442.46 C283.93 378.61, 210.48 314.76, -0.35 131.49 M357.38 442.46 C258.01 356.08, 158.64 269.7, -0.35 131.49 M357.35 431.83 C225.62 317.33, 93.9 202.82, 0.37 121.52 M357.35 431.83 C239.42 329.32, 121.5 226.82, 0.37 121.52 M357.31 421.2 C223.88 305.21, 90.44 189.21, 0.33 110.89 M357.31 421.2 C234.03 314.04, 110.76 206.87, 0.33 110.89 M357.28 410.57 C249.21 316.63, 141.14 222.69, 0.3 100.26 M357.28 410.57 C228.55 298.67, 99.81 186.76, 0.3 100.26 M357.24 399.94 C258.7 314.28, 160.16 228.62, 0.26 89.63 M357.24 399.94 C229.99 289.32, 102.74 178.7, 0.26 89.63 M357.21 389.31 C279.82 322.04, 202.43 254.77, 0.23 79 M357.21 389.31 C271.51 314.81, 185.8 240.31, 0.23 79 M357.17 378.68 C244.19 280.47, 131.21 182.26, 0.2 68.37 M357.17 378.68 C239.44 276.33, 121.7 173.98, 0.2 68.37 M357.14 368.05 C285.48 305.76, 213.81 243.46, 0.16 57.74 M357.14 368.05 C235.87 262.64, 114.61 157.22, 0.16 57.74 M357.86 358.08 C216.6 235.28, 75.34 112.49, 0.13 47.11 M357.86 358.08 C263.53 276.08, 169.2 194.08, 0.13 47.11 M357.82 347.45 C254.26 257.42, 150.7 167.4, 0.09 36.48 M357.82 347.45 C228.99 235.46, 100.16 123.47, 0.09 36.48 M357.79 336.82 C284.02 272.69, 210.24 208.55, 0.06 25.85 M357.79 336.82 C273.33 263.4, 188.88 189.99, 0.06 25.85 M357.76 326.19 C227.81 213.23, 97.87 100.27, 0.02 15.22 M357.76 326.19 C274.86 254.13, 191.97 182.07, 0.02 15.22 M357.72 315.56 C235.76 209.54, 113.81 103.52, -0.01 4.59 M357.72 315.56 C248.72 220.8, 139.72 126.05, -0.01 4.59 M357.69 304.93 C270.83 229.43, 183.98 153.93, 6.75 -0.14 M357.69 304.93 C282.41 239.49, 207.12 174.05, 6.75 -0.14 M357.65 294.3 C227.32 181, 96.99 67.71, 18.79 -0.27 M357.65 294.3 C287.54 233.35, 217.43 172.4, 18.79 -0.27 M357.62 283.67 C287.99 223.14, 218.37 162.62, 30.83 -0.41 M357.62 283.67 C227.48 170.54, 97.35 57.42, 30.83 -0.41 M357.58 273.04 C288.89 213.32, 220.19 153.6, 42.87 -0.54 M357.58 273.04 C275.83 201.97, 194.07 130.9, 42.87 -0.54 M357.55 262.41 C273.99 189.77, 190.43 117.14, 54.91 -0.67 M357.55 262.41 C296.34 209.2, 235.13 155.99, 54.91 -0.67 M357.51 251.78 C265.29 171.6, 173.06 91.43, 67.71 -0.15 M357.51 251.78 C282.15 186.26, 206.78 120.75, 67.71 -0.15 M357.48 241.15 C274.7 169.19, 191.92 97.23, 79.75 -0.28 M357.48 241.15 C280.91 174.58, 204.34 108.02, 79.75 -0.28 M357.45 230.52 C289.42 171.38, 221.39 112.25, 91.79 -0.42 M357.45 230.52 C255.38 141.79, 153.32 53.07, 91.79 -0.42 M357.41 219.89 C284.97 156.91, 212.52 93.94, 103.83 -0.55 M357.41 219.89 C256.65 132.29, 155.88 44.7, 103.83 -0.55 M357.38 209.26 C261.08 125.55, 164.79 41.85, 115.87 -0.68 M357.38 209.26 C287.75 148.73, 218.12 88.2, 115.87 -0.68 M357.34 198.63 C290.78 140.77, 224.22 82.91, 128.66 -0.16 M357.34 198.63 C271.43 123.94, 185.51 49.26, 128.66 -0.16 M357.31 188 C312.17 148.76, 267.04 109.52, 140.71 -0.29 M357.31 188 C312.21 148.79, 267.11 109.59, 140.71 -0.29 M357.27 177.37 C293.54 121.97, 229.81 66.57, 152.75 -0.43 M357.27 177.37 C285.92 115.34, 214.56 53.31, 152.75 -0.43 M357.24 166.74 C291.3 109.42, 225.36 52.1, 164.79 -0.56 M357.24 166.74 C307.31 123.33, 257.38 79.93, 164.79 -0.56 M357.2 156.11 C286.86 94.96, 216.52 33.81, 176.83 -0.69 M357.2 156.11 C305.84 111.46, 254.48 66.81, 176.83 -0.69 M357.17 145.48 C297.81 93.87, 238.44 42.27, 189.62 -0.17 M357.17 145.48 C300.68 96.37, 244.2 47.27, 189.62 -0.17 M357.89 135.5 C308.8 92.83, 259.72 50.16, 201.66 -0.3 M357.89 135.5 C314.02 97.37, 270.15 59.23, 201.66 -0.3 M357.86 124.87 C301.41 75.8, 244.96 26.73, 213.71 -0.44 M357.86 124.87 C326.69 97.78, 295.52 70.69, 213.71 -0.44 M357.82 114.24 C315.87 77.78, 273.93 41.31, 225.75 -0.57 M357.82 114.24 C322.91 83.89, 288 53.54, 225.75 -0.57 M357.79 103.61 C322.03 72.53, 286.27 41.45, 237.79 -0.7 M357.79 103.61 C327.64 77.41, 297.5 51.2, 237.79 -0.7 M357.75 92.98 C317.15 57.69, 276.56 22.4, 250.58 -0.18 M357.75 92.98 C326.44 65.76, 295.12 38.54, 250.58 -0.18 M357.72 82.35 C328.03 56.54, 298.34 30.73, 262.62 -0.31 M357.72 82.35 C331.43 59.5, 305.15 36.65, 262.62 -0.31 M357.68 71.72 C330.97 48.5, 304.25 25.27, 274.66 -0.45 M357.68 71.72 C336.84 53.61, 316 35.49, 274.66 -0.45 M357.65 61.09 C331.51 38.37, 305.37 15.65, 286.71 -0.58 M357.65 61.09 C335.96 42.24, 314.27 23.38, 286.71 -0.58 M357.61 50.46 C339.02 34.3, 320.43 18.14, 298.75 -0.71 M357.61 50.46 C336.59 32.19, 315.57 13.92, 298.75 -0.71 M357.58 39.83 C339.34 23.98, 321.11 8.13, 311.54 -0.19 M357.58 39.83 C346.86 30.51, 336.14 21.2, 311.54 -0.19 M357.54 29.2 C344.79 18.12, 332.04 7.03, 323.58 -0.32 M357.54 29.2 C348.84 21.63, 340.13 14.07, 323.58 -0.32 M357.51 18.57 C352.7 14.39, 347.89 10.2, 335.62 -0.45 M357.51 18.57 C350.27 12.27, 343.02 5.98, 335.62 -0.45 M357.48 7.94 C354.92 5.72, 352.36 3.5, 347.66 -0.59 M357.48 7.94 C354.29 5.17, 351.11 2.41, 347.66 -0.59" stroke="#e9ecef" stroke-width="1" fill="none"></path><path d="M0 0 C115.42 0, 230.85 0, 357 0 M0 0 C101.1 0, 202.2 0, 357 0 M357 0 C357 208.73, 357 417.45, 357 524 M357 0 C357 183.85, 357 367.7, 357 524 M357 524 C277.28 524, 197.55 524, 0 524 M357 524 C214.98 524, 72.96 524, 0 524 M0 524 C0 343.75, 0 163.51, 0 0 M0 524 C0 342.66, 0 161.31, 0 0" stroke="#1e1e1e" stroke-width="2" fill="none"></path></g><g transform="translate(98.95831298828136 19.91668701171892) rotate(0 94.59782409667969 21.599999999999994)"><text x="0" y="34.762499999999996" font-family="Cascadia, Segoe UI Emoji" font-size="36px" fill="#1e1e1e" text-anchor="start" style="white-space: pre;" direction="ltr" dominant-baseline="alphabetic">arrow (R)</text></g><g transform="translate(59.958312988281364 122.71668701171893) rotate(0 155 33.6)"><text x="155" y="27.0375" font-family="Cascadia, Segoe UI Emoji" font-size="28px" fill="#1e1e1e" text-anchor="middle" style="white-space: pre;" direction="ltr" dominant-baseline="alphabetic">Call bindings and </text><text x="155" y="60.6375" font-family="Cascadia, Segoe UI Emoji" font-size="28px" fill="#1e1e1e" text-anchor="middle" style="white-space: pre;" direction="ltr" dominant-baseline="alphabetic">UDFs</text></g><g transform="translate(507.9583129882816 154.71668701171893) rotate(0 139 33.6)"><text x="139" y="27.0375" font-family="Cascadia, Segoe UI Emoji" font-size="28px" fill="#1e1e1e" text-anchor="middle" style="white-space: pre;" direction="ltr" dominant-baseline="alphabetic">Call R to run </text><text x="139" y="60.6375" font-family="Cascadia, Segoe UI Emoji" font-size="28px" fill="#1e1e1e" text-anchor="middle" style="white-space: pre;" direction="ltr" dominant-baseline="alphabetic">UDFs</text></g><g transform="translate(51.958312988281364 256.71668701171893) rotate(0 155 16.799999999999997)"><text x="155" y="27.0375" font-family="Cascadia, Segoe UI Emoji" font-size="28px" fill="#1e1e1e" text-anchor="middle" style="white-space: pre;" direction="ltr" dominant-baseline="alphabetic">Return UDF results</text></g><g transform="translate(494.40217590332054 18.400000000000034) rotate(0 115.6195678710937 21.599999999999994)"><text x="0" y="34.762499999999996" font-family="Cascadia, Segoe UI Emoji" font-size="36px" fill="#1e1e1e" text-anchor="start" style="white-space: pre;" direction="ltr" dominant-baseline="alphabetic">Acero (C++)</text></g><g transform="translate(472.0000000000001 305) rotate(0 155 50.400000000000006)"><text x="155" y="27.0375" font-family="Cascadia, Segoe UI Emoji" font-size="28px" fill="#1e1e1e" text-anchor="middle" style="white-space: pre;" direction="ltr" dominant-baseline="alphabetic">Combine all </text><text x="155" y="60.6375" font-family="Cascadia, Segoe UI Emoji" font-size="28px" fill="#1e1e1e" text-anchor="middle" style="white-space: pre;" direction="ltr" dominant-baseline="alphabetic">results and return</text><text x="155" y="94.23750000000001" font-family="Cascadia, Segoe UI Emoji" font-size="28px" fill="#1e1e1e" text-anchor="middle" style="white-space: pre;" direction="ltr" dominant-baseline="alphabetic">them to R</text></g><g stroke-linecap="round"><g transform="translate(353 152.95469965537256) rotate(0 80.39138536527759 3.8206617933073943)"><path d="M-3.71 -3.65 C41.88 -0.04, 77.69 3.2, 164.49 11.02 M0.88 -0.62 C52.68 3.85, 108.89 8.72, 161.39 11.29" stroke="#1e1e1e" stroke-width="2" fill="none"></path></g><g transform="translate(353 152.95469965537256) rotate(0 80.39138536527759 3.8206617933073943)"><path d="M135.58 16.6 C144.91 16.09, 149.36 14.44, 163.13 10.18 M137.87 18.12 C144.64 16.24, 153.75 14.05, 161.58 10.31" stroke="#1e1e1e" stroke-width="2" fill="none"></path></g><g transform="translate(353 152.95469965537256) rotate(0 80.39138536527759 3.8206617933073943)"><path d="M136.59 -0.47 C145.68 3.09, 149.88 5.5, 163.13 10.18 M138.89 1.05 C145.43 4.91, 154.2 8.45, 161.58 10.31" stroke="#1e1e1e" stroke-width="2" fill="none"></path></g></g><mask></mask><g stroke-linecap="round"><g transform="translate(512.0000000000002 221.3707355924409) rotate(0 -87.08744004765168 17.039111914090334)"><path d="M3.55 -0.94 C-65.51 7.87, -128.98 18.46, -176.75 35.01 M-1.58 0.6 C-59.28 10.83, -119.54 18.76, -177.73 32.42" stroke="#1e1e1e" stroke-width="2" fill="none"></path></g><g transform="translate(512.0000000000002 221.3707355924409) rotate(0 -87.08744004765168 17.039111914090334)"><path d="M-154.69 18.8 C-163.94 23.52, -170.58 27.7, -177.01 33.75 M-157.25 19.57 C-163.31 24.15, -170.56 27.1, -177.5 32.46" stroke="#1e1e1e" stroke-width="2" fill="none"></path></g><g transform="translate(512.0000000000002 221.3707355924409) rotate(0 -87.08744004765168 17.039111914090334)"><path d="M-151.21 35.55 C-161.59 34.03, -169.52 32.02, -177.01 33.75 M-153.78 36.32 C-161.08 35.24, -169.5 32.53, -177.5 32.46" stroke="#1e1e1e" stroke-width="2" fill="none"></path></g></g><mask></mask><g stroke-linecap="round"><g transform="translate(326.8791364287506 296.31668701171895) rotate(0 85.57639156721928 10.159377808624697)"><path d="M1.03 -0.85 C39.15 2.62, 72.41 11.56, 170.61 21.17 M0.54 1.02 C45.57 2.24, 91.13 9.49, 170.52 18.1" stroke="#1e1e1e" stroke-width="2" fill="none"></path></g><g transform="translate(326.8791364287506 296.31668701171895) rotate(0 85.57639156721928 10.159377808624697)"><path d="M146.72 23.49 C152.98 21.64, 157.03 22.88, 171.27 18.98 M146.48 24.43 C152.99 21.3, 159.56 20.75, 171.22 17.45" stroke="#1e1e1e" stroke-width="2" fill="none"></path></g><g transform="translate(326.8791364287506 296.31668701171895) rotate(0 85.57639156721928 10.159377808624697)"><path d="M148.67 6.5 C154.67 8.2, 158.32 12.98, 171.27 18.98 M148.43 7.44 C154.28 8.88, 160.33 12.91, 171.22 17.45" stroke="#1e1e1e" stroke-width="2" fill="none"></path></g></g><mask></mask><g stroke-linecap="round"><g transform="translate(471.0000000000001 370.7461185264897) rotate(0 -112.54315644671925 14.748551699568438)"><path d="M2.97 -1.9 C-61.43 10.4, -124.17 18.58, -228.06 29.66 M0.33 -1.67 C-74.41 12.72, -148.55 22.23, -226.28 31.39" stroke="#1e1e1e" stroke-width="2" fill="none"></path></g><g transform="translate(471.0000000000001 370.7461185264897) rotate(0 -112.54315644671925 14.748551699568438)"><path d="M-202.26 18.94 C-209.42 24.47, -215.55 27.16, -226.9 29.81 M-203.81 19.07 C-211.1 23.94, -217.98 27, -225.86 30.83" stroke="#1e1e1e" stroke-width="2" fill="none"></path></g><g transform="translate(471.0000000000001 370.7461185264897) rotate(0 -112.54315644671925 14.748551699568438)"><path d="M-200.18 35.91 C-207.96 36.75, -214.67 34.74, -226.9 29.81 M-201.73 36.04 C-209.75 35.33, -217.32 32.78, -225.86 30.83" stroke="#1e1e1e" stroke-width="2" fill="none"></path></g></g><mask></mask><g transform="translate(146.0000000000001 393) rotate(0 47.5 16.80000000000001)"><text x="0" y="27.0375" font-family="Cascadia, Segoe UI Emoji" font-size="28px" fill="#1e1e1e" text-anchor="start" style="white-space: pre;" direction="ltr" dominant-baseline="alphabetic">Done!</text></g></svg>