<svg version="1.1" xmlns="http://www.w3.org/2000/svg" viewBox="0 0 797.5000000000001 419" width="2392.5000000000005" height="1257">
  <!-- svg-source:excalidraw -->
  
  <defs>
    <style class="style-fonts">
      @font-face {
        font-family: "Virgil";
        src: url("https://excalidraw.com/Virgil.woff2");
      }
      @font-face {
        font-family: "Cascadia";
        src: url("https://excalidraw.com/Cascadia.woff2");
      }
      @font-face {
        font-family: "Assistant";
        src: url("https://excalidraw.com/Assistant-Regular.woff2");
      }
    </style>
    
  </defs>
  <g stroke-linecap="round" transform="translate(430.5000000000001 12) rotate(0 178.5 198.5)"><path d="M0 0 C0 0, 0 0, 0 0 M0 0 C0 0, 0 0, 0 0 M0.13 12.04 C4.14 7.43, 8.15 2.82, 10.63 -0.03 M0.13 12.04 C3.19 8.52, 6.25 5.01, 10.63 -0.03 M0.27 24.08 C4.5 19.21, 8.73 14.34, 21.26 -0.07 M0.27 24.08 C6.68 16.7, 13.09 9.33, 21.26 -0.07 M-0.26 36.88 C9.07 26.15, 18.39 15.42, 31.89 -0.1 M-0.26 36.88 C7.85 27.55, 15.96 18.22, 31.89 -0.1 M-0.12 48.92 C10.6 36.59, 21.32 24.26, 42.52 -0.14 M-0.12 48.92 C15.63 30.8, 31.38 12.68, 42.52 -0.14 M0.01 60.96 C16.68 41.78, 33.36 22.6, 53.15 -0.17 M0.01 60.96 C16.83 41.61, 33.65 22.26, 53.15 -0.17 M0.14 73 C20.09 50.05, 40.04 27.1, 63.78 -0.21 M0.14 73 C15.45 55.39, 30.76 37.78, 63.78 -0.21 M0.28 85.04 C28.39 52.69, 56.51 20.35, 74.41 -0.24 M0.28 85.04 C25.56 55.95, 50.85 26.86, 74.41 -0.24 M-0.25 97.84 C26.77 66.76, 53.79 35.68, 85.04 -0.28 M-0.25 97.84 C28.42 64.85, 57.09 31.87, 85.04 -0.28 M-0.11 109.88 C27.93 77.62, 55.97 45.36, 95.67 -0.31 M-0.11 109.88 C21.72 84.76, 43.55 59.64, 95.67 -0.31 M0.02 121.92 C23.37 95.06, 46.72 68.19, 106.3 -0.34 M0.02 121.92 C39.16 76.89, 78.31 31.86, 106.3 -0.34 M0.15 133.96 C28.02 101.9, 55.89 69.83, 116.27 0.38 M0.15 133.96 C26.22 103.97, 52.28 73.99, 116.27 0.38 M0.29 146 C39.59 100.78, 78.9 55.56, 126.91 0.34 M0.29 146 C31.25 110.38, 62.22 74.75, 126.91 0.34 M-0.24 158.8 C39.24 113.38, 78.71 67.97, 137.54 0.31 M-0.24 158.8 C30.53 123.4, 61.31 88, 137.54 0.31 M-0.1 170.84 C45.39 118.5, 90.89 66.16, 148.17 0.27 M-0.1 170.84 C54.43 108.11, 108.96 45.38, 148.17 0.27 M0.03 182.88 C44.09 132.19, 88.14 81.51, 158.8 0.24 M0.03 182.88 C41.73 134.91, 83.42 86.94, 158.8 0.24 M0.16 194.92 C43.57 144.99, 86.97 95.06, 169.43 0.2 M0.16 194.92 C57.06 129.47, 113.95 64.02, 169.43 0.2 M0.3 206.96 C61.02 137.1, 121.75 67.25, 180.06 0.17 M0.3 206.96 C40.85 160.3, 81.41 113.65, 180.06 0.17 M-0.23 219.75 C44.91 167.83, 90.04 115.91, 190.69 0.13 M-0.23 219.75 C46.18 166.36, 92.6 112.97, 190.69 0.13 M-0.09 231.8 C74.83 145.6, 149.76 59.4, 201.32 0.1 M-0.09 231.8 C68.58 152.8, 137.25 73.8, 201.32 0.1 M0.04 243.84 C53.81 181.98, 107.57 120.13, 211.95 0.06 M0.04 243.84 C80.03 151.82, 160.02 59.8, 211.95 0.06 M0.17 255.88 C81.21 162.65, 162.26 69.42, 222.58 0.03 M0.17 255.88 C63.02 183.58, 125.87 111.28, 222.58 0.03 M0.3 267.92 C80.65 175.5, 160.99 83.08, 233.21 0 M0.3 267.92 C75.62 181.28, 150.93 94.64, 233.21 0 M-0.22 280.71 C67.84 202.42, 135.89 124.13, 243.84 -0.04 M-0.22 280.71 C65.62 204.97, 131.47 129.23, 243.84 -0.04 M-0.08 292.75 C70.27 211.82, 140.62 130.89, 254.47 -0.07 M-0.08 292.75 C66.15 216.56, 132.39 140.36, 254.47 -0.07 M0.05 304.8 C95.21 195.32, 190.38 85.85, 265.1 -0.11 M0.05 304.8 C97.35 192.86, 194.66 80.92, 265.1 -0.11 M0.18 316.84 C67.41 239.5, 134.63 162.17, 275.73 -0.14 M0.18 316.84 C72.57 233.57, 144.95 150.29, 275.73 -0.14 M0.31 328.88 C65.61 253.76, 130.9 178.65, 286.36 -0.18 M0.31 328.88 C110.29 202.36, 220.27 75.85, 286.36 -0.18 M-0.21 341.67 C110.76 214.01, 221.73 86.36, 296.99 -0.21 M-0.21 341.67 C59.5 272.98, 119.21 204.3, 296.99 -0.21 M-0.08 353.71 C119.78 215.83, 239.64 77.95, 307.62 -0.25 M-0.08 353.71 C115.94 220.25, 231.96 86.79, 307.62 -0.25 M0.06 365.75 C70.06 285.23, 140.06 204.7, 318.25 -0.28 M0.06 365.75 C76.48 277.84, 152.91 189.92, 318.25 -0.28 M0.19 377.79 C107.19 254.7, 214.19 131.61, 328.88 -0.31 M0.19 377.79 C113.71 247.2, 227.23 116.61, 328.88 -0.31 M0.32 389.84 C91.5 284.95, 182.67 180.07, 339.51 -0.35 M0.32 389.84 C116.05 256.71, 231.78 123.58, 339.51 -0.35 M4.39 397.35 C141.96 239.09, 279.53 80.84, 349.48 0.37 M4.39 397.35 C120.09 264.26, 235.78 131.17, 349.48 0.37 M15.02 397.31 C95.35 304.91, 175.67 212.51, 357.49 3.36 M15.02 397.31 C138.28 255.52, 261.54 113.73, 357.49 3.36 M25.65 397.28 C142.15 263.26, 258.66 129.24, 357.62 15.4 M25.65 397.28 C137.81 268.26, 249.96 139.25, 357.62 15.4 M36.28 397.24 C152.54 263.51, 268.79 129.78, 357.75 27.44 M36.28 397.24 C148.05 268.68, 259.81 140.11, 357.75 27.44 M46.91 397.21 C110.27 324.33, 173.62 251.45, 357.23 40.23 M46.91 397.21 C167.81 258.14, 288.7 119.07, 357.23 40.23 M57.54 397.18 C154.73 285.37, 251.92 173.57, 357.36 52.27 M57.54 397.18 C132.8 310.6, 208.06 224.02, 357.36 52.27 M68.17 397.14 C172.26 277.41, 276.34 157.68, 357.5 64.31 M68.17 397.14 C146.93 306.54, 225.7 215.93, 357.5 64.31 M78.8 397.11 C169.67 292.57, 260.54 188.04, 357.63 76.36 M78.8 397.11 C137.89 329.14, 196.98 261.17, 357.63 76.36 M89.43 397.07 C169.42 305.06, 249.41 213.04, 357.11 89.15 M89.43 397.07 C146.41 331.53, 203.39 265.98, 357.11 89.15 M100.06 397.04 C151.59 337.77, 203.11 278.5, 357.24 101.19 M100.06 397.04 C168.88 317.88, 237.69 238.72, 357.24 101.19 M110.69 397 C180.31 316.92, 249.93 236.83, 357.37 113.23 M110.69 397 C205.39 288.07, 300.08 179.14, 357.37 113.23 M120.67 397.72 C194.24 313.09, 267.81 228.46, 357.51 125.27 M120.67 397.72 C180.01 329.46, 239.34 261.2, 357.51 125.27 M131.3 397.69 C187.98 332.48, 244.67 267.27, 357.64 137.31 M131.3 397.69 C177.24 344.84, 223.17 292, 357.64 137.31 M141.93 397.65 C195.64 335.86, 249.36 274.07, 357.12 150.11 M141.93 397.65 C204.05 326.19, 266.17 254.73, 357.12 150.11 M152.56 397.62 C218.81 321.41, 285.06 245.2, 357.25 162.15 M152.56 397.62 C200.28 342.72, 248 287.83, 357.25 162.15 M163.19 397.59 C229.19 321.67, 295.18 245.75, 357.38 174.19 M163.19 397.59 C222.45 329.41, 281.71 261.24, 357.38 174.19 M173.82 397.55 C229.25 333.78, 284.68 270.02, 357.52 186.23 M173.82 397.55 C225.75 337.81, 277.69 278.06, 357.52 186.23 M184.45 397.52 C242.22 331.06, 299.98 264.61, 357.65 198.27 M184.45 397.52 C239.61 334.07, 294.76 270.61, 357.65 198.27 M195.08 397.48 C254.11 329.57, 313.15 261.66, 357.13 211.07 M195.08 397.48 C244.56 340.56, 294.05 283.63, 357.13 211.07 M205.71 397.45 C253.08 342.95, 300.45 288.46, 357.26 223.11 M205.71 397.45 C257.6 337.76, 309.48 278.07, 357.26 223.11 M216.34 397.41 C268.61 337.29, 320.88 277.16, 357.39 235.15 M216.34 397.41 C258.66 348.73, 300.97 300.05, 357.39 235.15 M226.97 397.38 C277.7 339.02, 328.43 280.66, 357.53 247.19 M226.97 397.38 C264.31 354.42, 301.65 311.47, 357.53 247.19 M237.6 397.34 C280.76 347.7, 323.91 298.05, 357.66 259.23 M237.6 397.34 C262.92 368.21, 288.25 339.08, 357.66 259.23 M248.23 397.31 C270.32 371.9, 292.41 346.49, 357.14 272.03 M248.23 397.31 C275.87 365.52, 303.5 333.72, 357.14 272.03 M258.86 397.28 C283.43 369.02, 307.99 340.76, 357.27 284.07 M258.86 397.28 C281.26 371.5, 303.67 345.73, 357.27 284.07 M269.49 397.24 C289.39 374.35, 309.28 351.47, 357.4 296.11 M269.49 397.24 C291.06 372.42, 312.64 347.6, 357.4 296.11 M280.12 397.21 C306.39 366.98, 332.67 336.76, 357.54 308.15 M280.12 397.21 C302.19 371.81, 324.27 346.42, 357.54 308.15 M290.75 397.17 C308.13 377.18, 325.5 357.19, 357.67 320.19 M290.75 397.17 C307.88 377.47, 325.01 357.76, 357.67 320.19 M301.38 397.14 C312.91 383.88, 324.44 370.62, 357.15 332.99 M301.38 397.14 C321.65 373.82, 341.93 350.49, 357.15 332.99 M312.01 397.1 C327.09 379.75, 342.18 362.4, 357.28 345.03 M312.01 397.1 C329.02 377.53, 346.03 357.96, 357.28 345.03 M322.64 397.07 C329.92 388.69, 337.2 380.32, 357.41 357.07 M322.64 397.07 C336.15 381.53, 349.65 366, 357.41 357.07 M333.27 397.03 C338.3 391.25, 343.32 385.47, 357.54 369.11 M333.27 397.03 C340.32 388.92, 347.38 380.81, 357.54 369.11 M343.9 397 C349.2 390.9, 354.5 384.81, 357.68 381.15 M343.9 397 C348.45 391.76, 353.01 386.52, 357.68 381.15 M353.87 397.72 C354.76 396.7, 355.65 395.68, 357.15 393.95 M353.87 397.72 C355.13 396.28, 356.38 394.84, 357.15 393.95 M-0.34 396.7 C-0.34 396.7, -0.34 396.7, -0.34 396.7 M-0.34 396.7 C-0.34 396.7, -0.34 396.7, -0.34 396.7 M12.45 397.22 C9.5 394.66, 6.56 392.1, 0.38 386.73 M12.45 397.22 C9.75 394.87, 7.04 392.52, 0.38 386.73 M24.49 397.09 C19.64 392.87, 14.78 388.65, 0.34 376.1 M24.49 397.09 C17.82 391.29, 11.14 385.49, 0.34 376.1 M36.53 396.96 C26.54 388.27, 16.56 379.59, 0.31 365.47 M36.53 396.96 C26 387.8, 15.46 378.64, 0.31 365.47 M48.57 396.82 C38.17 387.78, 27.76 378.73, 0.27 354.84 M48.57 396.82 C31.75 382.2, 14.92 367.57, 0.27 354.84 M60.62 396.69 C45.84 383.85, 31.07 371.01, 0.24 344.21 M60.62 396.69 C45.62 383.66, 30.63 370.63, 0.24 344.21 M73.41 397.21 C47.87 375.01, 22.32 352.8, 0.2 333.58 M73.41 397.21 C53.35 379.77, 33.29 362.34, 0.2 333.58 M85.45 397.08 C63.33 377.85, 41.21 358.62, 0.17 322.95 M85.45 397.08 C63.39 377.9, 41.32 358.72, 0.17 322.95 M97.49 396.95 C64.66 368.41, 31.83 339.87, 0.14 312.32 M97.49 396.95 C63.34 367.26, 29.19 337.57, 0.14 312.32 M109.53 396.82 C70.36 362.76, 31.18 328.71, 0.1 301.69 M109.53 396.82 C78.93 370.21, 48.32 343.61, 0.1 301.69 M121.57 396.68 C73.47 354.87, 25.37 313.05, 0.07 291.06 M121.57 396.68 C82.53 362.74, 43.49 328.8, 0.07 291.06 M134.37 397.2 C106.39 372.88, 78.4 348.55, 0.03 280.43 M134.37 397.2 C85.47 354.7, 36.58 312.19, 0.03 280.43 M146.41 397.07 C99.54 356.33, 52.68 315.59, 0 269.8 M146.41 397.07 C106.34 362.24, 66.28 327.41, 0 269.8 M158.45 396.94 C125.5 368.29, 92.54 339.64, -0.04 259.17 M158.45 396.94 C101.42 347.36, 44.39 297.79, -0.04 259.17 M170.49 396.81 C104.87 339.76, 39.25 282.71, -0.07 248.54 M170.49 396.81 C112.31 346.23, 54.13 295.66, -0.07 248.54 M182.53 396.67 C112.39 335.7, 42.25 274.72, -0.11 237.91 M182.53 396.67 C144.05 363.22, 105.56 329.76, -0.11 237.91 M195.33 397.2 C147.56 355.67, 99.79 314.14, -0.14 227.28 M195.33 397.2 C155.79 362.82, 116.24 328.45, -0.14 227.28 M207.37 397.06 C146.44 344.09, 85.5 291.13, -0.18 216.65 M207.37 397.06 C154.36 350.98, 101.35 304.9, -0.18 216.65 M219.41 396.93 C168.18 352.39, 116.95 307.86, -0.21 206.02 M219.41 396.93 C135.69 324.15, 51.97 251.38, -0.21 206.02 M231.45 396.8 C156.58 331.71, 81.71 266.63, -0.24 195.39 M231.45 396.8 C155.45 330.73, 79.45 264.66, -0.24 195.39 M244.25 397.32 C179.36 340.91, 114.48 284.51, -0.28 184.76 M244.25 397.32 C159.38 323.54, 74.51 249.77, -0.28 184.76 M256.29 397.19 C156.48 310.42, 56.67 223.66, -0.31 174.13 M256.29 397.19 C190.09 339.64, 123.89 282.09, -0.31 174.13 M268.33 397.05 C178.52 318.99, 88.72 240.92, -0.35 163.5 M268.33 397.05 C210.7 346.96, 153.07 296.86, -0.35 163.5 M280.37 396.92 C213.99 339.22, 147.61 281.52, 0.37 153.52 M280.37 396.92 C176.77 306.86, 73.16 216.8, 0.37 153.52 M292.41 396.79 C230.12 342.64, 167.83 288.49, 0.34 142.89 M292.41 396.79 C221.34 335.01, 150.27 273.22, 0.34 142.89 M305.21 397.31 C200.6 306.37, 95.99 215.44, 0.3 132.26 M305.21 397.31 C188.07 295.49, 70.94 193.67, 0.3 132.26 M317.25 397.18 C204.58 299.24, 91.91 201.3, 0.27 121.63 M317.25 397.18 C209.85 303.82, 102.46 210.46, 0.27 121.63 M329.29 397.04 C259.4 336.29, 189.52 275.54, 0.23 111 M329.29 397.04 C225.38 306.72, 121.47 216.39, 0.23 111 M341.33 396.91 C207.12 280.24, 72.91 163.57, 0.2 100.37 M341.33 396.91 C221.45 292.7, 101.56 188.49, 0.2 100.37 M353.37 396.78 C254.48 310.81, 155.59 224.85, 0.17 89.74 M353.37 396.78 C220.73 281.47, 88.08 166.16, 0.17 89.74 M357.86 390.08 C272.14 315.56, 186.42 241.05, 0.13 79.11 M357.86 390.08 C222.99 272.84, 88.12 155.6, 0.13 79.11 M357.83 379.45 C282.49 313.96, 207.15 248.47, 0.1 68.48 M357.83 379.45 C261.44 295.67, 165.06 211.88, 0.1 68.48 M357.79 368.82 C219.68 248.76, 81.56 128.69, 0.06 57.85 M357.79 368.82 C265.96 288.99, 174.13 209.16, 0.06 57.85 M357.76 358.19 C215.15 234.22, 72.53 110.25, 0.03 47.22 M357.76 358.19 C250.89 265.29, 144.03 172.4, 0.03 47.22 M357.73 347.56 C284.54 283.94, 211.35 220.32, -0.01 36.59 M357.73 347.56 C258.65 261.43, 159.57 175.31, -0.01 36.59 M357.69 336.93 C261.73 253.51, 165.77 170.1, -0.04 25.96 M357.69 336.93 C264.66 256.06, 171.63 175.19, -0.04 25.96 M357.66 326.3 C269.46 249.64, 181.27 172.97, -0.08 15.33 M357.66 326.3 C261.24 242.48, 164.81 158.67, -0.08 15.33 M357.62 315.67 C224.13 199.63, 90.64 83.59, -0.11 4.7 M357.62 315.67 C234.09 208.28, 110.55 100.89, -0.11 4.7 M357.59 305.04 C237.19 200.38, 116.79 95.72, 6.65 -0.03 M357.59 305.04 C248.27 210.01, 138.95 114.99, 6.65 -0.03 M357.55 294.41 C256.96 206.97, 156.37 119.53, 18.69 -0.16 M357.55 294.41 C275.62 223.19, 193.69 151.97, 18.69 -0.16 M357.52 283.78 C257.84 197.13, 158.16 110.48, 30.73 -0.29 M357.52 283.78 C283.91 219.8, 210.3 155.81, 30.73 -0.29 M357.48 273.15 C246.55 176.72, 135.62 80.29, 42.77 -0.42 M357.48 273.15 C284.49 209.7, 211.49 146.24, 42.77 -0.42 M357.45 262.52 C290 203.89, 222.54 145.25, 54.81 -0.56 M357.45 262.52 C273.17 189.26, 188.89 116, 54.81 -0.56 M357.41 251.89 C275.42 180.61, 193.43 109.34, 67.61 -0.04 M357.41 251.89 C272.3 177.91, 187.19 103.92, 67.61 -0.04 M357.38 241.26 C255.5 152.7, 153.61 64.13, 79.65 -0.17 M357.38 241.26 C278.45 172.65, 199.52 104.03, 79.65 -0.17 M357.35 230.63 C261.53 147.34, 165.71 64.04, 91.69 -0.3 M357.35 230.63 C304.17 184.41, 251 138.18, 91.69 -0.3 M357.31 220 C284.59 156.79, 211.87 93.57, 103.73 -0.43 M357.31 220 C281.05 153.71, 204.78 87.41, 103.73 -0.43 M357.28 209.37 C287.72 148.91, 218.17 88.45, 115.77 -0.57 M357.28 209.37 C304.18 163.21, 251.08 117.05, 115.77 -0.57 M357.24 198.74 C285.84 136.67, 214.43 74.6, 128.57 -0.04 M357.24 198.74 C281.38 132.79, 205.51 66.85, 128.57 -0.04 M357.21 188.11 C292.93 132.23, 228.65 76.35, 140.61 -0.18 M357.21 188.11 C310.29 147.33, 263.38 106.55, 140.61 -0.18 M357.17 177.48 C305.52 132.58, 253.88 87.69, 152.65 -0.31 M357.17 177.48 C310.92 137.27, 264.66 97.06, 152.65 -0.31 M357.89 167.51 C309.86 125.75, 261.83 84, 164.69 -0.44 M357.89 167.51 C290.38 108.82, 222.86 50.13, 164.69 -0.44 M357.86 156.88 C304.15 110.19, 250.44 63.49, 176.73 -0.58 M357.86 156.88 C289.35 97.32, 220.83 37.76, 176.73 -0.58 M357.82 146.25 C301.48 97.27, 245.14 48.29, 189.52 -0.05 M357.82 146.25 C295.08 91.7, 232.33 37.15, 189.52 -0.05 M357.79 135.62 C308.91 93.12, 260.02 50.63, 201.57 -0.19 M357.79 135.62 C322.24 104.71, 286.68 73.8, 201.57 -0.19 M357.76 124.99 C303.52 77.84, 249.29 30.7, 213.61 -0.32 M357.76 124.99 C309.25 82.82, 260.74 40.65, 213.61 -0.32 M357.72 114.36 C311.5 74.18, 265.28 34, 225.65 -0.45 M357.72 114.36 C310.3 73.13, 262.88 31.91, 225.65 -0.45 M357.69 103.73 C318.84 69.96, 280 36.2, 237.69 -0.59 M357.69 103.73 C323.43 73.94, 289.17 44.16, 237.69 -0.59 M357.65 93.1 C321.67 61.82, 285.7 30.55, 250.48 -0.06 M357.65 93.1 C335.91 74.2, 314.18 55.3, 250.48 -0.06 M357.62 82.47 C323.63 52.92, 289.64 23.37, 262.52 -0.2 M357.62 82.47 C323.37 52.69, 289.12 22.92, 262.52 -0.2 M357.58 71.84 C326.22 44.57, 294.85 17.3, 274.57 -0.33 M357.58 71.84 C329.82 47.7, 302.05 23.56, 274.57 -0.33 M357.55 61.21 C330.05 37.3, 302.56 13.4, 286.61 -0.46 M357.55 61.21 C336.54 42.94, 315.52 24.67, 286.61 -0.46 M357.51 50.58 C341.99 37.08, 326.47 23.59, 298.65 -0.6 M357.51 50.58 C335.45 31.4, 313.39 12.22, 298.65 -0.6 M357.48 39.95 C341.19 25.79, 324.91 11.63, 311.44 -0.07 M357.48 39.95 C342.54 26.96, 327.6 13.97, 311.44 -0.07 M357.45 29.32 C345.21 18.68, 332.97 8.04, 323.48 -0.21 M357.45 29.32 C347.6 20.76, 337.75 12.2, 323.48 -0.21 M357.41 18.69 C350.29 12.49, 343.17 6.3, 335.52 -0.34 M357.41 18.69 C351.47 13.52, 345.53 8.35, 335.52 -0.34 M357.38 8.06 C354.29 5.37, 351.2 2.69, 347.56 -0.47 M357.38 8.06 C354.52 5.57, 351.66 3.09, 347.56 -0.47" stroke="#e9ecef" stroke-width="1" fill="none"></path><path d="M0 0 C137.2 0, 274.39 0, 357 0 M0 0 C113.88 0, 227.77 0, 357 0 M357 0 C357 80.95, 357 161.9, 357 397 M357 0 C357 110.9, 357 221.79, 357 397 M357 397 C223.95 397, 90.91 397, 0 397 M357 397 C282.4 397, 207.79 397, 0 397 M0 397 C0 300.91, 0 204.82, 0 0 M0 397 C0 269.01, 0 141.03, 0 0" stroke="#1e1e1e" stroke-width="2" fill="none"></path></g><g stroke-linecap="round" transform="translate(10 10) rotate(0 178.5 199.5)"><path d="M0 0 C0 0, 0 0, 0 0 M0 0 C0 0, 0 0, 0 0 M0.13 12.04 C4.21 7.35, 8.28 2.67, 10.63 -0.03 M0.13 12.04 C2.76 9.02, 5.38 6, 10.63 -0.03 M0.27 24.08 C7.25 16.04, 14.24 8, 21.26 -0.07 M0.27 24.08 C6.95 16.39, 13.63 8.7, 21.26 -0.07 M-0.26 36.88 C7.68 27.74, 15.62 18.61, 31.89 -0.1 M-0.26 36.88 C12.03 22.75, 24.31 8.62, 31.89 -0.1 M-0.12 48.92 C12.66 34.22, 25.44 19.52, 42.52 -0.14 M-0.12 48.92 C10.03 37.24, 20.18 25.56, 42.52 -0.14 M0.01 60.96 C14.99 43.73, 29.97 26.5, 53.15 -0.17 M0.01 60.96 C15.5 43.14, 30.98 25.33, 53.15 -0.17 M0.14 73 C17.43 53.12, 34.71 33.24, 63.78 -0.21 M0.14 73 C15.39 55.47, 30.63 37.93, 63.78 -0.21 M0.28 85.04 C29.9 50.96, 59.53 16.87, 74.41 -0.24 M0.28 85.04 C19.31 63.14, 38.35 41.25, 74.41 -0.24 M-0.25 97.84 C26.66 66.89, 53.56 35.94, 85.04 -0.28 M-0.25 97.84 C23.52 70.49, 47.3 43.14, 85.04 -0.28 M-0.11 109.88 C33.64 71.05, 67.39 32.22, 95.67 -0.31 M-0.11 109.88 C36.92 67.28, 73.94 24.68, 95.67 -0.31 M0.02 121.92 C41.85 73.8, 83.68 25.68, 106.3 -0.34 M0.02 121.92 C31 86.27, 61.99 50.63, 106.3 -0.34 M0.15 133.96 C27.72 102.24, 55.3 70.52, 116.27 0.38 M0.15 133.96 C37.2 91.34, 74.25 48.72, 116.27 0.38 M0.29 146 C33.64 107.63, 67 69.26, 126.91 0.34 M0.29 146 C37.44 103.26, 74.6 60.51, 126.91 0.34 M-0.24 158.8 C54.53 95.79, 109.3 32.79, 137.54 0.31 M-0.24 158.8 C44.13 107.76, 88.5 56.72, 137.54 0.31 M-0.1 170.84 C55.93 106.38, 111.96 41.92, 148.17 0.27 M-0.1 170.84 C41.36 123.13, 82.83 75.43, 148.17 0.27 M0.03 182.88 C50.94 124.31, 101.85 65.75, 158.8 0.24 M0.03 182.88 C62.43 111.09, 124.83 39.31, 158.8 0.24 M0.16 194.92 C65.36 119.91, 130.56 44.91, 169.43 0.2 M0.16 194.92 C55.19 131.62, 110.21 68.32, 169.43 0.2 M0.3 206.96 C61.44 136.62, 122.58 66.28, 180.06 0.17 M0.3 206.96 C64.88 132.66, 129.47 58.36, 180.06 0.17 M-0.23 219.75 C43.44 169.51, 87.12 119.28, 190.69 0.13 M-0.23 219.75 C54.04 157.33, 108.3 94.91, 190.69 0.13 M-0.09 231.8 C67.31 154.26, 134.71 76.72, 201.32 0.1 M-0.09 231.8 C75.98 144.28, 152.06 56.76, 201.32 0.1 M0.04 243.84 C52.46 183.53, 104.88 123.23, 211.95 0.06 M0.04 243.84 C61.78 172.81, 123.53 101.77, 211.95 0.06 M0.17 255.88 C50.9 197.52, 101.63 139.16, 222.58 0.03 M0.17 255.88 C52.42 195.78, 104.66 135.68, 222.58 0.03 M0.3 267.92 C64.39 194.19, 128.48 120.47, 233.21 0 M0.3 267.92 C60.97 198.13, 121.63 128.35, 233.21 0 M-0.22 280.71 C70.5 199.36, 141.22 118.01, 243.84 -0.04 M-0.22 280.71 C60.09 211.33, 120.41 141.95, 243.84 -0.04 M-0.08 292.75 C86.86 192.74, 173.8 92.72, 254.47 -0.07 M-0.08 292.75 C97.95 179.98, 195.99 67.2, 254.47 -0.07 M0.05 304.8 C62.13 233.38, 124.21 161.96, 265.1 -0.11 M0.05 304.8 C95.56 194.92, 191.07 85.04, 265.1 -0.11 M0.18 316.84 C102.48 199.16, 204.78 81.48, 275.73 -0.14 M0.18 316.84 C65.95 241.18, 131.71 165.53, 275.73 -0.14 M0.31 328.88 C92.24 223.13, 184.17 117.37, 286.36 -0.18 M0.31 328.88 C71.9 246.52, 143.49 164.17, 286.36 -0.18 M-0.21 341.67 C84.29 244.47, 168.79 147.26, 296.99 -0.21 M-0.21 341.67 C81.25 247.96, 162.71 154.25, 296.99 -0.21 M-0.08 353.71 C78.82 262.96, 157.71 172.2, 307.62 -0.25 M-0.08 353.71 C68.29 275.06, 136.66 196.41, 307.62 -0.25 M0.06 365.75 C94.28 257.36, 188.5 148.97, 318.25 -0.28 M0.06 365.75 C103.18 247.12, 206.31 128.49, 318.25 -0.28 M0.19 377.79 C95.45 268.21, 190.71 158.62, 328.88 -0.31 M0.19 377.79 C102.47 260.13, 204.75 142.47, 328.88 -0.31 M0.32 389.84 C74.03 305.04, 147.74 220.25, 339.51 -0.35 M0.32 389.84 C102.44 272.37, 204.55 154.9, 339.51 -0.35 M3.08 398.86 C113.05 272.35, 223.02 145.85, 349.48 0.37 M3.08 398.86 C135.39 246.66, 267.69 94.46, 349.48 0.37 M13.71 398.82 C135.36 258.88, 257.02 118.93, 357.49 3.36 M13.71 398.82 C115.83 281.36, 217.94 163.89, 357.49 3.36 M24.34 398.79 C151.14 252.92, 277.94 107.06, 357.62 15.4 M24.34 398.79 C100.63 311.03, 176.91 223.28, 357.62 15.4 M34.32 399.51 C101.3 322.45, 168.29 245.39, 357.75 27.44 M34.32 399.51 C126.1 293.92, 217.89 188.33, 357.75 27.44 M44.95 399.47 C159.01 268.26, 273.08 137.04, 357.23 40.23 M44.95 399.47 C131.17 300.28, 217.4 201.09, 357.23 40.23 M55.58 399.44 C168.33 269.74, 281.08 140.03, 357.36 52.27 M55.58 399.44 C119.78 325.58, 183.99 251.72, 357.36 52.27 M66.21 399.41 C154.65 297.66, 243.1 195.91, 357.5 64.31 M66.21 399.41 C147.01 306.45, 227.82 213.49, 357.5 64.31 M76.84 399.37 C145.72 320.13, 214.6 240.9, 357.63 76.36 M76.84 399.37 C165.3 297.6, 253.77 195.84, 357.63 76.36 M87.47 399.34 C160.98 314.76, 234.5 230.19, 357.11 89.15 M87.47 399.34 C145.77 332.26, 204.08 265.19, 357.11 89.15 M98.1 399.3 C178.28 307.06, 258.47 214.82, 357.24 101.19 M98.1 399.3 C150.32 339.23, 202.54 279.16, 357.24 101.19 M108.73 399.27 C182 314.97, 255.28 230.68, 357.37 113.23 M108.73 399.27 C159.89 340.41, 211.05 281.55, 357.37 113.23 M119.36 399.23 C178.54 331.15, 237.72 263.07, 357.51 125.27 M119.36 399.23 C205.72 299.89, 292.08 200.54, 357.51 125.27 M129.99 399.2 C184.05 337.01, 238.11 274.81, 357.64 137.31 M129.99 399.2 C218.51 297.37, 307.03 195.54, 357.64 137.31 M140.62 399.16 C192.67 339.28, 244.72 279.41, 357.12 150.11 M140.62 399.16 C198.77 332.27, 256.92 265.37, 357.12 150.11 M151.25 399.13 C215.93 324.72, 280.62 250.3, 357.25 162.15 M151.25 399.13 C200.27 342.73, 249.3 286.33, 357.25 162.15 M161.88 399.1 C212.38 340.99, 262.89 282.89, 357.38 174.19 M161.88 399.1 C214.53 338.53, 267.18 277.96, 357.38 174.19 M172.51 399.06 C243.29 317.63, 314.08 236.2, 357.52 186.23 M172.51 399.06 C219.76 344.7, 267.02 290.33, 357.52 186.23 M183.14 399.03 C247.83 324.6, 312.53 250.18, 357.65 198.27 M183.14 399.03 C234.49 339.95, 285.85 280.87, 357.65 198.27 M193.77 398.99 C234.1 352.59, 274.44 306.19, 357.13 211.07 M193.77 398.99 C238.38 347.67, 282.99 296.35, 357.13 211.07 M204.4 398.96 C241.29 356.51, 278.19 314.07, 357.26 223.11 M204.4 398.96 C258.33 336.91, 312.26 274.87, 357.26 223.11 M215.03 398.92 C265.69 340.64, 316.35 282.36, 357.39 235.15 M215.03 398.92 C265.22 341.18, 315.41 283.44, 357.39 235.15 M225.66 398.89 C255.91 364.09, 286.16 329.29, 357.53 247.19 M225.66 398.89 C256.49 363.41, 287.33 327.94, 357.53 247.19 M236.29 398.85 C273.15 356.44, 310.02 314.03, 357.66 259.23 M236.29 398.85 C270.89 359.05, 305.5 319.24, 357.66 259.23 M246.92 398.82 C278.79 362.15, 310.67 325.48, 357.14 272.03 M246.92 398.82 C269.62 372.7, 292.32 346.59, 357.14 272.03 M257.55 398.78 C290.47 360.91, 323.39 323.04, 357.27 284.07 M257.55 398.78 C286.64 365.32, 315.73 331.85, 357.27 284.07 M267.52 399.5 C291.84 371.53, 316.16 343.55, 357.4 296.11 M267.52 399.5 C296.06 366.67, 324.6 333.84, 357.4 296.11 M278.15 399.47 C295.61 379.39, 313.06 359.31, 357.54 308.15 M278.15 399.47 C303.8 369.97, 329.44 340.47, 357.54 308.15 M288.78 399.44 C303.83 382.12, 318.88 364.81, 357.67 320.19 M288.78 399.44 C309.21 375.94, 329.64 352.44, 357.67 320.19 M299.41 399.4 C311.15 385.9, 322.88 372.4, 357.15 332.99 M299.41 399.4 C320.16 375.53, 340.92 351.66, 357.15 332.99 M310.04 399.37 C322.95 384.51, 335.86 369.66, 357.28 345.03 M310.04 399.37 C321.88 385.75, 333.72 372.12, 357.28 345.03 M320.67 399.33 C330.07 388.53, 339.46 377.72, 357.41 357.07 M320.67 399.33 C332.1 386.19, 343.52 373.05, 357.41 357.07 M331.3 399.3 C341.03 388.1, 350.76 376.91, 357.54 369.11 M331.3 399.3 C340.94 388.21, 350.58 377.12, 357.54 369.11 M341.93 399.26 C348.2 392.05, 354.47 384.84, 357.68 381.15 M341.93 399.26 C346.93 393.52, 351.92 387.77, 357.68 381.15 M352.56 399.23 C354.13 397.42, 355.7 395.62, 357.15 393.95 M352.56 399.23 C353.54 398.1, 354.52 396.97, 357.15 393.95 M0.18 399.15 C0.18 399.15, 0.18 399.15, 0.18 399.15 M0.18 399.15 C0.18 399.15, 0.18 399.15, 0.18 399.15 M12.22 399.02 C9.65 396.79, 7.08 394.55, 0.14 388.52 M12.22 399.02 C9.37 396.54, 6.52 394.06, 0.14 388.52 M24.26 398.89 C17.92 393.38, 11.58 387.87, 0.11 377.89 M24.26 398.89 C19.39 394.65, 14.51 390.42, 0.11 377.89 M36.3 398.75 C25.25 389.15, 14.2 379.54, 0.07 367.26 M36.3 398.75 C26.83 390.53, 17.37 382.3, 0.07 367.26 M49.09 399.28 C31.79 384.24, 14.5 369.2, 0.04 356.63 M49.09 399.28 C38.9 390.42, 28.71 381.56, 0.04 356.63 M61.13 399.14 C40.61 381.3, 20.08 363.45, 0 346 M61.13 399.14 C36.96 378.13, 12.79 357.12, 0 346 M73.18 399.01 C53.47 381.88, 33.76 364.75, -0.03 335.37 M73.18 399.01 C49.43 378.37, 25.69 357.73, -0.03 335.37 M85.22 398.88 C58.17 375.36, 31.12 351.85, -0.07 324.74 M85.22 398.88 C57.56 374.84, 29.9 350.79, -0.07 324.74 M97.26 398.74 C62.26 368.32, 27.26 337.9, -0.1 314.11 M97.26 398.74 C64.19 370, 31.12 341.26, -0.1 314.11 M110.05 399.27 C81.76 374.67, 53.47 350.08, -0.14 303.48 M110.05 399.27 C86.54 378.83, 63.03 358.39, -0.14 303.48 M122.09 399.13 C95.66 376.15, 69.23 353.18, -0.17 292.85 M122.09 399.13 C88.89 370.27, 55.69 341.41, -0.17 292.85 M134.13 399 C99.57 368.95, 65 338.9, -0.2 282.22 M134.13 399 C106.22 374.73, 78.3 350.46, -0.2 282.22 M146.18 398.87 C90.92 350.84, 35.67 302.8, -0.24 271.59 M146.18 398.87 C107 364.81, 67.82 330.75, -0.24 271.59 M158.22 398.73 C123.81 368.82, 89.4 338.91, -0.27 260.96 M158.22 398.73 C105.51 352.92, 52.8 307.1, -0.27 260.96 M171.01 399.26 C132.24 365.55, 93.46 331.84, -0.31 250.33 M171.01 399.26 C118.76 353.84, 66.51 308.42, -0.31 250.33 M183.05 399.12 C122.61 346.58, 62.17 294.04, -0.34 239.7 M183.05 399.12 C111.14 336.61, 39.22 274.09, -0.34 239.7 M195.09 398.99 C138.08 349.43, 81.06 299.86, -0.38 229.07 M195.09 398.99 C138.28 349.61, 81.47 300.22, -0.38 229.07 M207.13 398.86 C127.83 329.92, 48.52 260.98, 0.34 219.1 M207.13 398.86 C151.13 350.18, 95.13 301.5, 0.34 219.1 M219.18 398.72 C143.14 332.63, 67.1 266.53, 0.31 208.47 M219.18 398.72 C140.14 330.02, 61.1 261.31, 0.31 208.47 M231.97 399.25 C171.03 346.27, 110.09 293.3, 0.27 197.84 M231.97 399.25 C178.1 352.42, 124.23 305.59, 0.27 197.84 M244.01 399.11 C167.77 332.84, 91.53 266.56, 0.24 187.21 M244.01 399.11 C150.71 318, 57.4 236.89, 0.24 187.21 M256.05 398.98 C192.72 343.93, 129.39 288.88, 0.21 176.58 M256.05 398.98 C199.54 349.86, 143.03 300.73, 0.21 176.58 M268.09 398.85 C173.7 316.79, 79.31 234.74, 0.17 165.95 M268.09 398.85 C200.71 340.27, 133.33 281.7, 0.17 165.95 M280.13 398.71 C192.84 322.83, 105.54 246.95, 0.14 155.32 M280.13 398.71 C179.55 311.28, 78.97 223.85, 0.14 155.32 M292.93 399.24 C182.84 303.54, 72.76 207.85, 0.1 144.69 M292.93 399.24 C177.85 299.2, 62.76 199.16, 0.1 144.69 M304.97 399.1 C236.13 339.26, 167.29 279.42, 0.07 134.06 M304.97 399.1 C228.58 332.7, 152.19 266.29, 0.07 134.06 M317.01 398.97 C209.6 305.6, 102.19 212.23, 0.03 123.43 M317.01 398.97 C233.76 326.6, 150.51 254.24, 0.03 123.43 M329.05 398.84 C245.17 325.92, 161.28 253, 0 112.8 M329.05 398.84 C237.73 319.45, 146.4 240.06, 0 112.8 M341.09 398.7 C224.57 297.41, 108.05 196.12, -0.04 102.17 M341.09 398.7 C257.38 325.93, 173.67 253.16, -0.04 102.17 M353.89 399.23 C261.91 319.27, 169.92 239.31, -0.07 91.54 M353.89 399.23 C246.79 306.13, 139.69 213.02, -0.07 91.54 M357.63 391.88 C239.6 289.28, 121.58 186.68, -0.1 80.91 M357.63 391.88 C230.26 281.16, 102.89 170.44, -0.1 80.91 M357.59 381.25 C215.72 257.92, 73.85 134.59, -0.14 70.28 M357.59 381.25 C226.04 266.89, 94.49 152.54, -0.14 70.28 M357.56 370.62 C216.24 247.77, 74.93 124.93, -0.17 59.65 M357.56 370.62 C236.3 265.21, 115.04 159.8, -0.17 59.65 M357.52 359.99 C280.12 292.7, 202.71 225.41, -0.21 49.02 M357.52 359.99 C216.31 237.23, 75.09 114.47, -0.21 49.02 M357.49 349.36 C259.7 264.35, 161.92 179.35, -0.24 38.39 M357.49 349.36 C225.75 234.84, 94.02 120.32, -0.24 38.39 M357.46 338.73 C226.58 224.96, 95.7 111.18, -0.28 27.76 M357.46 338.73 C255.47 250.07, 153.49 161.42, -0.28 27.76 M357.42 328.1 C269.19 251.4, 180.95 174.7, -0.31 17.13 M357.42 328.1 C233.03 219.97, 108.65 111.84, -0.31 17.13 M357.39 317.47 C254.74 228.24, 152.1 139.01, -0.35 6.5 M357.39 317.47 C278.74 249.1, 200.09 180.74, -0.35 6.5 M357.35 306.84 C271.7 232.38, 186.04 157.92, 3.39 -0.85 M357.35 306.84 C282.74 241.98, 208.12 177.12, 3.39 -0.85 M357.32 296.21 C249.24 202.25, 141.15 108.3, 16.19 -0.33 M357.32 296.21 C234.56 189.5, 111.8 82.78, 16.19 -0.33 M357.28 285.58 C248.11 190.67, 138.94 95.77, 28.23 -0.46 M357.28 285.58 C284.67 222.45, 212.06 159.33, 28.23 -0.46 M357.25 274.95 C234.22 168, 111.2 61.06, 40.27 -0.6 M357.25 274.95 C247.69 179.71, 138.14 84.48, 40.27 -0.6 M357.21 264.32 C285.96 202.37, 214.7 140.43, 52.31 -0.73 M357.21 264.32 C274.83 192.7, 192.45 121.09, 52.31 -0.73 M357.18 253.69 C260.95 170.04, 164.72 86.38, 64.35 -0.86 M357.18 253.69 C240.83 152.55, 124.48 51.4, 64.35 -0.86 M357.14 243.06 C298.13 191.75, 239.11 140.45, 77.15 -0.34 M357.14 243.06 C250.22 150.11, 143.3 57.16, 77.15 -0.34 M357.86 233.08 C260.73 148.64, 163.59 64.2, 89.19 -0.47 M357.86 233.08 C300.14 182.9, 242.41 132.72, 89.19 -0.47 M357.83 222.45 C262.55 139.62, 167.26 56.79, 101.23 -0.61 M357.83 222.45 C304.47 176.07, 251.11 129.68, 101.23 -0.61 M357.8 211.82 C307.59 168.18, 257.38 124.53, 113.27 -0.74 M357.8 211.82 C289.87 152.78, 221.95 93.73, 113.27 -0.74 M357.76 201.19 C271.99 126.63, 186.21 52.07, 125.31 -0.87 M357.76 201.19 C280.97 134.44, 204.19 67.69, 125.31 -0.87 M357.73 190.56 C275.63 119.2, 193.54 47.84, 138.11 -0.35 M357.73 190.56 C281.88 124.63, 206.04 58.7, 138.11 -0.35 M357.69 179.93 C294.86 125.31, 232.03 70.7, 150.15 -0.48 M357.69 179.93 C282.85 114.87, 208 49.81, 150.15 -0.48 M357.66 169.3 C303.7 122.4, 249.74 75.49, 162.19 -0.62 M357.66 169.3 C287.98 108.73, 218.3 48.16, 162.19 -0.62 M357.62 158.67 C317.87 124.11, 278.11 89.55, 174.23 -0.75 M357.62 158.67 C313.59 120.4, 269.57 82.12, 174.23 -0.75 M357.59 148.04 C303.37 100.91, 249.15 53.77, 186.27 -0.88 M357.59 148.04 C301.08 98.92, 244.58 49.8, 186.27 -0.88 M357.55 137.41 C325.74 109.75, 293.92 82.1, 199.07 -0.36 M357.55 137.41 C303.72 90.61, 249.88 43.81, 199.07 -0.36 M357.52 126.78 C299.71 76.52, 241.89 26.27, 211.11 -0.49 M357.52 126.78 C318.91 93.22, 280.3 59.66, 211.11 -0.49 M357.49 116.15 C318.59 82.34, 279.7 48.54, 223.15 -0.63 M357.49 116.15 C309.11 74.1, 260.73 32.04, 223.15 -0.63 M357.45 105.52 C332.24 83.6, 307.02 61.68, 235.19 -0.76 M357.45 105.52 C328.59 80.43, 299.72 55.34, 235.19 -0.76 M357.42 94.89 C317.39 60.1, 277.37 25.31, 247.23 -0.89 M357.42 94.89 C331.88 72.7, 306.35 50.5, 247.23 -0.89 M357.38 84.26 C324.19 55.41, 291 26.56, 260.02 -0.37 M357.38 84.26 C327.72 58.47, 298.05 32.69, 260.02 -0.37 M357.35 73.63 C336.24 55.28, 315.14 36.94, 272.07 -0.5 M357.35 73.63 C339.05 57.73, 320.76 41.83, 272.07 -0.5 M357.31 63 C329.16 38.53, 301 14.05, 284.11 -0.64 M357.31 63 C342.17 49.83, 327.02 36.67, 284.11 -0.64 M357.28 52.37 C344.25 41.05, 331.23 29.73, 296.15 -0.77 M357.28 52.37 C332.93 31.21, 308.59 10.05, 296.15 -0.77 M357.24 41.74 C346.54 32.43, 335.83 23.12, 308.19 -0.9 M357.24 41.74 C344.5 30.66, 331.76 19.59, 308.19 -0.9 M357.21 31.11 C347.21 22.42, 337.21 13.72, 320.98 -0.38 M357.21 31.11 C349.88 24.74, 342.56 18.37, 320.98 -0.38 M357.18 20.48 C349.49 13.8, 341.8 7.12, 333.02 -0.51 M357.18 20.48 C350.89 15.02, 344.61 9.56, 333.02 -0.51 M357.14 9.85 C353.54 6.72, 349.94 3.59, 345.07 -0.65 M357.14 9.85 C353.81 6.96, 350.48 4.06, 345.07 -0.65" stroke="#e9ecef" stroke-width="1" fill="none"></path><path d="M0 0 C115.42 0, 230.85 0, 357 0 M0 0 C101.1 0, 202.2 0, 357 0 M357 0 C357 158.94, 357 317.87, 357 399 M357 0 C357 139.99, 357 279.99, 357 399 M357 399 C277.28 399, 197.55 399, 0 399 M357 399 C214.98 399, 72.96 399, 0 399 M0 399 C0 261.75, 0 124.5, 0 0 M0 399 C0 260.92, 0 122.83, 0 0" stroke="#1e1e1e" stroke-width="2" fill="none"></path></g><g transform="translate(98.95831298828136 19.91668701171892) rotate(0 94.59782409667969 21.599999999999994)"><text x="0" y="34.762499999999996" font-family="Cascadia, Segoe UI Emoji" font-size="36px" fill="#1e1e1e" text-anchor="start" style="white-space: pre;" direction="ltr" dominant-baseline="alphabetic">arrow (R)</text></g><g transform="translate(59.958312988281364 122.71668701171893) rotate(0 155 16.8)"><text x="155" y="27.0375" font-family="Cascadia, Segoe UI Emoji" font-size="28px" fill="#1e1e1e" text-anchor="middle" style="white-space: pre;" direction="ltr" dominant-baseline="alphabetic">Call bindings</text></g><g transform="translate(494.40217590332054 18.400000000000034) rotate(0 115.6195678710937 21.599999999999994)"><text x="0" y="34.762499999999996" font-family="Cascadia, Segoe UI Emoji" font-size="36px" fill="#1e1e1e" text-anchor="start" style="white-space: pre;" direction="ltr" dominant-baseline="alphabetic">Acero (C++)</text></g><g transform="translate(459 204) rotate(0 155.00000000000006 50.400000000000006)"><text x="155" y="27.0375" font-family="Cascadia, Segoe UI Emoji" font-size="28px" fill="#1e1e1e" text-anchor="middle" style="white-space: pre;" direction="ltr" dominant-baseline="alphabetic">Combine all </text><text x="155" y="60.6375" font-family="Cascadia, Segoe UI Emoji" font-size="28px" fill="#1e1e1e" text-anchor="middle" style="white-space: pre;" direction="ltr" dominant-baseline="alphabetic">results and return</text><text x="155" y="94.23750000000001" font-family="Cascadia, Segoe UI Emoji" font-size="28px" fill="#1e1e1e" text-anchor="middle" style="white-space: pre;" direction="ltr" dominant-baseline="alphabetic">them to R</text></g><g stroke-linecap="round"><g transform="translate(330 154.95469965537256) rotate(0 79.39138536527759 29.320661793307394)"><path d="M-3.71 -3.65 C41.36 12.13, 76.7 27.52, 162.49 62.02 M0.88 -0.62 C52.69 21, 108.23 43, 159.39 62.29" stroke="#1e1e1e" stroke-width="2" fill="none"></path></g><g transform="translate(330 154.95469965537256) rotate(0 79.39138536527759 29.320661793307394)"><path d="M132.54 60.05 C142.12 61.33, 146.81 61.47, 161.13 61.18 M134.83 61.56 C142 62.22, 151.46 62.57, 159.58 61.31" stroke="#1e1e1e" stroke-width="2" fill="none"></path></g><g transform="translate(330 154.95469965537256) rotate(0 79.39138536527759 29.320661793307394)"><path d="M138.66 44.08 C146.78 49.2, 150.01 53.15, 161.13 61.18 M140.95 45.59 C146.17 51.64, 153.57 57.35, 159.58 61.31" stroke="#1e1e1e" stroke-width="2" fill="none"></path></g></g><mask></mask><g stroke-linecap="round"><g transform="translate(458.0000000000001 289.5047688777025) rotate(0 -99.94025054739149 25.669306299441843)"><path d="M3.09 -1.97 C-54.32 16.62, -110.11 30.85, -202.97 51.5 M0.34 -1.73 C-65.98 19.82, -131.8 36.53, -201.12 53.31" stroke="#1e1e1e" stroke-width="2" fill="none"></path></g><g transform="translate(458.0000000000001 289.5047688777025) rotate(0 -99.94025054739149 25.669306299441843)"><path d="M-178.62 38.26 C-185.35 44.52, -191.07 47.92, -201.74 51.73 M-180.17 38.39 C-186.95 44.12, -193.33 48.03, -200.7 52.75" stroke="#1e1e1e" stroke-width="2" fill="none"></path></g><g transform="translate(458.0000000000001 289.5047688777025) rotate(0 -99.94025054739149 25.669306299441843)"><path d="M-174.52 54.86 C-182.43 56.52, -189.28 55.33, -201.74 51.73 M-176.07 54.99 C-184.25 55.26, -191.98 53.69, -200.7 52.75" stroke="#1e1e1e" stroke-width="2" fill="none"></path></g></g><mask></mask><g transform="translate(159.0000000000001 340) rotate(0 47.5 16.799999999999997)"><text x="0" y="27.0375" font-family="Cascadia, Segoe UI Emoji" font-size="28px" fill="#1e1e1e" text-anchor="start" style="white-space: pre;" direction="ltr" dominant-baseline="alphabetic">Done!</text></g></svg>