<svg version="1.1" xmlns="http://www.w3.org/2000/svg" viewBox="0 0 1665.1230510804508 1176.459875469858" width="4995.369153241352" height="3529.3796264095736">
  <!-- svg-source:excalidraw -->
  
  <defs>
    <style class="style-fonts">
      @font-face {
        font-family: "Virgil";
        src: url("https://excalidraw.com/Virgil.woff2");
      }
      @font-face {
        font-family: "Cascadia";
        src: url("https://excalidraw.com/Cascadia.woff2");
      }
      @font-face {
        font-family: "Assistant";
        src: url("https://excalidraw.com/Assistant-Regular.woff2");
      }
    </style>
    
  </defs>
  <g stroke-opacity="0.8" fill-opacity="0.8" stroke-linecap="round" transform="translate(214.37144882648897 365.50862466771065) rotate(0 96.3333333333332 25.416666666666686)"><path d="M0 0 L192.67 0 L192.67 50.83 L0 50.83" stroke="none" stroke-width="0" fill="#f8f9fa"></path><path d="M0 0 C41.27 0, 82.54 0, 192.67 0 M0 0 C49.85 0, 99.7 0, 192.67 0 M192.67 0 C192.67 13.88, 192.67 27.75, 192.67 50.83 M192.67 0 C192.67 15.95, 192.67 31.9, 192.67 50.83 M192.67 50.83 C143.52 50.83, 94.38 50.83, 0 50.83 M192.67 50.83 C142.93 50.83, 93.2 50.83, 0 50.83 M0 50.83 C0 34.7, 0 18.56, 0 0 M0 50.83 C0 39.99, 0 29.16, 0 0" stroke="#1e1e1e" stroke-width="2" fill="none"></path></g><g stroke-opacity="0.8" fill-opacity="0.8" stroke-linecap="round" transform="translate(214.26035466958854 365.1613854912785) rotate(0 96.66666666666646 56.17394496310288)"><path d="M0 0 C43.34 0, 86.68 0, 193.33 0 M0 0 C76.07 0, 152.14 0, 193.33 0 M193.33 0 C193.33 39.29, 193.33 78.58, 193.33 112.35 M193.33 0 C193.33 34.3, 193.33 68.59, 193.33 112.35 M193.33 112.35 C119.44 112.35, 45.54 112.35, 0 112.35 M193.33 112.35 C122.6 112.35, 51.87 112.35, 0 112.35 M0 112.35 C0 88.2, 0 64.04, 0 0 M0 112.35 C0 72.75, 0 33.15, 0 0" stroke="#1e1e1e" stroke-width="2" fill="none"></path></g><g stroke-opacity="0.8" fill-opacity="0.8" stroke-linecap="round" transform="translate(435.622323429968 365.50862466771065) rotate(0 96.33333333333326 25.416666666666686)"><path d="M0 0 L192.67 0 L192.67 50.83 L0 50.83" stroke="none" stroke-width="0" fill="#f8f9fa"></path><path d="M0 0 C41.93 0, 83.86 0, 192.67 0 M0 0 C41.64 0, 83.29 0, 192.67 0 M192.67 0 C192.67 17.91, 192.67 35.82, 192.67 50.83 M192.67 0 C192.67 15.15, 192.67 30.31, 192.67 50.83 M192.67 50.83 C123.93 50.83, 55.19 50.83, 0 50.83 M192.67 50.83 C116.28 50.83, 39.9 50.83, 0 50.83 M0 50.83 C0 40.49, 0 30.15, 0 0 M0 50.83 C0 36.85, 0 22.87, 0 0" stroke="#1e1e1e" stroke-width="2" fill="none"></path></g><g stroke-opacity="0.8" fill-opacity="0.8" stroke-linecap="round" transform="translate(435.51122927306756 365.1613854912785) rotate(0 96.66666666666652 56.17394496310288)"><path d="M0 0 C63.06 0, 126.12 0, 193.33 0 M0 0 C55.38 0, 110.76 0, 193.33 0 M193.33 0 C193.33 28.86, 193.33 57.71, 193.33 112.35 M193.33 0 C193.33 36.39, 193.33 72.78, 193.33 112.35 M193.33 112.35 C122.06 112.35, 50.78 112.35, 0 112.35 M193.33 112.35 C132.52 112.35, 71.7 112.35, 0 112.35 M0 112.35 C0 83.97, 0 55.6, 0 0 M0 112.35 C0 74.51, 0 36.66, 0 0" stroke="#1e1e1e" stroke-width="2" fill="none"></path></g><g stroke-opacity="0.8" fill-opacity="0.8" stroke-linecap="round" transform="translate(658.8444918585587 365.50862466771065) rotate(0 96.33333333333326 25.416666666666686)"><path d="M0 0 L192.67 0 L192.67 50.83 L0 50.83" stroke="none" stroke-width="0" fill="#f8f9fa"></path><path d="M0 0 C53.26 0, 106.51 0, 192.67 0 M0 0 C70.84 0, 141.68 0, 192.67 0 M192.67 0 C192.67 19.31, 192.67 38.62, 192.67 50.83 M192.67 0 C192.67 11.14, 192.67 22.28, 192.67 50.83 M192.67 50.83 C140.09 50.83, 87.51 50.83, 0 50.83 M192.67 50.83 C148.31 50.83, 103.95 50.83, 0 50.83 M0 50.83 C0 33.48, 0 16.12, 0 0 M0 50.83 C0 38.07, 0 25.3, 0 0" stroke="#1e1e1e" stroke-width="2" fill="none"></path></g><g stroke-opacity="0.8" fill-opacity="0.8" stroke-linecap="round" transform="translate(658.7333977016583 365.1613854912785) rotate(0 96.66666666666652 56.17394496310288)"><path d="M0 0 C53.18 0, 106.36 0, 193.33 0 M0 0 C42.76 0, 85.51 0, 193.33 0 M193.33 0 C193.33 24.88, 193.33 49.76, 193.33 112.35 M193.33 0 C193.33 29.21, 193.33 58.42, 193.33 112.35 M193.33 112.35 C148.63 112.35, 103.92 112.35, 0 112.35 M193.33 112.35 C124.23 112.35, 55.13 112.35, 0 112.35 M0 112.35 C0 79.48, 0 46.61, 0 0 M0 112.35 C0 78.23, 0 44.11, 0 0" stroke="#1e1e1e" stroke-width="2" fill="none"></path></g><g stroke-opacity="0.8" fill-opacity="0.8" stroke-linecap="round" transform="translate(881.0810133745936 365.50862466771065) rotate(0 96.33333333333326 25.416666666666686)"><path d="M0 0 L192.67 0 L192.67 50.83 L0 50.83" stroke="none" stroke-width="0" fill="#f8f9fa"></path><path d="M0 0 C49.13 0, 98.27 0, 192.67 0 M0 0 C71.06 0, 142.12 0, 192.67 0 M192.67 0 C192.67 14.7, 192.67 29.41, 192.67 50.83 M192.67 0 C192.67 18.1, 192.67 36.2, 192.67 50.83 M192.67 50.83 C140.41 50.83, 88.15 50.83, 0 50.83 M192.67 50.83 C121.1 50.83, 49.53 50.83, 0 50.83 M0 50.83 C0 34.57, 0 18.31, 0 0 M0 50.83 C0 32.1, 0 13.37, 0 0" stroke="#1e1e1e" stroke-width="2" fill="none"></path></g><g stroke-opacity="0.8" fill-opacity="0.8" stroke-linecap="round" transform="translate(880.9699192176931 365.1613854912785) rotate(0 96.66666666666652 56.17394496310288)"><path d="M0 0 C44.93 0, 89.87 0, 193.33 0 M0 0 C46.38 0, 92.75 0, 193.33 0 M193.33 0 C193.33 35.67, 193.33 71.35, 193.33 112.35 M193.33 0 C193.33 24.14, 193.33 48.27, 193.33 112.35 M193.33 112.35 C148.76 112.35, 104.19 112.35, 0 112.35 M193.33 112.35 C152.23 112.35, 111.12 112.35, 0 112.35 M0 112.35 C0 86.45, 0 60.56, 0 0 M0 112.35 C0 86.57, 0 60.8, 0 0" stroke="#1e1e1e" stroke-width="2" fill="none"></path></g><g stroke-opacity="0.8" fill-opacity="0.8" stroke-linecap="round" transform="translate(1103.3175348906284 365.50862466771065) rotate(0 96.33333333333326 25.416666666666686)"><path d="M0 0 L192.67 0 L192.67 50.83 L0 50.83" stroke="none" stroke-width="0" fill="#f8f9fa"></path><path d="M0 0 C55.27 0, 110.55 0, 192.67 0 M0 0 C76.05 0, 152.1 0, 192.67 0 M192.67 0 C192.67 16.34, 192.67 32.69, 192.67 50.83 M192.67 0 C192.67 15.84, 192.67 31.68, 192.67 50.83 M192.67 50.83 C151.57 50.83, 110.47 50.83, 0 50.83 M192.67 50.83 C147.96 50.83, 103.25 50.83, 0 50.83 M0 50.83 C0 39.27, 0 27.7, 0 0 M0 50.83 C0 36.35, 0 21.88, 0 0" stroke="#1e1e1e" stroke-width="2" fill="none"></path></g><g stroke-opacity="0.8" fill-opacity="0.8" stroke-linecap="round" transform="translate(1103.206440733728 365.1613854912785) rotate(0 96.66666666666652 56.17394496310288)"><path d="M0 0 C60.71 0, 121.42 0, 193.33 0 M0 0 C48.9 0, 97.81 0, 193.33 0 M193.33 0 C193.33 34.1, 193.33 68.21, 193.33 112.35 M193.33 0 C193.33 42.35, 193.33 84.71, 193.33 112.35 M193.33 112.35 C142.19 112.35, 91.05 112.35, 0 112.35 M193.33 112.35 C136.71 112.35, 80.1 112.35, 0 112.35 M0 112.35 C0 75.29, 0 38.23, 0 0 M0 112.35 C0 72.6, 0 32.85, 0 0" stroke="#1e1e1e" stroke-width="2" fill="none"></path></g><g stroke-opacity="0.8" fill-opacity="0.8" stroke-linecap="round" transform="translate(1325.5540564066632 365.50862466771065) rotate(0 96.33333333333326 25.416666666666686)"><path d="M0 0 L192.67 0 L192.67 50.83 L0 50.83" stroke="none" stroke-width="0" fill="#f8f9fa"></path><path d="M0 0 C44.93 0, 89.86 0, 192.67 0 M0 0 C54.75 0, 109.51 0, 192.67 0 M192.67 0 C192.67 12.64, 192.67 25.27, 192.67 50.83 M192.67 0 C192.67 19.51, 192.67 39.03, 192.67 50.83 M192.67 50.83 C118.03 50.83, 43.39 50.83, 0 50.83 M192.67 50.83 C125.43 50.83, 58.2 50.83, 0 50.83 M0 50.83 C0 33.22, 0 15.61, 0 0 M0 50.83 C0 36.35, 0 21.87, 0 0" stroke="#1e1e1e" stroke-width="2" fill="none"></path></g><g stroke-opacity="0.8" fill-opacity="0.8" stroke-linecap="round" transform="translate(1325.4429622497628 365.1613854912785) rotate(0 96.66666666666652 56.17394496310288)"><path d="M0 0 C55.36 0, 110.73 0, 193.33 0 M0 0 C39.8 0, 79.59 0, 193.33 0 M193.33 0 C193.33 31.17, 193.33 62.35, 193.33 112.35 M193.33 0 C193.33 31.19, 193.33 62.37, 193.33 112.35 M193.33 112.35 C117.24 112.35, 41.14 112.35, 0 112.35 M193.33 112.35 C121.63 112.35, 49.92 112.35, 0 112.35 M0 112.35 C0 69.55, 0 26.76, 0 0 M0 112.35 C0 70.27, 0 28.2, 0 0" stroke="#1e1e1e" stroke-width="2" fill="none"></path></g><g stroke-opacity="0.7" fill-opacity="0.7" stroke-linecap="round" transform="translate(10 57.33333333333354) rotate(0 822.5615255402254 554.5632710682622)"><path d="M32 0 C419.47 0, 806.93 0, 1613.12 0 M32 0 C604.02 0, 1176.03 0, 1613.12 0 M1613.12 0 C1634.46 0, 1645.12 10.67, 1645.12 32 M1613.12 0 C1634.46 0, 1645.12 10.67, 1645.12 32 M1645.12 32 C1645.12 416.67, 1645.12 801.34, 1645.12 1077.13 M1645.12 32 C1645.12 354.86, 1645.12 677.71, 1645.12 1077.13 M1645.12 1077.13 C1645.12 1098.46, 1634.46 1109.13, 1613.12 1109.13 M1645.12 1077.13 C1645.12 1098.46, 1634.46 1109.13, 1613.12 1109.13 M1613.12 1109.13 C1114.07 1109.13, 615.02 1109.13, 32 1109.13 M1613.12 1109.13 C1071.17 1109.13, 529.22 1109.13, 32 1109.13 M32 1109.13 C10.67 1109.13, 0 1098.46, 0 1077.13 M32 1109.13 C10.67 1109.13, 0 1098.46, 0 1077.13 M0 1077.13 C0 818.25, 0 559.37, 0 32 M0 1077.13 C0 851.96, 0 626.8, 0 32 M0 32 C0 10.67, 10.67 0, 32 0 M0 32 C0 10.67, 10.67 0, 32 0" stroke="#1e1e1e" stroke-width="2" fill="none"></path></g><g stroke-linecap="round" transform="translate(1224.1920039412375 10) rotate(0 141.5 38)"><path d="M19 0 C78.51 0, 138.01 0, 264 0 C276.67 0, 283 6.33, 283 19 C283 28.49, 283 37.98, 283 57 C283 69.67, 276.67 76, 264 76 C207.29 76, 150.58 76, 19 76 C6.33 76, 0 69.67, 0 57 C0 42.29, 0 27.57, 0 19 C0 6.33, 6.33 0, 19 0" stroke="none" stroke-width="0" fill="#ffffff"></path><path d="M19 0 C81.25 0, 143.49 0, 264 0 M19 0 C82.46 0, 145.92 0, 264 0 M264 0 C276.67 0, 283 6.33, 283 19 M264 0 C276.67 0, 283 6.33, 283 19 M283 19 C283 30.07, 283 41.14, 283 57 M283 19 C283 27.46, 283 35.91, 283 57 M283 57 C283 69.67, 276.67 76, 264 76 M283 57 C283 69.67, 276.67 76, 264 76 M264 76 C212.18 76, 160.36 76, 19 76 M264 76 C197.38 76, 130.77 76, 19 76 M19 76 C6.33 76, 0 69.67, 0 57 M19 76 C6.33 76, 0 69.67, 0 57 M0 57 C0 42.76, 0 28.51, 0 19 M0 57 C0 42.59, 0 28.18, 0 19 M0 19 C0 6.33, 6.33 0, 19 0 M0 19 C0 6.33, 6.33 0, 19 0" stroke="#1e1e1e" stroke-width="2" fill="none"></path></g><g transform="translate(1290.7018621498898 22.25560030207197) rotate(0 73.57608795166004 21.599999999999994)"><text x="0" y="34.762499999999996" font-family="Cascadia, Segoe UI Emoji" font-size="36px" fill="#1e1e1e" text-anchor="start" style="white-space: pre;" direction="ltr" dominant-baseline="alphabetic">Dataset</text></g><g stroke-opacity="0.4" fill-opacity="0.4" transform="translate(226.86813212263428 363.90198913860826) rotate(0 73.57608795166016 21.600000000000023)"><text x="0" y="34.762499999999996" font-family="Cascadia, Segoe UI Emoji" font-size="36px" fill="#1e1e1e" text-anchor="start" style="white-space: pre;" direction="ltr" dominant-baseline="alphabetic">SPORDER</text></g><g stroke-opacity="0.4" fill-opacity="0.4" transform="translate(504.6308134479109 363.90198913860826) rotate(0 21.021739959716797 21.600000000000023)"><text x="0" y="34.762499999999996" font-family="Cascadia, Segoe UI Emoji" font-size="36px" fill="#1e1e1e" text-anchor="start" style="white-space: pre;" direction="ltr" dominant-baseline="alphabetic">RT</text></g><g stroke-opacity="0.4" fill-opacity="0.4" transform="translate(666.7739269020938 363.90198913860826) rotate(0 84.08695983886719 21.600000000000023)"><text x="0" y="34.762499999999996" font-family="Cascadia, Segoe UI Emoji" font-size="36px" fill="#1e1e1e" text-anchor="start" style="white-space: pre;" direction="ltr" dominant-baseline="alphabetic">SERIALNO</text></g><g stroke-opacity="0.4" fill-opacity="0.4" transform="translate(934.0257401548606 363.90198913860826) rotate(0 42.043479919433594 21.600000000000023)"><text x="0" y="34.762499999999996" font-family="Cascadia, Segoe UI Emoji" font-size="36px" fill="#1e1e1e" text-anchor="start" style="white-space: pre;" direction="ltr" dominant-baseline="alphabetic">PUMA</text></g><g stroke-opacity="0.4" fill-opacity="0.4" transform="translate(1180.2558134479107 363.90198913860826) rotate(0 21.021739959716797 21.600000000000023)"><text x="0" y="34.762499999999996" font-family="Cascadia, Segoe UI Emoji" font-size="36px" fill="#1e1e1e" text-anchor="start" style="white-space: pre;" direction="ltr" dominant-baseline="alphabetic">ST</text></g><g stroke-opacity="0.4" fill-opacity="0.4" transform="translate(269.840065312085 423.38025912806614) rotate(0 41.08695602416992 16.80000000000001)"><text x="0" y="27.0375" font-family="Cascadia, Segoe UI Emoji" font-size="28px" fill="#1e1e1e" text-anchor="start" style="white-space: pre;" direction="ltr" dominant-baseline="alphabetic">int32</text></g><g stroke-opacity="0.4" fill-opacity="0.4" transform="translate(450.0039838913942 423.38025912806614) rotate(0 82.17391204833984 16.80000000000001)"><text x="0" y="27.0375" font-family="Cascadia, Segoe UI Emoji" font-size="28px" fill="#1e1e1e" text-anchor="start" style="white-space: pre;" direction="ltr" dominant-baseline="alphabetic">dictionary</text></g><g stroke-opacity="0.4" fill-opacity="0.4" transform="translate(706.0957163763815 423.38025912806614) rotate(0 49.30434799194336 16.80000000000001)"><text x="0" y="27.0375" font-family="Cascadia, Segoe UI Emoji" font-size="28px" fill="#1e1e1e" text-anchor="start" style="white-space: pre;" direction="ltr" dominant-baseline="alphabetic">string</text></g><g stroke-opacity="0.4" fill-opacity="0.4" transform="translate(928.3322378924163 423.38025912806614) rotate(0 49.30434799194336 16.80000000000001)"><text x="0" y="27.0375" font-family="Cascadia, Segoe UI Emoji" font-size="28px" fill="#1e1e1e" text-anchor="start" style="white-space: pre;" direction="ltr" dominant-baseline="alphabetic">string</text></g><g stroke-opacity="0.4" fill-opacity="0.4" transform="translate(1150.5687594084511 423.38025912806614) rotate(0 49.30434799194336 16.80000000000001)"><text x="0" y="27.0375" font-family="Cascadia, Segoe UI Emoji" font-size="28px" fill="#1e1e1e" text-anchor="start" style="white-space: pre;" direction="ltr" dominant-baseline="alphabetic">string</text></g><g stroke-opacity="0.4" fill-opacity="0.4" transform="translate(1395.9128276589295 363.9089420601576) rotate(0 31.532608032226562 21.600000000000023)"><text x="63.065216064453125" y="34.762499999999996" font-family="Cascadia, Segoe UI Emoji" font-size="36px" fill="#1e1e1e" text-anchor="end" style="white-space: pre;" direction="ltr" dominant-baseline="alphabetic">...</text></g><g stroke-opacity="0.4" fill-opacity="0.4" transform="translate(1397.4574549204576 423.38025912806614) rotate(0 24.65217399597168 16.80000000000001)"><text x="0" y="27.0375" font-family="Cascadia, Segoe UI Emoji" font-size="28px" fill="#1e1e1e" text-anchor="start" style="white-space: pre;" direction="ltr" dominant-baseline="alphabetic">...</text></g><g stroke-linecap="round" transform="translate(163.56592769395434 139.38688373006067) rotate(0 688.1250000000001 42.965688108176266)"><path d="M21.48 0 C443.71 0, 865.94 0, 1354.77 0 M21.48 0 C549.53 0, 1077.58 0, 1354.77 0 M1354.77 0 C1369.09 0, 1376.25 7.16, 1376.25 21.48 M1354.77 0 C1369.09 0, 1376.25 7.16, 1376.25 21.48 M1376.25 21.48 C1376.25 30.36, 1376.25 39.23, 1376.25 64.45 M1376.25 21.48 C1376.25 31.64, 1376.25 41.79, 1376.25 64.45 M1376.25 64.45 C1376.25 78.77, 1369.09 85.93, 1354.77 85.93 M1376.25 64.45 C1376.25 78.77, 1369.09 85.93, 1354.77 85.93 M1354.77 85.93 C950.52 85.93, 546.28 85.93, 21.48 85.93 M1354.77 85.93 C904.75 85.93, 454.74 85.93, 21.48 85.93 M21.48 85.93 C7.16 85.93, 0 78.77, 0 64.45 M21.48 85.93 C7.16 85.93, 0 78.77, 0 64.45 M0 64.45 C0 51.82, 0 39.18, 0 21.48 M0 64.45 C0 55.54, 0 46.63, 0 21.48 M0 21.48 C0 7.16, 7.16 0, 21.48 0 M0 21.48 C0 7.16, 7.16 0, 21.48 0" stroke="#1e1e1e" stroke-width="2" fill="none"></path></g><g stroke-linecap="round" transform="translate(1223.0444388848036 111.20897757760366) rotate(0 141.5 38)"><path d="M19 0 C73.87 0, 128.75 0, 264 0 C276.67 0, 283 6.33, 283 19 C283 27.28, 283 35.56, 283 57 C283 69.67, 276.67 76, 264 76 C183.98 76, 103.95 76, 19 76 C6.33 76, 0 69.67, 0 57 C0 44.53, 0 32.06, 0 19 C0 6.33, 6.33 0, 19 0" stroke="none" stroke-width="0" fill="#ffffff"></path><path d="M19 0 C112.81 0, 206.63 0, 264 0 M19 0 C109.48 0, 199.96 0, 264 0 M264 0 C276.67 0, 283 6.33, 283 19 M264 0 C276.67 0, 283 6.33, 283 19 M283 19 C283 32.35, 283 45.69, 283 57 M283 19 C283 29.95, 283 40.89, 283 57 M283 57 C283 69.67, 276.67 76, 264 76 M283 57 C283 69.67, 276.67 76, 264 76 M264 76 C177.9 76, 91.8 76, 19 76 M264 76 C207.98 76, 151.95 76, 19 76 M19 76 C6.33 76, 0 69.67, 0 57 M19 76 C6.33 76, 0 69.67, 0 57 M0 57 C0 42.99, 0 28.97, 0 19 M0 57 C0 46.94, 0 36.87, 0 19 M0 19 C0 6.33, 6.33 0, 19 0 M0 19 C0 6.33, 6.33 0, 19 0" stroke="#1e1e1e" stroke-width="2" fill="none"></path></g><g transform="translate(1289.5542970934557 123.46457787967557) rotate(0 63.065216064453125 21.599999999999994)"><text x="0" y="34.762499999999996" font-family="Cascadia, Segoe UI Emoji" font-size="36px" fill="#1e1e1e" text-anchor="start" style="white-space: pre;" direction="ltr" dominant-baseline="alphabetic">Format</text></g><g stroke-opacity="0.4" fill-opacity="0.4" transform="translate(716.7495496761303 163.59737425481228) rotate(0 73.57608795166016 21.599999999999994)"><text x="147.1521759033203" y="34.762499999999996" font-family="Cascadia, Segoe UI Emoji" font-size="36px" fill="#1e1e1e" text-anchor="end" style="white-space: pre;" direction="ltr" dominant-baseline="alphabetic">Parquet</text></g><g stroke-linecap="round" transform="translate(170.54352648566646 288.66681339571386) rotate(0 690.7415995468921 158.09606817142827)"><path d="M32 0 C550.33 0, 1068.65 0, 1349.48 0 M32 0 C427.32 0, 822.64 0, 1349.48 0 M1349.48 0 C1370.82 0, 1381.48 10.67, 1381.48 32 M1349.48 0 C1370.82 0, 1381.48 10.67, 1381.48 32 M1381.48 32 C1381.48 108.91, 1381.48 185.82, 1381.48 284.19 M1381.48 32 C1381.48 88.71, 1381.48 145.42, 1381.48 284.19 M1381.48 284.19 C1381.48 305.53, 1370.82 316.19, 1349.48 316.19 M1381.48 284.19 C1381.48 305.53, 1370.82 316.19, 1349.48 316.19 M1349.48 316.19 C941.85 316.19, 534.22 316.19, 32 316.19 M1349.48 316.19 C986.73 316.19, 623.99 316.19, 32 316.19 M32 316.19 C10.67 316.19, 0 305.53, 0 284.19 M32 316.19 C10.67 316.19, 0 305.53, 0 284.19 M0 284.19 C0 191.15, 0 98.1, 0 32 M0 284.19 C0 210.96, 0 137.73, 0 32 M0 32 C0 10.67, 10.67 0, 32 0 M0 32 C0 10.67, 10.67 0, 32 0" stroke="#1e1e1e" stroke-width="2" fill="none"></path></g><g stroke-linecap="round" transform="translate(1235.2552367702997 260.48890724325696) rotate(0 141.5 38)"><path d="M19 0 C94.79 0, 170.58 0, 264 0 C276.67 0, 283 6.33, 283 19 C283 33.06, 283 47.12, 283 57 C283 69.67, 276.67 76, 264 76 C182.04 76, 100.09 76, 19 76 C6.33 76, 0 69.67, 0 57 C0 42.64, 0 28.28, 0 19 C0 6.33, 6.33 0, 19 0" stroke="none" stroke-width="0" fill="#ffffff"></path><path d="M19 0 C86.59 0, 154.18 0, 264 0 M19 0 C69.05 0, 119.1 0, 264 0 M264 0 C276.67 0, 283 6.33, 283 19 M264 0 C276.67 0, 283 6.33, 283 19 M283 19 C283 33.22, 283 47.45, 283 57 M283 19 C283 26.88, 283 34.76, 283 57 M283 57 C283 69.67, 276.67 76, 264 76 M283 57 C283 69.67, 276.67 76, 264 76 M264 76 C201.15 76, 138.3 76, 19 76 M264 76 C195.42 76, 126.83 76, 19 76 M19 76 C6.33 76, 0 69.67, 0 57 M19 76 C6.33 76, 0 69.67, 0 57 M0 57 C0 48.89, 0 40.77, 0 19 M0 57 C0 41.95, 0 26.9, 0 19 M0 19 C0 6.33, 6.33 0, 19 0 M0 19 C0 6.33, 6.33 0, 19 0" stroke="#1e1e1e" stroke-width="2" fill="none"></path></g><g transform="translate(1301.7650949789518 272.74450754532876) rotate(0 63.065216064453125 21.599999999999994)"><text x="0" y="34.762499999999996" font-family="Cascadia, Segoe UI Emoji" font-size="36px" fill="#1e1e1e" text-anchor="start" style="white-space: pre;" direction="ltr" dominant-baseline="alphabetic">Schema</text></g><g transform="translate(772.6592874091052 546.9321087052017) rotate(0 63.065216064453125 21.600000000000023)"><text x="126.13043212890625" y="34.762499999999996" font-family="Cascadia, Segoe UI Emoji" font-size="36px" fill="#1e1e1e" text-anchor="end" style="white-space: pre;" direction="ltr" dominant-baseline="alphabetic">Fields</text></g><g stroke-linecap="round"><g transform="translate(752.2601449120548 548.6765084031297) rotate(0 -172.69557009487812 -33.143594260633165)"><path d="M0 0 C-87.41 -16.78, -174.82 -33.55, -345.39 -66.29 M0 0 C-81.29 -15.6, -162.59 -31.2, -345.39 -66.29" stroke="#1e1e1e" stroke-width="2" fill="none"></path></g></g><mask></mask><g stroke-linecap="round"><g transform="translate(785.4037391726879 531.2325114238492) rotate(0 -87.21998489640305 -25.29379561995694)"><path d="M0 0 C-51.11 -14.82, -102.22 -29.64, -174.44 -50.59 M0 0 C-54.72 -15.87, -109.45 -31.74, -174.44 -50.59" stroke="#1e1e1e" stroke-width="2" fill="none"></path></g></g><mask></mask><g stroke-linecap="round"><g transform="translate(827.2693319229611 534.7213108197052) rotate(0 -4.36099924482005 -24.421595770992838)"><path d="M0 0 C-2.61 -14.63, -5.23 -29.26, -8.72 -48.84 M0 0 C-2.05 -11.5, -4.11 -23, -8.72 -48.84" stroke="#1e1e1e" stroke-width="2" fill="none"></path></g></g><mask></mask><g stroke-linecap="round"><g transform="translate(886.5789216525154 525.9993123300649) rotate(0 8.721998489640328 -22.677196073064806)"><path d="M0 0 C6.57 -17.09, 13.15 -34.18, 17.44 -45.35 M0 0 C4.71 -12.26, 9.43 -24.52, 17.44 -45.35" stroke="#1e1e1e" stroke-width="2" fill="none"></path></g></g><mask></mask><g stroke-linecap="round"><g transform="translate(897.0453198400837 545.1877090072737) rotate(0 108.15278127153965 -29.654794864777045)"><path d="M0 0 C66.04 -18.11, 132.08 -36.22, 216.31 -59.31 M0 0 C66.39 -18.2, 132.77 -36.4, 216.31 -59.31" stroke="#1e1e1e" stroke-width="2" fill="none"></path></g></g><mask></mask><g stroke-linecap="round"><g transform="translate(919.7225159131485 560.8873062886262) rotate(0 222.41096148582778 -37.50459350545333)"><path d="M0 0 C177.23 -29.89, 354.47 -59.77, 444.82 -75.01 M0 0 C125.24 -21.12, 250.48 -42.24, 444.82 -75.01" stroke="#1e1e1e" stroke-width="2" fill="none"></path></g></g><mask></mask><g stroke-linecap="round" transform="translate(175.7767255794506 655.8629498095709) rotate(0 690.7415995468921 226.1276563906227)"><path d="M32 0 C400.05 0, 768.1 0, 1349.48 0 M32 0 C481.89 0, 931.79 0, 1349.48 0 M1349.48 0 C1370.82 0, 1381.48 10.67, 1381.48 32 M1349.48 0 C1370.82 0, 1381.48 10.67, 1381.48 32 M1381.48 32 C1381.48 163.28, 1381.48 294.57, 1381.48 420.26 M1381.48 32 C1381.48 132.83, 1381.48 233.65, 1381.48 420.26 M1381.48 420.26 C1381.48 441.59, 1370.82 452.26, 1349.48 452.26 M1381.48 420.26 C1381.48 441.59, 1370.82 452.26, 1349.48 452.26 M1349.48 452.26 C908.11 452.26, 466.74 452.26, 32 452.26 M1349.48 452.26 C1076.03 452.26, 802.57 452.26, 32 452.26 M32 452.26 C10.67 452.26, 0 441.59, 0 420.26 M32 452.26 C10.67 452.26, 0 441.59, 0 420.26 M0 420.26 C0 281.54, 0 142.83, 0 32 M0 420.26 C0 306.58, 0 192.91, 0 32 M0 32 C0 10.67, 10.67 0, 32 0 M0 32 C0 10.67, 10.67 0, 32 0" stroke="#1e1e1e" stroke-width="2" fill="none"></path></g><g stroke-linecap="round" transform="translate(1240.4884358640838 627.685043657114) rotate(0 141.5 38)"><path d="M19 0 C78.85 0, 138.69 0, 264 0 C276.67 0, 283 6.33, 283 19 C283 28.27, 283 37.55, 283 57 C283 69.67, 276.67 76, 264 76 C178.12 76, 92.25 76, 19 76 C6.33 76, 0 69.67, 0 57 C0 49.29, 0 41.58, 0 19 C0 6.33, 6.33 0, 19 0" stroke="none" stroke-width="0" fill="#ffffff"></path><path d="M19 0 C80.87 0, 142.73 0, 264 0 M19 0 C102.23 0, 185.47 0, 264 0 M264 0 C276.67 0, 283 6.33, 283 19 M264 0 C276.67 0, 283 6.33, 283 19 M283 19 C283 33.7, 283 48.39, 283 57 M283 19 C283 27.24, 283 35.48, 283 57 M283 57 C283 69.67, 276.67 76, 264 76 M283 57 C283 69.67, 276.67 76, 264 76 M264 76 C187.96 76, 111.93 76, 19 76 M264 76 C184.14 76, 104.29 76, 19 76 M19 76 C6.33 76, 0 69.67, 0 57 M19 76 C6.33 76, 0 69.67, 0 57 M0 57 C0 45.64, 0 34.28, 0 19 M0 57 C0 47.6, 0 38.2, 0 19 M0 19 C0 6.33, 6.33 0, 19 0 M0 19 C0 6.33, 6.33 0, 19 0" stroke="#1e1e1e" stroke-width="2" fill="none"></path></g><g transform="translate(1306.998294072736 639.9406439591858) rotate(0 52.55434799194336 21.600000000000023)"><text x="0" y="34.762499999999996" font-family="Cascadia, Segoe UI Emoji" font-size="36px" fill="#1e1e1e" text-anchor="start" style="white-space: pre;" direction="ltr" dominant-baseline="alphabetic">Files</text></g><g stroke-opacity="0.4" fill-opacity="0.4" transform="translate(473.8279408887238 749.0542707951734) rotate(0 394.4347839355469 16.80000000000001)"><text x="788.8695678710938" y="27.0375" font-family="Cascadia, Segoe UI Emoji" font-size="28px" fill="#1e1e1e" text-anchor="end" style="white-space: pre;" direction="ltr" dominant-baseline="alphabetic">./data/pums/year=2005/location=ak/part-0.parquet</text></g><g stroke-linecap="round" transform="translate(217.60163749710375 738.8160754772885) rotate(0 650.6610873271668 27.038195317885027)"><path d="M13.52 0 C269.89 0, 526.27 0, 1287.8 0 M13.52 0 C313.29 0, 613.07 0, 1287.8 0 M1287.8 0 C1296.82 0, 1301.32 4.51, 1301.32 13.52 M1287.8 0 C1296.82 0, 1301.32 4.51, 1301.32 13.52 M1301.32 13.52 C1301.32 19.18, 1301.32 24.84, 1301.32 40.56 M1301.32 13.52 C1301.32 22.81, 1301.32 32.1, 1301.32 40.56 M1301.32 40.56 C1301.32 49.57, 1296.82 54.08, 1287.8 54.08 M1301.32 40.56 C1301.32 49.57, 1296.82 54.08, 1287.8 54.08 M1287.8 54.08 C878.28 54.08, 468.76 54.08, 13.52 54.08 M1287.8 54.08 C849.31 54.08, 410.82 54.08, 13.52 54.08 M13.52 54.08 C4.51 54.08, 0 49.57, 0 40.56 M13.52 54.08 C4.51 54.08, 0 49.57, 0 40.56 M0 40.56 C0 30.68, 0 20.81, 0 13.52 M0 40.56 C0 31.53, 0 22.5, 0 13.52 M0 13.52 C0 4.51, 4.51 0, 13.52 0 M0 13.52 C0 4.51, 4.51 0, 13.52 0" stroke="#1e1e1e" stroke-width="2" fill="none"></path></g><g stroke-opacity="0.4" fill-opacity="0.4" transform="translate(473.8279408887238 817.9580588633316) rotate(0 394.4347839355469 16.80000000000001)"><text x="788.8695678710938" y="27.0375" font-family="Cascadia, Segoe UI Emoji" font-size="28px" fill="#1e1e1e" text-anchor="end" style="white-space: pre;" direction="ltr" dominant-baseline="alphabetic">./data/pums/year=2005/location=al/part-0.parquet</text></g><g stroke-linecap="round" transform="translate(217.60163749710375 807.7198635454467) rotate(0 650.6610873271668 27.038195317885027)"><path d="M13.52 0 C357.41 0, 701.3 0, 1287.8 0 M13.52 0 C296.08 0, 578.63 0, 1287.8 0 M1287.8 0 C1296.82 0, 1301.32 4.51, 1301.32 13.52 M1287.8 0 C1296.82 0, 1301.32 4.51, 1301.32 13.52 M1301.32 13.52 C1301.32 22.62, 1301.32 31.72, 1301.32 40.56 M1301.32 13.52 C1301.32 22.53, 1301.32 31.55, 1301.32 40.56 M1301.32 40.56 C1301.32 49.57, 1296.82 54.08, 1287.8 54.08 M1301.32 40.56 C1301.32 49.57, 1296.82 54.08, 1287.8 54.08 M1287.8 54.08 C935.47 54.08, 583.15 54.08, 13.52 54.08 M1287.8 54.08 C1016.38 54.08, 744.96 54.08, 13.52 54.08 M13.52 54.08 C4.51 54.08, 0 49.57, 0 40.56 M13.52 54.08 C4.51 54.08, 0 49.57, 0 40.56 M0 40.56 C0 31.94, 0 23.32, 0 13.52 M0 40.56 C0 33.05, 0 25.53, 0 13.52 M0 13.52 C0 4.51, 4.51 0, 13.52 0 M0 13.52 C0 4.51, 4.51 0, 13.52 0" stroke="#1e1e1e" stroke-width="2" fill="none"></path></g><g stroke-opacity="0.4" fill-opacity="0.4" transform="translate(473.8279408887238 887.7340467804545) rotate(0 394.4347839355469 16.799999999999955)"><text x="788.8695678710938" y="27.0375" font-family="Cascadia, Segoe UI Emoji" font-size="28px" fill="#1e1e1e" text-anchor="end" style="white-space: pre;" direction="ltr" dominant-baseline="alphabetic">./data/pums/year=2005/location=ar/part-0.parquet</text></g><g stroke-linecap="round" transform="translate(217.60163749710375 877.4958514625694) rotate(0 650.6610873271668 27.038195317885084)"><path d="M13.52 0 C351.96 0, 690.4 0, 1287.8 0 M13.52 0 C502.55 0, 991.57 0, 1287.8 0 M1287.8 0 C1296.82 0, 1301.32 4.51, 1301.32 13.52 M1287.8 0 C1296.82 0, 1301.32 4.51, 1301.32 13.52 M1301.32 13.52 C1301.32 22.33, 1301.32 31.13, 1301.32 40.56 M1301.32 13.52 C1301.32 21.89, 1301.32 30.26, 1301.32 40.56 M1301.32 40.56 C1301.32 49.57, 1296.82 54.08, 1287.8 54.08 M1301.32 40.56 C1301.32 49.57, 1296.82 54.08, 1287.8 54.08 M1287.8 54.08 C794.87 54.08, 301.95 54.08, 13.52 54.08 M1287.8 54.08 C1014.29 54.08, 740.78 54.08, 13.52 54.08 M13.52 54.08 C4.51 54.08, 0 49.57, 0 40.56 M13.52 54.08 C4.51 54.08, 0 49.57, 0 40.56 M0 40.56 C0 34.63, 0 28.7, 0 13.52 M0 40.56 C0 30.5, 0 20.45, 0 13.52 M0 13.52 C0 4.51, 4.51 0, 13.52 0 M0 13.52 C0 4.51, 4.51 0, 13.52 0" stroke="#1e1e1e" stroke-width="2" fill="none"></path></g><g stroke-opacity="0.4" fill-opacity="0.4" transform="translate(473.8279408887238 955.7656349996489) rotate(0 394.4347839355469 16.799999999999955)"><text x="788.8695678710938" y="27.0375" font-family="Cascadia, Segoe UI Emoji" font-size="28px" fill="#1e1e1e" text-anchor="end" style="white-space: pre;" direction="ltr" dominant-baseline="alphabetic">./data/pums/year=2005/location=az/part-0.parquet</text></g><g stroke-linecap="round" transform="translate(217.60163749710375 945.5274396817638) rotate(0 650.6610873271668 27.038195317885084)"><path d="M13.52 0 C335.82 0, 658.12 0, 1287.8 0 M13.52 0 C331.28 0, 649.05 0, 1287.8 0 M1287.8 0 C1296.82 0, 1301.32 4.51, 1301.32 13.52 M1287.8 0 C1296.82 0, 1301.32 4.51, 1301.32 13.52 M1301.32 13.52 C1301.32 20.35, 1301.32 27.19, 1301.32 40.56 M1301.32 13.52 C1301.32 24.17, 1301.32 34.82, 1301.32 40.56 M1301.32 40.56 C1301.32 49.57, 1296.82 54.08, 1287.8 54.08 M1301.32 40.56 C1301.32 49.57, 1296.82 54.08, 1287.8 54.08 M1287.8 54.08 C1011.06 54.08, 734.31 54.08, 13.52 54.08 M1287.8 54.08 C867.13 54.08, 446.45 54.08, 13.52 54.08 M13.52 54.08 C4.51 54.08, 0 49.57, 0 40.56 M13.52 54.08 C4.51 54.08, 0 49.57, 0 40.56 M0 40.56 C0 30.27, 0 19.98, 0 13.52 M0 40.56 C0 34.56, 0 28.57, 0 13.52 M0 13.52 C0 4.51, 4.51 0, 13.52 0 M0 13.52 C0 4.51, 4.51 0, 13.52 0" stroke="#1e1e1e" stroke-width="2" fill="none"></path></g><g stroke-opacity="0.4" fill-opacity="0.4" transform="translate(846.2271503751911 1020.3084238229869) rotate(0 24.65217399597168 16.799999999999955)"><text x="49.30434799194336" y="27.0375" font-family="Cascadia, Segoe UI Emoji" font-size="28px" fill="#1e1e1e" text-anchor="end" style="white-space: pre;" direction="ltr" dominant-baseline="alphabetic">...</text></g><g stroke-linecap="round" transform="translate(217.60163749710375 1010.0702285051018) rotate(0 650.6610873271668 27.038195317885084)"><path d="M13.52 0 C434.2 0, 854.87 0, 1287.8 0 M13.52 0 C275.5 0, 537.48 0, 1287.8 0 M1287.8 0 C1296.82 0, 1301.32 4.51, 1301.32 13.52 M1287.8 0 C1296.82 0, 1301.32 4.51, 1301.32 13.52 M1301.32 13.52 C1301.32 19.52, 1301.32 25.51, 1301.32 40.56 M1301.32 13.52 C1301.32 24.33, 1301.32 35.14, 1301.32 40.56 M1301.32 40.56 C1301.32 49.57, 1296.82 54.08, 1287.8 54.08 M1301.32 40.56 C1301.32 49.57, 1296.82 54.08, 1287.8 54.08 M1287.8 54.08 C979.14 54.08, 670.48 54.08, 13.52 54.08 M1287.8 54.08 C783.06 54.08, 278.32 54.08, 13.52 54.08 M13.52 54.08 C4.51 54.08, 0 49.57, 0 40.56 M13.52 54.08 C4.51 54.08, 0 49.57, 0 40.56 M0 40.56 C0 33.22, 0 25.88, 0 13.52 M0 40.56 C0 35.1, 0 29.64, 0 13.52 M0 13.52 C0 4.51, 4.51 0, 13.52 0 M0 13.52 C0 4.51, 4.51 0, 13.52 0" stroke="#1e1e1e" stroke-width="2" fill="none"></path></g></svg>