<svg version="1.1" xmlns="http://www.w3.org/2000/svg" viewBox="0 0 2173.771543711045 1504.9156803467838" width="6521.314631133135" height="4514.747041040351">
  <!-- svg-source:excalidraw -->
  
  <defs>
    <style class="style-fonts">
      @font-face {
        font-family: "Virgil";
        src: url("https://excalidraw.com/Virgil.woff2");
      }
      @font-face {
        font-family: "Cascadia";
        src: url("https://excalidraw.com/Cascadia.woff2");
      }
      @font-face {
        font-family: "Assistant";
        src: url("https://excalidraw.com/Assistant-Regular.woff2");
      }
    </style>
    
  </defs>
  <g stroke-linecap="round" transform="translate(1154.3682626728905 107.52877482454642) rotate(0 139.66792521930392 196.56793208259757)"><path d="M0 0 C0 0, 0 0, 0 0 M0 0 C0 0, 0 0, 0 0 M0.27 24.08 C6.85 16.51, 13.43 8.94, 21.26 -0.07 M0.27 24.08 C5.04 18.59, 9.82 13.09, 21.26 -0.07 M-0.12 48.92 C11 36.13, 22.12 23.33, 42.52 -0.14 M-0.12 48.92 C10.76 36.4, 21.64 23.89, 42.52 -0.14 M0.14 73 C16.95 53.67, 33.75 34.34, 63.78 -0.21 M0.14 73 C24.36 45.14, 48.58 17.28, 63.78 -0.21 M-0.25 97.84 C24.32 69.57, 48.89 41.31, 85.04 -0.28 M-0.25 97.84 C20.06 74.48, 40.37 51.12, 85.04 -0.28 M0.02 121.92 C33.16 83.79, 66.31 45.66, 106.3 -0.34 M0.02 121.92 C23.72 94.65, 47.42 67.38, 106.3 -0.34 M0.29 146 C48.2 90.88, 96.11 35.76, 126.91 0.34 M0.29 146 C30.87 110.82, 61.45 75.64, 126.91 0.34 M-0.1 170.84 C36.19 129.08, 72.49 87.33, 148.17 0.27 M-0.1 170.84 C38.55 126.37, 77.21 81.89, 148.17 0.27 M0.16 194.92 C39.46 149.71, 78.76 104.5, 169.43 0.2 M0.16 194.92 C43.96 144.54, 87.75 94.16, 169.43 0.2 M-0.23 219.75 C52.42 159.19, 105.06 98.63, 190.69 0.13 M-0.23 219.75 C71.28 137.49, 142.79 55.23, 190.69 0.13 M0.04 243.84 C79.46 152.48, 158.87 61.12, 211.95 0.06 M0.04 243.84 C54.74 180.91, 109.44 117.99, 211.95 0.06 M0.3 267.92 C56.8 202.92, 113.3 137.93, 233.21 0 M0.3 267.92 C51.63 208.88, 102.95 149.84, 233.21 0 M-0.08 292.75 C90.68 188.34, 181.45 83.92, 254.47 -0.07 M-0.08 292.75 C97.42 180.58, 194.93 68.41, 254.47 -0.07 M0.18 316.84 C57.56 250.84, 114.93 184.83, 275.73 -0.14 M0.18 316.84 C63.28 244.25, 126.38 171.66, 275.73 -0.14 M-0.21 341.67 C98.45 228.18, 197.11 114.69, 279.27 20.17 M-0.21 341.67 C98.13 228.54, 196.48 115.41, 279.27 20.17 M0.06 365.75 C72.87 281.99, 145.68 198.24, 279.54 44.25 M0.06 365.75 C57.72 299.42, 115.39 233.08, 279.54 44.25 M0.32 389.84 C101.93 272.95, 203.54 156.06, 279.15 69.08 M0.32 389.84 C72.25 307.1, 144.17 224.36, 279.15 69.08 M18.3 393.54 C99.87 299.71, 181.44 205.87, 279.42 93.17 M18.3 393.54 C105.31 293.45, 192.32 193.36, 279.42 93.17 M39.56 393.47 C91.48 333.75, 143.4 274.02, 279.68 117.25 M39.56 393.47 C128.32 291.37, 217.07 189.28, 279.68 117.25 M60.82 393.4 C126.74 317.58, 192.66 241.75, 279.29 142.08 M60.82 393.4 C140.68 301.54, 220.53 209.68, 279.29 142.08 M82.08 393.33 C152.94 311.83, 223.79 230.32, 279.56 166.17 M82.08 393.33 C147.3 318.31, 212.52 243.28, 279.56 166.17 M103.34 393.26 C172.16 314.1, 240.98 234.94, 279.17 191 M103.34 393.26 C144.51 345.91, 185.67 298.57, 279.17 191 M124.61 393.2 C166.03 345.54, 207.45 297.89, 279.44 215.08 M124.61 393.2 C180.07 329.39, 235.54 265.58, 279.44 215.08 M145.87 393.13 C195.29 336.27, 244.72 279.41, 279.7 239.17 M145.87 393.13 C178.63 355.44, 211.39 317.74, 279.7 239.17 M167.13 393.06 C194.37 361.72, 221.61 330.38, 279.31 264 M167.13 393.06 C194.82 361.19, 222.52 329.33, 279.31 264 M188.39 392.99 C211.03 366.94, 233.68 340.88, 279.58 288.08 M188.39 392.99 C213.78 363.77, 239.18 334.55, 279.58 288.08 M209.65 392.92 C224.26 376.11, 238.87 359.3, 279.19 312.92 M209.65 392.92 C235 363.75, 260.36 334.58, 279.19 312.92 M230.91 392.85 C243.84 377.97, 256.77 363.09, 279.45 337 M230.91 392.85 C249.89 371.01, 268.88 349.17, 279.45 337 M251.51 393.54 C260.53 383.16, 269.55 372.79, 279.72 361.08 M251.51 393.54 C258.7 385.27, 265.88 377, 279.72 361.08 M272.77 393.47 C274.65 391.31, 276.53 389.14, 279.33 385.92 M272.77 393.47 C274.17 391.86, 275.57 390.25, 279.33 385.92" stroke="#e9ecef" stroke-width="2" fill="none"></path><path d="M0 0 C91.69 0, 183.39 0, 279.34 0 M0 0 C89.5 0, 178.99 0, 279.34 0 M279.34 0 C279.34 109.03, 279.34 218.05, 279.34 393.14 M279.34 0 C279.34 94.81, 279.34 189.61, 279.34 393.14 M279.34 393.14 C190.29 393.14, 101.25 393.14, 0 393.14 M279.34 393.14 C208.9 393.14, 138.47 393.14, 0 393.14 M0 393.14 C0 276.31, 0 159.49, 0 0 M0 393.14 C0 301.54, 0 209.94, 0 0" stroke="#1e1e1e" stroke-width="4" fill="none"></path></g><g stroke-linecap="round" transform="translate(1433.5873421666731 107.52877482454642) rotate(0 139.6679252193038 196.60318574041622)"><path d="M0 0 L279.34 0 L279.34 393.21 L0 393.21" stroke="none" stroke-width="0" fill="#e9ecef"></path><path d="M0 0 C56.85 0, 113.69 0, 279.34 0 M0 0 C81.65 0, 163.3 0, 279.34 0 M279.34 0 C279.34 135.31, 279.34 270.63, 279.34 393.21 M279.34 0 C279.34 109.65, 279.34 219.3, 279.34 393.21 M279.34 393.21 C198.72 393.21, 118.1 393.21, 0 393.21 M279.34 393.21 C203.06 393.21, 126.78 393.21, 0 393.21 M0 393.21 C0 251.18, 0 109.16, 0 0 M0 393.21 C0 235.97, 0 78.73, 0 0" stroke="#1e1e1e" stroke-width="4" fill="none"></path></g><g stroke-linecap="round" transform="translate(1714.3010516308702 107.52877482454642) rotate(0 224.73524604008742 196.60318574041614)"><path d="M0 0 C0 0, 0 0, 0 0 M0 0 C0 0, 0 0, 0 0 M0.27 24.08 C5.14 18.47, 10.02 12.86, 21.26 -0.07 M0.27 24.08 C8.27 14.88, 16.27 5.67, 21.26 -0.07 M-0.12 48.92 C12.83 34.01, 25.79 19.11, 42.52 -0.14 M-0.12 48.92 C15.94 30.44, 32 11.96, 42.52 -0.14 M0.14 73 C19.15 51.13, 38.16 29.26, 63.78 -0.21 M0.14 73 C17.61 52.91, 35.07 32.82, 63.78 -0.21 M-0.25 97.84 C24.32 69.58, 48.88 41.33, 85.04 -0.28 M-0.25 97.84 C25.56 68.15, 51.36 38.47, 85.04 -0.28 M0.02 121.92 C37.95 78.28, 75.88 34.65, 106.3 -0.34 M0.02 121.92 C26.6 91.34, 53.17 60.77, 106.3 -0.34 M0.29 146 C32.54 108.9, 64.79 71.8, 126.91 0.34 M0.29 146 C27.75 114.41, 55.21 82.81, 126.91 0.34 M-0.1 170.84 C36.18 129.09, 72.47 87.35, 148.17 0.27 M-0.1 170.84 C53.86 108.76, 107.82 46.69, 148.17 0.27 M0.16 194.92 C60.15 125.91, 120.13 56.91, 169.43 0.2 M0.16 194.92 C44.68 143.7, 89.2 92.49, 169.43 0.2 M-0.23 219.75 C42.75 170.32, 85.73 120.88, 190.69 0.13 M-0.23 219.75 C46.91 165.53, 94.04 111.31, 190.69 0.13 M0.04 243.84 C76.84 155.49, 153.64 67.14, 211.95 0.06 M0.04 243.84 C76.17 156.26, 152.3 68.67, 211.95 0.06 M0.3 267.92 C90.18 164.52, 180.06 61.13, 233.21 0 M0.3 267.92 C71.29 186.26, 142.28 104.59, 233.21 0 M-0.08 292.75 C70.99 210.99, 142.06 129.23, 254.47 -0.07 M-0.08 292.75 C101.49 175.91, 203.06 59.06, 254.47 -0.07 M0.18 316.84 C66.32 240.75, 132.46 164.67, 275.73 -0.14 M0.18 316.84 C87.94 215.88, 175.7 114.92, 275.73 -0.14 M-0.21 341.67 C97.9 228.81, 196.02 115.94, 296.99 -0.21 M-0.21 341.67 C74.28 255.98, 148.78 170.29, 296.99 -0.21 M0.06 365.75 C103.58 246.67, 207.1 127.58, 318.25 -0.28 M0.06 365.75 C77.65 276.49, 155.25 187.22, 318.25 -0.28 M0.32 389.84 C124.32 247.19, 248.32 104.55, 339.51 -0.35 M0.32 389.84 C121.58 250.35, 242.83 110.86, 339.51 -0.35 M18.3 393.54 C88.3 313.02, 158.29 232.51, 360.11 0.34 M18.3 393.54 C90.69 310.27, 163.07 227.01, 360.11 0.34 M39.56 393.47 C128.76 290.87, 217.95 188.26, 381.37 0.27 M39.56 393.47 C155.06 260.61, 270.56 127.74, 381.37 0.27 M60.82 393.4 C151.81 288.74, 242.79 184.08, 402.63 0.2 M60.82 393.4 C172.95 264.42, 285.08 135.43, 402.63 0.2 M82.08 393.33 C190.31 268.84, 298.53 144.34, 423.89 0.13 M82.08 393.33 C213.77 241.85, 345.45 90.37, 423.89 0.13 M103.34 393.26 C213.57 266.47, 323.79 139.67, 445.15 0.06 M103.34 393.26 C196.85 285.7, 290.35 178.14, 445.15 0.06 M124.61 393.2 C208.56 296.62, 292.51 200.04, 450.01 18.86 M124.61 393.2 C211.78 292.91, 298.96 192.63, 450.01 18.86 M145.87 393.13 C210.26 319.05, 274.65 244.98, 450.28 42.94 M145.87 393.13 C238.46 286.61, 331.05 180.09, 450.28 42.94 M167.13 393.06 C233.7 316.47, 300.28 239.88, 449.89 67.78 M167.13 393.06 C260.21 285.97, 353.3 178.89, 449.89 67.78 M188.39 392.99 C292.11 273.67, 395.83 154.35, 450.15 91.86 M188.39 392.99 C254.02 317.48, 319.66 241.97, 450.15 91.86 M209.65 392.92 C263.53 330.93, 317.41 268.95, 449.76 116.7 M209.65 392.92 C278.68 313.5, 347.72 234.08, 449.76 116.7 M230.25 393.61 C310.36 301.45, 390.47 209.29, 450.03 140.78 M230.25 393.61 C300.39 312.92, 370.54 232.23, 450.03 140.78 M251.51 393.54 C296.28 342.03, 341.05 290.53, 450.3 164.86 M251.51 393.54 C298.47 339.52, 345.42 285.5, 450.3 164.86 M272.77 393.47 C313.37 346.76, 353.98 300.05, 449.91 189.7 M272.77 393.47 C324.18 334.33, 375.59 275.19, 449.91 189.7 M294.03 393.4 C335.14 346.1, 376.25 298.81, 450.17 213.78 M294.03 393.4 C332.07 349.63, 370.12 305.87, 450.17 213.78 M315.29 393.33 C359.44 342.54, 403.59 291.75, 449.78 238.61 M315.29 393.33 C358.31 343.84, 401.32 294.36, 449.78 238.61 M336.55 393.26 C380.7 342.47, 424.86 291.67, 450.05 262.7 M336.55 393.26 C376.63 347.15, 416.72 301.04, 450.05 262.7 M357.81 393.19 C378.58 369.3, 399.35 345.4, 450.32 286.78 M357.81 393.19 C389.16 357.13, 420.5 321.07, 450.32 286.78 M379.07 393.12 C398.75 370.48, 418.44 347.84, 449.93 311.61 M379.07 393.12 C406.22 361.89, 433.37 330.66, 449.93 311.61 M400.33 393.05 C415.58 375.51, 430.84 357.96, 450.19 335.7 M400.33 393.05 C412.95 378.53, 425.57 364.01, 450.19 335.7 M421.59 392.98 C428.08 385.52, 434.57 378.06, 449.8 360.53 M421.59 392.98 C430.81 382.37, 440.04 371.77, 449.8 360.53 M442.85 392.92 C445.63 389.72, 448.41 386.52, 450.07 384.61 M442.85 392.92 C445.33 390.06, 447.81 387.21, 450.07 384.61 M0.03 393.23 C0.03 393.23, 0.03 393.23, 0.03 393.23 M0.03 393.23 C0.03 393.23, 0.03 393.23, 0.03 393.23 M24.11 392.96 C16.85 386.65, 9.59 380.34, -0.04 371.97 M24.11 392.96 C17.69 387.38, 11.26 381.8, -0.04 371.97 M48.94 393.35 C36.62 382.64, 24.29 371.92, -0.11 350.71 M48.94 393.35 C38.92 384.64, 28.89 375.92, -0.11 350.71 M73.03 393.09 C49.99 373.06, 26.96 353.04, -0.18 329.45 M73.03 393.09 C54.64 377.11, 36.26 361.13, -0.18 329.45 M97.86 393.48 C73.71 372.48, 49.56 351.49, -0.25 308.19 M97.86 393.48 C58.64 359.38, 19.42 325.29, -0.25 308.19 M121.94 393.21 C83.38 359.69, 44.82 326.17, -0.32 286.93 M121.94 393.21 C84.65 360.79, 47.37 328.38, -0.32 286.93 M146.02 392.94 C94.17 347.87, 42.32 302.79, 0.37 266.32 M146.02 392.94 C112.18 363.52, 78.33 334.09, 0.37 266.32 M170.86 393.33 C134.07 361.35, 97.28 329.37, 0.3 245.06 M170.86 393.33 C135.31 362.43, 99.76 331.52, 0.3 245.06 M194.94 393.07 C154.79 358.16, 114.63 323.25, 0.23 223.8 M194.94 393.07 C122.78 330.33, 50.61 267.6, 0.23 223.8 M219.78 393.46 C142.15 325.98, 64.53 258.5, 0.16 202.54 M219.78 393.46 C150.09 332.88, 80.41 272.3, 0.16 202.54 M243.86 393.19 C183.59 340.8, 123.32 288.4, 0.09 181.28 M243.86 393.19 C181.01 338.55, 118.16 283.92, 0.09 181.28 M267.94 392.92 C189.83 325.02, 111.71 257.11, 0.02 160.02 M267.94 392.92 C170.84 308.51, 73.73 224.1, 0.02 160.02 M292.78 393.31 C188.99 303.09, 85.21 212.87, -0.05 138.76 M292.78 393.31 C201.31 313.8, 109.84 234.29, -0.05 138.76 M316.86 393.05 C247.79 333, 178.71 272.96, -0.12 117.5 M316.86 393.05 C237.71 324.24, 158.55 255.43, -0.12 117.5 M341.7 393.44 C263.69 325.63, 185.68 257.82, -0.19 96.24 M341.7 393.44 C229.7 296.08, 117.71 198.72, -0.19 96.24 M365.78 393.17 C239.35 283.27, 112.93 173.37, -0.25 74.98 M365.78 393.17 C270.62 310.45, 175.46 227.73, -0.25 74.98 M389.86 392.9 C236.18 259.31, 82.51 125.72, -0.32 53.72 M389.86 392.9 C283.79 300.7, 177.72 208.49, -0.32 53.72 M414.7 393.29 C285.47 280.96, 156.24 168.62, 0.36 33.12 M414.7 393.29 C311.49 303.58, 208.28 213.86, 0.36 33.12 M438.78 393.03 C350.25 316.07, 261.73 239.12, 0.29 11.86 M438.78 393.03 C312.26 283.05, 185.75 173.07, 0.29 11.86 M449.28 380.95 C282.52 235.99, 115.76 91.03, 10.79 -0.22 M449.28 380.95 C340.57 286.45, 231.86 191.95, 10.79 -0.22 M449.21 359.69 C354.88 277.7, 260.56 195.7, 34.87 -0.48 M449.21 359.69 C326.58 253.09, 203.95 146.49, 34.87 -0.48 M449.89 339.09 C356.83 258.19, 263.76 177.29, 59.71 -0.09 M449.89 339.09 C347.54 250.12, 245.19 161.14, 59.71 -0.09 M449.82 317.83 C350.43 231.43, 251.04 145.03, 83.79 -0.36 M449.82 317.83 C307.97 194.52, 166.12 71.21, 83.79 -0.36 M449.75 296.57 C313.5 178.13, 177.25 59.68, 108.63 0.03 M449.75 296.57 C356.58 215.57, 263.4 134.58, 108.63 0.03 M449.69 275.31 C335.91 176.41, 222.14 77.51, 132.71 -0.24 M449.69 275.31 C376.28 211.5, 302.87 147.69, 132.71 -0.24 M449.62 254.05 C390.79 202.91, 331.96 151.77, 156.79 -0.5 M449.62 254.05 C380.44 193.91, 311.26 133.77, 156.79 -0.5 M449.55 232.79 C358.39 153.55, 267.24 74.31, 181.63 -0.11 M449.55 232.79 C376.81 169.56, 304.08 106.33, 181.63 -0.11 M449.48 211.53 C399.3 167.9, 349.11 124.28, 205.71 -0.38 M449.48 211.53 C380.61 151.66, 311.74 91.79, 205.71 -0.38 M449.41 190.27 C385.76 134.94, 322.11 79.61, 230.54 0.01 M449.41 190.27 C378.15 128.32, 306.9 66.38, 230.54 0.01 M449.34 169.01 C409.97 134.78, 370.61 100.56, 254.63 -0.26 M449.34 169.01 C387.46 115.22, 325.59 61.43, 254.63 -0.26 M449.27 147.75 C396.45 101.83, 343.62 55.9, 279.46 0.13 M449.27 147.75 C383.52 90.59, 317.76 33.43, 279.46 0.13 M449.2 126.49 C419.67 100.81, 390.14 75.14, 303.54 -0.13 M449.2 126.49 C416.73 98.26, 384.26 70.03, 303.54 -0.13 M449.89 105.88 C409.98 71.19, 370.07 36.49, 327.63 -0.4 M449.89 105.88 C422.4 81.99, 394.92 58.1, 327.63 -0.4 M449.82 84.62 C425.92 63.85, 402.02 43.07, 352.46 -0.01 M449.82 84.62 C425.11 63.14, 400.4 41.67, 352.46 -0.01 M449.75 63.36 C428.72 45.08, 407.69 26.8, 376.54 -0.28 M449.75 63.36 C421.81 39.07, 393.87 14.78, 376.54 -0.28 M449.68 42.1 C430.69 25.59, 411.69 9.08, 401.38 0.11 M449.68 42.1 C438.03 31.97, 426.38 21.84, 401.38 0.11 M449.61 20.84 C440.7 13.1, 431.79 5.35, 425.46 -0.15 M449.61 20.84 C440.53 12.94, 431.44 5.05, 425.46 -0.15" stroke="#e9ecef" stroke-width="2" fill="none"></path><path d="M0 0 C142.92 0, 285.83 0, 449.47 0 M0 0 C144.21 0, 288.41 0, 449.47 0 M449.47 0 C449.47 97.55, 449.47 195.1, 449.47 393.21 M449.47 0 C449.47 115.31, 449.47 230.62, 449.47 393.21 M449.47 393.21 C356.55 393.21, 263.63 393.21, 0 393.21 M449.47 393.21 C273.44 393.21, 97.41 393.21, 0 393.21 M0 393.21 C0 257.67, 0 122.13, 0 0 M0 393.21 C0 279.42, 0 165.64, 0 0" stroke="#1e1e1e" stroke-width="4" fill="none"></path></g><g stroke-linecap="round" transform="translate(1154.3682626728905 107.52877482454642) rotate(0 504.6425941896712 43.03950061996278)"><path d="M0 0 C373.85 0, 747.7 0, 1009.29 0 M0 0 C241 0, 482 0, 1009.29 0 M1009.29 0 C1009.29 20.18, 1009.29 40.37, 1009.29 86.08 M1009.29 0 C1009.29 22.96, 1009.29 45.91, 1009.29 86.08 M1009.29 86.08 C707.93 86.08, 406.58 86.08, 0 86.08 M1009.29 86.08 C765.03 86.08, 520.78 86.08, 0 86.08 M0 86.08 C0 65.41, 0 44.74, 0 0 M0 86.08 C0 61.41, 0 36.75, 0 0" stroke="#1e1e1e" stroke-width="4" fill="none"></path></g><g transform="translate(1234.0453393058744 123.14980088343646) rotate(0 49.12783555315832 25.109783502968185)"><text x="49.12783555315836" y="40.41105782508943" font-family="Cascadia, Segoe UI Emoji" font-size="41.849639171613646px" fill="#1e1e1e" text-anchor="middle" style="white-space: pre;" direction="ltr" dominant-baseline="alphabetic">year</text></g><g transform="translate(1476.362503869091 123.14980088343646) rotate(0 98.25567110631675 25.109783502968185)"><text x="98.25567110631673" y="40.41105782508943" font-family="Cascadia, Segoe UI Emoji" font-size="41.849639171613646px" fill="#1e1e1e" text-anchor="middle" style="white-space: pre;" direction="ltr" dominant-baseline="alphabetic">location</text></g><g transform="translate(1735.184152440136 123.14980088343646) rotate(0 207.88043212890614 25.109783502968185)"><text x="207.88043212890625" y="40.41105782508943" font-family="Cascadia, Segoe UI Emoji" font-size="41.849639171613646px" fill="#1e1e1e" text-anchor="middle" style="white-space: pre;" direction="ltr" dominant-baseline="alphabetic">mean_commute_time</text></g><g stroke-opacity="0.7" fill-opacity="0.7" transform="translate(1232.443441245996 195.05921828410987) rotate(0 48.91304397583008 150.65870101780914)"><text x="48.91304397583008" y="40.41105782508943" font-family="Cascadia, Segoe UI Emoji" font-size="41.849639171613646px" fill="#1e1e1e" text-anchor="middle" style="white-space: pre;" direction="ltr" dominant-baseline="alphabetic">2005</text><text x="48.91304397583008" y="90.63062483102581" font-family="Cascadia, Segoe UI Emoji" font-size="41.849639171613646px" fill="#1e1e1e" text-anchor="middle" style="white-space: pre;" direction="ltr" dominant-baseline="alphabetic">2006</text><text x="48.91304397583008" y="140.85019183696218" font-family="Cascadia, Segoe UI Emoji" font-size="41.849639171613646px" fill="#1e1e1e" text-anchor="middle" style="white-space: pre;" direction="ltr" dominant-baseline="alphabetic">2007</text><text x="48.91304397583008" y="191.06975884289858" font-family="Cascadia, Segoe UI Emoji" font-size="41.849639171613646px" fill="#1e1e1e" text-anchor="middle" style="white-space: pre;" direction="ltr" dominant-baseline="alphabetic">2005</text><text x="48.91304397583008" y="241.28932584883495" font-family="Cascadia, Segoe UI Emoji" font-size="41.849639171613646px" fill="#1e1e1e" text-anchor="middle" style="white-space: pre;" direction="ltr" dominant-baseline="alphabetic">2006</text><text x="48.91304397583008" y="291.5088928547713" font-family="Cascadia, Segoe UI Emoji" font-size="41.849639171613646px" fill="#1e1e1e" text-anchor="middle" style="white-space: pre;" direction="ltr" dominant-baseline="alphabetic">...</text></g><g stroke-opacity="0.7" fill-opacity="0.7" transform="translate(1538.2040820975724 195.05921828410987) rotate(0 36.684783935546875 150.65870101780914)"><text x="36.684783935546875" y="40.41105782508943" font-family="Cascadia, Segoe UI Emoji" font-size="41.849639171613646px" fill="#1e1e1e" text-anchor="middle" style="white-space: pre;" direction="ltr" dominant-baseline="alphabetic">ny</text><text x="36.684783935546875" y="90.63062483102581" font-family="Cascadia, Segoe UI Emoji" font-size="41.849639171613646px" fill="#1e1e1e" text-anchor="middle" style="white-space: pre;" direction="ltr" dominant-baseline="alphabetic">ny</text><text x="36.684783935546875" y="140.85019183696218" font-family="Cascadia, Segoe UI Emoji" font-size="41.849639171613646px" fill="#1e1e1e" text-anchor="middle" style="white-space: pre;" direction="ltr" dominant-baseline="alphabetic">ny</text><text x="36.684783935546875" y="191.06975884289858" font-family="Cascadia, Segoe UI Emoji" font-size="41.849639171613646px" fill="#1e1e1e" text-anchor="middle" style="white-space: pre;" direction="ltr" dominant-baseline="alphabetic">ca</text><text x="36.684783935546875" y="241.28932584883495" font-family="Cascadia, Segoe UI Emoji" font-size="41.849639171613646px" fill="#1e1e1e" text-anchor="middle" style="white-space: pre;" direction="ltr" dominant-baseline="alphabetic">ca</text><text x="36.684783935546875" y="291.5088928547713" font-family="Cascadia, Segoe UI Emoji" font-size="41.849639171613646px" fill="#1e1e1e" text-anchor="middle" style="white-space: pre;" direction="ltr" dominant-baseline="alphabetic">...</text></g><g stroke-opacity="0.7" fill-opacity="0.7" transform="translate(1857.2202247722942 197.54269160812902) rotate(0 61.14130401611328 150.65870101780914)"><text x="61.14130401611328" y="40.41105782508943" font-family="Cascadia, Segoe UI Emoji" font-size="41.849639171613646px" fill="#1e1e1e" text-anchor="middle" style="white-space: pre;" direction="ltr" dominant-baseline="alphabetic">12.43</text><text x="61.14130401611328" y="90.63062483102581" font-family="Cascadia, Segoe UI Emoji" font-size="41.849639171613646px" fill="#1e1e1e" text-anchor="middle" style="white-space: pre;" direction="ltr" dominant-baseline="alphabetic">13.83</text><text x="61.14130401611328" y="140.85019183696218" font-family="Cascadia, Segoe UI Emoji" font-size="41.849639171613646px" fill="#1e1e1e" text-anchor="middle" style="white-space: pre;" direction="ltr" dominant-baseline="alphabetic">12.09</text><text x="61.14130401611328" y="191.06975884289858" font-family="Cascadia, Segoe UI Emoji" font-size="41.849639171613646px" fill="#1e1e1e" text-anchor="middle" style="white-space: pre;" direction="ltr" dominant-baseline="alphabetic">11.38</text><text x="61.14130401611328" y="241.28932584883495" font-family="Cascadia, Segoe UI Emoji" font-size="41.849639171613646px" fill="#1e1e1e" text-anchor="middle" style="white-space: pre;" direction="ltr" dominant-baseline="alphabetic">12.15</text><text x="61.14130401611328" y="291.5088928547713" font-family="Cascadia, Segoe UI Emoji" font-size="41.849639171613646px" fill="#1e1e1e" text-anchor="middle" style="white-space: pre;" direction="ltr" dominant-baseline="alphabetic">...</text></g><g stroke-linecap="round"><g stroke-opacity="0.1" fill-opacity="0.1" transform="translate(1154.9135692125658 248.71900286904145) rotate(0 503.22657930771277 0)"><path d="M0 0 C297.83 0, 595.67 0, 1006.45 0 M0 0 C246.02 0, 492.05 0, 1006.45 0" stroke="#1e1e1e" stroke-width="4" fill="none"></path></g></g><mask></mask><g stroke-linecap="round"><g stroke-opacity="0.1" fill-opacity="0.1" transform="translate(1154.9135692125658 297.2841162162952) rotate(0 501.099896287193 0)"><path d="M0 0 C215.81 0, 431.61 0, 1002.2 0 M0 0 C349.75 0, 699.5 0, 1002.2 0" stroke="#1e1e1e" stroke-width="4" fill="none"></path></g></g><mask></mask><g stroke-linecap="round"><g stroke-opacity="0.1" fill-opacity="0.1" transform="translate(1154.9135692125658 347.76389684071984) rotate(0 503.93547364788594 0)"><path d="M0 0 C390.28 0, 780.56 0, 1007.87 0 M0 0 C346.12 0, 692.23 0, 1007.87 0" stroke="#1e1e1e" stroke-width="4" fill="none"></path></g></g><mask></mask><g stroke-linecap="round"><g stroke-opacity="0.1" fill-opacity="0.1" transform="translate(1154.9135692125658 398.2436774651445) rotate(0 503.22657930771277 0)"><path d="M0 0 C302.17 0, 604.35 0, 1006.45 0 M0 0 C214.05 0, 428.11 0, 1006.45 0" stroke="#1e1e1e" stroke-width="4" fill="none"></path></g></g><mask></mask><g stroke-linecap="round"><g stroke-opacity="0.1" fill-opacity="0.1" transform="translate(1154.9135692125658 447.83784790317577) rotate(0 503.22657930771277 0)"><path d="M0 0 C398.92 0, 797.84 0, 1006.45 0 M0 0 C397.9 0, 795.79 0, 1006.45 0" stroke="#1e1e1e" stroke-width="4" fill="none"></path></g></g><mask></mask><g stroke-linecap="round" transform="translate(795.1964823066901 107.52877482454642) rotate(0 75.15860991259723 302.1706258269059)"><path d="M0 0 L150.32 0 L150.32 604.34 L0 604.34" stroke="none" stroke-width="0" fill="#ced4da"></path><path d="M0 0 C41.42 0, 82.84 0, 150.32 0 M0 0 C57.56 0, 115.12 0, 150.32 0 M150.32 0 C150.32 149.94, 150.32 299.88, 150.32 604.34 M150.32 0 C150.32 230.65, 150.32 461.31, 150.32 604.34 M150.32 604.34 C114.13 604.34, 77.95 604.34, 0 604.34 M150.32 604.34 C116.84 604.34, 83.37 604.34, 0 604.34 M0 604.34 C0 422.9, 0 241.46, 0 0 M0 604.34 C0 439.7, 0 275.05, 0 0" stroke="#1e1e1e" stroke-width="4" fill="none"></path></g><g stroke-linecap="round" transform="translate(10 107.52877482454642) rotate(0 139.66792521930387 301.8929571692434)"><path d="M0 0 C0 0, 0 0, 0 0 M0 0 C0 0, 0 0, 0 0 M0.27 24.08 C6.04 17.44, 11.82 10.79, 21.26 -0.07 M0.27 24.08 C5.61 17.93, 10.96 11.78, 21.26 -0.07 M-0.12 48.92 C16.31 30.02, 32.73 11.12, 42.52 -0.14 M-0.12 48.92 C9.65 37.68, 19.42 26.43, 42.52 -0.14 M0.14 73 C15.88 54.89, 31.62 36.78, 63.78 -0.21 M0.14 73 C14.85 56.08, 29.56 39.16, 63.78 -0.21 M-0.25 97.84 C30.65 62.3, 61.54 26.76, 85.04 -0.28 M-0.25 97.84 C32.5 60.16, 65.25 22.49, 85.04 -0.28 M0.02 121.92 C41.98 73.65, 83.93 25.39, 106.3 -0.34 M0.02 121.92 C23.62 94.76, 47.23 67.61, 106.3 -0.34 M0.29 146 C28.64 113.38, 56.99 80.77, 126.91 0.34 M0.29 146 C30.76 110.94, 61.24 75.88, 126.91 0.34 M-0.1 170.84 C58.12 103.85, 116.35 36.87, 148.17 0.27 M-0.1 170.84 C36.37 128.88, 72.85 86.92, 148.17 0.27 M0.16 194.92 C60.8 125.17, 121.43 55.41, 169.43 0.2 M0.16 194.92 C51.82 135.5, 103.47 76.08, 169.43 0.2 M-0.23 219.75 C64.99 144.73, 130.21 69.71, 190.69 0.13 M-0.23 219.75 C56.33 154.69, 112.88 89.63, 190.69 0.13 M0.04 243.84 C80.15 151.68, 160.26 59.52, 211.95 0.06 M0.04 243.84 C54.76 180.88, 109.49 117.93, 211.95 0.06 M0.3 267.92 C85.74 169.64, 171.17 71.36, 233.21 0 M0.3 267.92 C79.76 176.52, 159.21 85.12, 233.21 0 M-0.08 292.75 C81.69 198.68, 163.46 104.61, 254.47 -0.07 M-0.08 292.75 C90.49 188.56, 181.06 84.37, 254.47 -0.07 M0.18 316.84 C60.45 247.5, 120.73 178.16, 275.73 -0.14 M0.18 316.84 C89.48 214.11, 178.78 111.39, 275.73 -0.14 M-0.21 341.67 C69.87 261.06, 139.95 180.44, 279.27 20.17 M-0.21 341.67 C63.71 268.14, 127.63 194.61, 279.27 20.17 M0.06 365.75 C76.29 278.05, 152.53 190.36, 279.54 44.25 M0.06 365.75 C101.62 248.92, 203.19 132.08, 279.54 44.25 M0.32 389.84 C71.26 308.23, 142.2 226.63, 279.15 69.08 M0.32 389.84 C79.18 299.13, 158.03 208.42, 279.15 69.08 M-0.07 414.67 C91.97 308.8, 184 202.92, 279.42 93.17 M-0.07 414.67 C98.45 301.35, 196.96 188.03, 279.42 93.17 M0.2 438.75 C68.72 359.94, 137.23 281.12, 279.68 117.25 M0.2 438.75 C83.75 342.64, 167.3 246.53, 279.68 117.25 M-0.19 463.59 C59.54 394.88, 119.27 326.16, 279.29 142.08 M-0.19 463.59 C100.33 347.96, 200.85 232.32, 279.29 142.08 M0.08 487.67 C100.93 371.66, 201.78 255.64, 279.56 166.17 M0.08 487.67 C65.2 412.76, 130.32 337.85, 279.56 166.17 M-0.31 512.51 C104.89 391.49, 210.09 270.47, 279.17 191 M-0.31 512.51 C63.5 439.1, 127.31 365.7, 279.17 191 M-0.05 536.59 C101.79 419.44, 203.63 302.28, 279.44 215.08 M-0.05 536.59 C60.28 467.2, 120.6 397.8, 279.44 215.08 M0.22 560.67 C82.05 466.54, 163.87 372.41, 279.7 239.17 M0.22 560.67 C105.53 439.53, 210.83 318.39, 279.7 239.17 M-0.17 585.51 C67.93 507.17, 136.03 428.83, 279.31 264 M-0.17 585.51 C98.57 471.92, 197.32 358.33, 279.31 264 M4.69 604.31 C77.04 521.08, 149.39 437.85, 279.58 288.08 M4.69 604.31 C114.22 478.3, 223.75 352.3, 279.58 288.08 M25.95 604.24 C79.53 542.6, 133.11 480.97, 279.19 312.92 M25.95 604.24 C108.57 509.19, 191.2 414.14, 279.19 312.92 M47.21 604.17 C96.69 547.24, 146.18 490.32, 279.45 337 M47.21 604.17 C107.98 534.26, 168.75 464.35, 279.45 337 M68.47 604.1 C133.11 529.74, 197.76 455.37, 279.72 361.08 M68.47 604.1 C150.98 509.18, 233.49 414.27, 279.72 361.08 M89.73 604.03 C145.24 540.17, 200.75 476.31, 279.33 385.92 M89.73 604.03 C148.47 536.46, 207.2 468.89, 279.33 385.92 M110.33 604.72 C176.32 528.81, 242.31 452.9, 279.6 410 M110.33 604.72 C174.16 531.29, 237.99 457.86, 279.6 410 M131.59 604.65 C172.59 557.49, 213.58 510.33, 279.21 434.84 M131.59 604.65 C170.15 560.3, 208.7 515.95, 279.21 434.84 M152.85 604.58 C197.3 553.45, 241.74 502.33, 279.47 458.92 M152.85 604.58 C189.79 562.09, 226.72 519.61, 279.47 458.92 M174.11 604.51 C213.01 559.76, 251.91 515.01, 279.74 483 M174.11 604.51 C196.21 579.09, 218.31 553.67, 279.74 483 M195.37 604.44 C220.76 575.24, 246.15 546.03, 279.35 507.84 M195.37 604.44 C221.84 573.99, 248.31 543.54, 279.35 507.84 M216.63 604.37 C241.19 576.13, 265.74 547.88, 279.62 531.92 M216.63 604.37 C230.63 588.27, 244.62 572.18, 279.62 531.92 M237.9 604.3 C253.67 586.15, 269.45 568, 279.23 556.76 M237.9 604.3 C246.31 594.63, 254.72 584.95, 279.23 556.76 M259.16 604.23 C267.14 595.04, 275.13 585.85, 279.49 580.84 M259.16 604.23 C266.14 596.2, 273.13 588.16, 279.49 580.84" stroke="#e9ecef" stroke-width="2" fill="none"></path><path d="M0 0 C72.28 0, 144.56 0, 279.34 0 M0 0 C95.68 0, 191.36 0, 279.34 0 M279.34 0 C279.34 168.74, 279.34 337.48, 279.34 603.79 M279.34 0 C279.34 209.72, 279.34 419.44, 279.34 603.79 M279.34 603.79 C207.01 603.79, 134.69 603.79, 0 603.79 M279.34 603.79 C202.01 603.79, 124.69 603.79, 0 603.79 M0 603.79 C0 466.37, 0 328.95, 0 0 M0 603.79 C0 453.08, 0 302.37, 0 0" stroke="#1e1e1e" stroke-width="4" fill="none"></path></g><g stroke-linecap="round" transform="translate(289.21907949378254 107.52877482454642) rotate(0 139.66792521930387 301.8675027256342)"><path d="M0 0 L279.34 0 L279.34 603.74 L0 603.74" stroke="none" stroke-width="0" fill="#e9ecef"></path><path d="M0 0 C77.38 0, 154.75 0, 279.34 0 M0 0 C76.59 0, 153.18 0, 279.34 0 M279.34 0 C279.34 168.95, 279.34 337.89, 279.34 603.74 M279.34 0 C279.34 234.2, 279.34 468.4, 279.34 603.74 M279.34 603.74 C217.48 603.74, 155.63 603.74, 0 603.74 M279.34 603.74 C215.57 603.74, 151.8 603.74, 0 603.74 M0 603.74 C0 449.34, 0 294.94, 0 0 M0 603.74 C0 473.58, 0 343.43, 0 0" stroke="#1e1e1e" stroke-width="4" fill="none"></path></g><g stroke-linecap="round" transform="translate(569.9327889579797 107.52877482454642) rotate(0 112.35807812822179 301.94798815738847)"><path d="M0 0 C0 0, 0 0, 0 0 M0 0 C0 0, 0 0, 0 0 M0.27 24.08 C7.55 15.71, 14.82 7.33, 21.26 -0.07 M0.27 24.08 C5.53 18.03, 10.79 11.98, 21.26 -0.07 M-0.12 48.92 C9.39 37.98, 18.9 27.04, 42.52 -0.14 M-0.12 48.92 C11.51 35.53, 23.15 22.14, 42.52 -0.14 M0.14 73 C15.08 55.81, 30.03 38.62, 63.78 -0.21 M0.14 73 C21.04 48.96, 41.94 24.92, 63.78 -0.21 M-0.25 97.84 C23.61 70.4, 47.46 42.95, 85.04 -0.28 M-0.25 97.84 C33.31 59.24, 66.86 20.63, 85.04 -0.28 M0.02 121.92 C33.98 82.86, 67.93 43.79, 106.3 -0.34 M0.02 121.92 C37.81 78.45, 75.6 34.97, 106.3 -0.34 M0.29 146 C29.41 112.49, 58.54 78.98, 126.91 0.34 M0.29 146 C46.27 93.1, 92.25 40.21, 126.91 0.34 M-0.1 170.84 C37.15 127.98, 74.4 85.13, 148.17 0.27 M-0.1 170.84 C55.57 106.79, 111.24 42.75, 148.17 0.27 M0.16 194.92 C40.28 148.77, 80.4 102.62, 169.43 0.2 M0.16 194.92 C53.12 134, 106.08 73.08, 169.43 0.2 M-0.23 219.75 C58.08 152.68, 116.38 85.61, 190.69 0.13 M-0.23 219.75 C39.19 174.41, 78.61 129.06, 190.69 0.13 M0.04 243.84 C61.17 173.52, 122.29 103.2, 211.95 0.06 M0.04 243.84 C73.88 158.89, 147.73 73.94, 211.95 0.06 M0.3 267.92 C86.35 168.94, 172.39 69.96, 225.33 9.05 M0.3 267.92 C54.74 205.29, 109.18 142.67, 225.33 9.05 M-0.08 292.75 C89.32 189.91, 178.72 87.07, 224.94 33.89 M-0.08 292.75 C78.86 201.94, 157.81 111.12, 224.94 33.89 M0.18 316.84 C46.88 263.12, 93.58 209.4, 225.21 57.97 M0.18 316.84 C56.47 252.08, 112.77 187.32, 225.21 57.97 M-0.21 341.67 C45.11 289.54, 90.43 237.41, 224.82 82.81 M-0.21 341.67 C84.35 244.39, 168.92 147.12, 224.82 82.81 M0.06 365.75 C74.6 280, 149.15 194.24, 225.09 106.89 M0.06 365.75 C84.34 268.8, 168.63 171.84, 225.09 106.89 M0.32 389.84 C81.92 295.98, 163.51 202.12, 224.7 131.73 M0.32 389.84 C57.36 324.22, 114.4 258.61, 224.7 131.73 M-0.07 414.67 C73.97 329.5, 148.01 244.34, 224.96 155.81 M-0.07 414.67 C74.97 328.35, 150.01 242.03, 224.96 155.81 M0.2 438.75 C83.9 342.47, 167.6 246.18, 225.23 179.89 M0.2 438.75 C88.4 337.29, 176.59 235.84, 225.23 179.89 M-0.19 463.59 C45.07 411.53, 90.32 359.47, 224.84 204.72 M-0.19 463.59 C49.37 406.58, 98.93 349.57, 224.84 204.72 M0.08 487.67 C76.41 399.86, 152.74 312.06, 225.11 228.81 M0.08 487.67 C83.3 391.93, 166.53 296.19, 225.11 228.81 M-0.31 512.51 C83.62 415.96, 167.55 319.41, 224.72 253.64 M-0.31 512.51 C67.93 434.01, 136.17 355.51, 224.72 253.64 M-0.05 536.59 C45.7 483.97, 91.44 431.34, 224.98 277.72 M-0.05 536.59 C77.32 447.59, 154.69 358.59, 224.98 277.72 M0.22 560.67 C66.6 484.31, 132.99 407.94, 225.25 301.81 M0.22 560.67 C51.04 502.21, 101.87 443.74, 225.25 301.81 M-0.17 585.51 C73.43 500.84, 147.04 416.17, 224.86 326.64 M-0.17 585.51 C54.89 522.18, 109.94 458.84, 224.86 326.64 M4.69 604.31 C58.16 542.8, 111.63 481.29, 225.12 350.72 M4.69 604.31 C50.19 551.96, 95.69 499.62, 225.12 350.72 M25.95 604.24 C85.29 535.98, 144.63 467.72, 224.74 375.56 M25.95 604.24 C101.14 517.74, 176.34 431.24, 224.74 375.56 M47.21 604.17 C103.4 539.53, 159.6 474.88, 225 399.64 M47.21 604.17 C89.57 555.43, 131.94 506.7, 225 399.64 M68.47 604.1 C120.28 544.5, 172.09 484.9, 225.27 423.72 M68.47 604.1 C103.83 563.43, 139.18 522.75, 225.27 423.72 M89.07 604.79 C121.79 567.15, 154.5 529.52, 224.88 448.56 M89.07 604.79 C128.43 559.51, 167.79 514.23, 224.88 448.56 M110.33 604.72 C140.27 570.28, 170.21 535.84, 225.14 472.64 M110.33 604.72 C138.14 572.73, 165.95 540.74, 225.14 472.64 M131.59 604.65 C165.82 565.27, 200.05 525.9, 224.75 497.48 M131.59 604.65 C159.95 572.03, 188.31 539.4, 224.75 497.48 M152.85 604.58 C178.28 575.33, 203.71 546.08, 225.02 521.56 M152.85 604.58 C171.56 583.06, 190.27 561.54, 225.02 521.56 M174.11 604.51 C187.99 588.55, 201.86 572.6, 225.29 545.64 M174.11 604.51 C184.37 592.71, 194.62 580.92, 225.29 545.64 M195.37 604.44 C204.03 594.49, 212.68 584.53, 224.9 570.48 M195.37 604.44 C203.71 594.85, 212.05 585.25, 224.9 570.48 M216.63 604.37 C219.64 600.92, 222.64 597.46, 225.16 594.56 M216.63 604.37 C218.95 601.71, 221.26 599.05, 225.16 594.56 M-0.14 603.77 C-0.14 603.77, -0.14 603.77, -0.14 603.77 M-0.14 603.77 C-0.14 603.77, -0.14 603.77, -0.14 603.77 M24.69 604.16 C18.81 599.05, 12.93 593.93, -0.21 582.51 M24.69 604.16 C15.11 595.83, 5.52 587.49, -0.21 582.51 M48.77 603.89 C29.21 586.89, 9.65 569.88, -0.28 561.25 M48.77 603.89 C36.71 593.41, 24.64 582.92, -0.28 561.25 M72.86 603.63 C45.51 579.86, 18.17 556.09, -0.35 539.99 M72.86 603.63 C44.66 579.11, 16.46 554.6, -0.35 539.99 M97.69 604.02 C71.95 581.64, 46.2 559.26, 0.33 519.39 M97.69 604.02 C71.12 580.92, 44.55 557.82, 0.33 519.39 M121.77 603.75 C92.67 578.45, 63.57 553.16, 0.27 498.13 M121.77 603.75 C86.5 573.09, 51.22 542.42, 0.27 498.13 M146.61 604.14 C90.85 555.67, 35.1 507.2, 0.2 476.87 M146.61 604.14 C105.68 568.56, 64.75 532.99, 0.2 476.87 M170.69 603.87 C113.63 554.27, 56.57 504.67, 0.13 455.61 M170.69 603.87 C120.61 560.34, 70.53 516.8, 0.13 455.61 M194.77 603.61 C124.51 542.53, 54.25 481.46, 0.06 434.35 M194.77 603.61 C127.28 544.94, 59.78 486.26, 0.06 434.35 M219.61 604 C135.27 530.69, 50.94 457.37, -0.01 413.08 M219.61 604 C139.78 534.6, 59.95 465.21, -0.01 413.08 M224.82 587.33 C170.31 539.94, 115.8 492.56, -0.08 391.82 M224.82 587.33 C150.59 522.8, 76.35 458.26, -0.08 391.82 M224.75 566.07 C148.66 499.92, 72.57 433.78, -0.15 370.56 M224.75 566.07 C170.05 518.51, 115.34 470.96, -0.15 370.56 M225.44 545.47 C160.38 488.91, 95.31 432.35, -0.22 349.3 M225.44 545.47 C166.6 494.32, 107.76 443.17, -0.22 349.3 M225.37 524.21 C141.23 451.06, 57.08 377.92, -0.29 328.04 M225.37 524.21 C168.67 474.92, 111.97 425.63, -0.29 328.04 M225.3 502.95 C138.07 427.11, 50.83 351.28, -0.36 306.78 M225.3 502.95 C147.57 435.37, 69.84 367.8, -0.36 306.78 M225.23 481.69 C160.45 425.37, 95.67 369.05, 0.33 286.18 M225.23 481.69 C162.05 426.76, 98.87 371.84, 0.33 286.18 M225.16 460.43 C168.93 411.55, 112.71 362.67, 0.26 264.92 M225.16 460.43 C143.72 389.63, 62.27 318.83, 0.26 264.92 M225.1 439.17 C155.55 378.71, 86 318.25, 0.19 243.66 M225.1 439.17 C179.99 399.95, 134.88 360.74, 0.19 243.66 M225.03 417.9 C176.33 375.57, 127.63 333.24, 0.12 222.4 M225.03 417.9 C164.4 365.2, 103.77 312.49, 0.12 222.4 M224.96 396.64 C160.45 340.57, 95.94 284.49, 0.05 201.14 M224.96 396.64 C167.94 347.08, 110.91 297.51, 0.05 201.14 M224.89 375.38 C168.88 326.7, 112.87 278.01, -0.01 179.88 M224.89 375.38 C135.45 297.64, 46.01 219.89, -0.01 179.88 M224.82 354.12 C158.2 296.22, 91.59 238.31, -0.08 158.62 M224.82 354.12 C166.75 303.64, 108.67 253.16, -0.08 158.62 M224.75 332.86 C149.32 267.29, 73.89 201.72, -0.15 137.36 M224.75 332.86 C168.01 283.54, 111.27 234.22, -0.15 137.36 M225.44 312.26 C171.78 265.62, 118.13 218.98, -0.22 116.1 M225.44 312.26 C178.51 271.47, 131.58 230.67, -0.22 116.1 M225.37 291 C160.26 234.4, 95.16 177.81, -0.29 94.84 M225.37 291 C154.45 229.35, 83.54 167.71, -0.29 94.84 M225.3 269.74 C171.84 223.27, 118.38 176.8, -0.36 73.58 M225.3 269.74 C164.12 216.55, 102.93 163.37, -0.36 73.58 M225.23 248.48 C147.35 180.78, 69.47 113.08, 0.33 52.97 M225.23 248.48 C171.37 201.66, 117.52 154.85, 0.33 52.97 M225.16 227.22 C170.28 179.51, 115.4 131.81, 0.26 31.71 M225.16 227.22 C137.21 150.76, 49.25 74.3, 0.26 31.71 M225.09 205.96 C141.53 133.32, 57.96 60.67, 0.19 10.45 M225.09 205.96 C166.9 155.37, 108.71 104.79, 0.19 10.45 M225.02 184.7 C175.12 141.32, 125.22 97.94, 12.19 -0.31 M225.02 184.7 C164.12 131.76, 103.22 78.81, 12.19 -0.31 M224.95 163.44 C177.54 122.23, 130.13 81.01, 37.03 0.08 M224.95 163.44 C153.92 101.69, 82.89 39.95, 37.03 0.08 M224.88 142.18 C190.71 112.47, 156.54 82.76, 61.11 -0.19 M224.88 142.18 C183.98 106.62, 143.08 71.07, 61.11 -0.19 M224.82 120.92 C182.74 84.35, 140.67 47.77, 85.19 -0.45 M224.82 120.92 C172.04 75.04, 119.26 29.16, 85.19 -0.45 M224.75 99.66 C179.78 60.57, 134.81 21.47, 110.03 -0.06 M224.75 99.66 C184.57 64.74, 144.4 29.82, 110.03 -0.06 M225.43 79.05 C202 58.69, 178.57 38.32, 134.11 -0.33 M225.43 79.05 C205.83 62.01, 186.22 44.97, 134.11 -0.33 M225.36 57.79 C209.76 44.23, 194.16 30.67, 158.95 0.06 M225.36 57.79 C210.03 44.47, 194.7 31.14, 158.95 0.06 M225.29 36.53 C213.42 26.21, 201.55 15.89, 183.03 -0.21 M225.29 36.53 C216.04 28.49, 206.79 20.45, 183.03 -0.21 M225.23 15.27 C221.37 11.92, 217.52 8.58, 207.11 -0.47 M225.23 15.27 C219.61 10.39, 213.99 5.51, 207.11 -0.47" stroke="#ffffff" stroke-width="2" fill="none"></path><path d="M0 0 C81.21 0, 162.43 0, 224.72 0 M0 0 C72.51 0, 145.01 0, 224.72 0 M224.72 0 C224.72 171.46, 224.72 342.92, 224.72 603.9 M224.72 0 C224.72 147.63, 224.72 295.27, 224.72 603.9 M224.72 603.9 C165.33 603.9, 105.94 603.9, 0 603.9 M224.72 603.9 C150.37 603.9, 76.01 603.9, 0 603.9 M0 603.9 C0 465.06, 0 326.23, 0 0 M0 603.9 C0 450.7, 0 297.51, 0 0" stroke="#1e1e1e" stroke-width="4" fill="none"></path></g><g stroke-linecap="round" transform="translate(10.0875733048357 107.52877482454642) rotate(0 467.6382795325883 43.03950061996278)"><path d="M0 0 C190.56 0, 381.11 0, 935.28 0 M0 0 C365.43 0, 730.86 0, 935.28 0 M935.28 0 C935.28 24.27, 935.28 48.53, 935.28 86.08 M935.28 0 C935.28 29.81, 935.28 59.63, 935.28 86.08 M935.28 86.08 C723.81 86.08, 512.34 86.08, 0 86.08 M935.28 86.08 C570.11 86.08, 204.95 86.08, 0 86.08 M0 86.08 C0 52.76, 0 19.43, 0 0 M0 86.08 C0 51.96, 0 17.84, 0 0" stroke="#1e1e1e" stroke-width="4" fill="none"></path></g><g transform="translate(89.67707663298398 122.95699479137119) rotate(0 49.12783555315836 25.109783502968185)"><text x="49.12783555315836" y="40.41105782508943" font-family="Cascadia, Segoe UI Emoji" font-size="41.849639171613646px" fill="#1e1e1e" text-anchor="middle" style="white-space: pre;" direction="ltr" dominant-baseline="alphabetic">year</text></g><g transform="translate(331.99424119620033 122.95699479137119) rotate(0 98.25567110631673 25.109783502968185)"><text x="98.25567110631673" y="40.41105782508943" font-family="Cascadia, Segoe UI Emoji" font-size="41.849639171613646px" fill="#1e1e1e" text-anchor="middle" style="white-space: pre;" direction="ltr" dominant-baseline="alphabetic">location</text></g><g transform="translate(581.302496461277 122.95699479137119) rotate(0 97.82608795166016 25.109783502968185)"><text x="97.82608795166016" y="40.41105782508943" font-family="Cascadia, Segoe UI Emoji" font-size="41.849639171613646px" fill="#1e1e1e" text-anchor="middle" style="white-space: pre;" direction="ltr" dominant-baseline="alphabetic">SERIALNO</text></g><g stroke-opacity="0.7" fill-opacity="0.7" transform="translate(88.0751785731054 195.05921828410987) rotate(0 48.91304397583008 251.09783502968187)"><text x="48.91304397583008" y="40.41105782508943" font-family="Cascadia, Segoe UI Emoji" font-size="41.849639171613646px" fill="#1e1e1e" text-anchor="middle" style="white-space: pre;" direction="ltr" dominant-baseline="alphabetic">2005</text><text x="48.91304397583008" y="90.63062483102581" font-family="Cascadia, Segoe UI Emoji" font-size="41.849639171613646px" fill="#1e1e1e" text-anchor="middle" style="white-space: pre;" direction="ltr" dominant-baseline="alphabetic">2005</text><text x="48.91304397583008" y="140.85019183696218" font-family="Cascadia, Segoe UI Emoji" font-size="41.849639171613646px" fill="#1e1e1e" text-anchor="middle" style="white-space: pre;" direction="ltr" dominant-baseline="alphabetic">2005</text><text x="48.91304397583008" y="191.06975884289858" font-family="Cascadia, Segoe UI Emoji" font-size="41.849639171613646px" fill="#1e1e1e" text-anchor="middle" style="white-space: pre;" direction="ltr" dominant-baseline="alphabetic">2006</text><text x="48.91304397583008" y="241.28932584883495" font-family="Cascadia, Segoe UI Emoji" font-size="41.849639171613646px" fill="#1e1e1e" text-anchor="middle" style="white-space: pre;" direction="ltr" dominant-baseline="alphabetic">2006</text><text x="48.91304397583008" y="291.5088928547713" font-family="Cascadia, Segoe UI Emoji" font-size="41.849639171613646px" fill="#1e1e1e" text-anchor="middle" style="white-space: pre;" direction="ltr" dominant-baseline="alphabetic">2006</text><text x="48.91304397583008" y="341.7284598607077" font-family="Cascadia, Segoe UI Emoji" font-size="41.849639171613646px" fill="#1e1e1e" text-anchor="middle" style="white-space: pre;" direction="ltr" dominant-baseline="alphabetic">2006</text><text x="48.91304397583008" y="391.94802686664406" font-family="Cascadia, Segoe UI Emoji" font-size="41.849639171613646px" fill="#1e1e1e" text-anchor="middle" style="white-space: pre;" direction="ltr" dominant-baseline="alphabetic">2007</text><text x="48.91304397583008" y="442.1675938725804" font-family="Cascadia, Segoe UI Emoji" font-size="41.849639171613646px" fill="#1e1e1e" text-anchor="middle" style="white-space: pre;" direction="ltr" dominant-baseline="alphabetic">2007</text><text x="48.91304397583008" y="492.3871608785168" font-family="Cascadia, Segoe UI Emoji" font-size="41.849639171613646px" fill="#1e1e1e" text-anchor="middle" style="white-space: pre;" direction="ltr" dominant-baseline="alphabetic">...</text></g><g stroke-opacity="0.7" fill-opacity="0.7" transform="translate(393.83581942468186 195.05921828410987) rotate(0 36.684783935546875 251.09783502968187)"><text x="36.684783935546875" y="40.41105782508943" font-family="Cascadia, Segoe UI Emoji" font-size="41.849639171613646px" fill="#1e1e1e" text-anchor="middle" style="white-space: pre;" direction="ltr" dominant-baseline="alphabetic">ny</text><text x="36.684783935546875" y="90.63062483102581" font-family="Cascadia, Segoe UI Emoji" font-size="41.849639171613646px" fill="#1e1e1e" text-anchor="middle" style="white-space: pre;" direction="ltr" dominant-baseline="alphabetic">ca</text><text x="36.684783935546875" y="140.85019183696218" font-family="Cascadia, Segoe UI Emoji" font-size="41.849639171613646px" fill="#1e1e1e" text-anchor="middle" style="white-space: pre;" direction="ltr" dominant-baseline="alphabetic">ny</text><text x="36.684783935546875" y="191.06975884289858" font-family="Cascadia, Segoe UI Emoji" font-size="41.849639171613646px" fill="#1e1e1e" text-anchor="middle" style="white-space: pre;" direction="ltr" dominant-baseline="alphabetic">ny</text><text x="36.684783935546875" y="241.28932584883495" font-family="Cascadia, Segoe UI Emoji" font-size="41.849639171613646px" fill="#1e1e1e" text-anchor="middle" style="white-space: pre;" direction="ltr" dominant-baseline="alphabetic">ny</text><text x="36.684783935546875" y="291.5088928547713" font-family="Cascadia, Segoe UI Emoji" font-size="41.849639171613646px" fill="#1e1e1e" text-anchor="middle" style="white-space: pre;" direction="ltr" dominant-baseline="alphabetic">ca</text><text x="36.684783935546875" y="341.7284598607077" font-family="Cascadia, Segoe UI Emoji" font-size="41.849639171613646px" fill="#1e1e1e" text-anchor="middle" style="white-space: pre;" direction="ltr" dominant-baseline="alphabetic">ca</text><text x="36.684783935546875" y="391.94802686664406" font-family="Cascadia, Segoe UI Emoji" font-size="41.849639171613646px" fill="#1e1e1e" text-anchor="middle" style="white-space: pre;" direction="ltr" dominant-baseline="alphabetic">ny</text><text x="36.684783935546875" y="442.1675938725804" font-family="Cascadia, Segoe UI Emoji" font-size="41.849639171613646px" fill="#1e1e1e" text-anchor="middle" style="white-space: pre;" direction="ltr" dominant-baseline="alphabetic">ny</text><text x="36.684783935546875" y="492.3871608785168" font-family="Cascadia, Segoe UI Emoji" font-size="41.849639171613646px" fill="#1e1e1e" text-anchor="middle" style="white-space: pre;" direction="ltr" dominant-baseline="alphabetic">...</text></g><g stroke-linecap="round"><g stroke-opacity="0.1" fill-opacity="0.1" transform="translate(10.545306539675437 248.71900286904133) rotate(0 467.40156086473075 0)"><path d="M0 0 C263.54 0, 527.08 0, 934.8 0 M0 0 C323.77 0, 647.53 0, 934.8 0" stroke="#1e1e1e" stroke-width="4" fill="none"></path></g></g><mask></mask><g stroke-linecap="round"><g stroke-opacity="0.1" fill-opacity="0.1" transform="translate(10.54530653967543 297.28411621629516) rotate(0 466.45587089595153 0)"><path d="M0 0 C259.42 0, 518.84 0, 932.91 0 M0 0 C264.79 0, 529.57 0, 932.91 0" stroke="#1e1e1e" stroke-width="4" fill="none"></path></g></g><mask></mask><g stroke-linecap="round"><g stroke-opacity="0.1" fill-opacity="0.1" transform="translate(10.54530653967543 347.7638968407198) rotate(0 466.12522931960115 0)"><path d="M0 0 C224.39 0, 448.79 0, 932.25 0 M0 0 C240.65 0, 481.29 0, 932.25 0" stroke="#1e1e1e" stroke-width="4" fill="none"></path></g></g><mask></mask><g stroke-linecap="round"><g stroke-opacity="0.1" fill-opacity="0.1" transform="translate(10.54530653967543 398.2436774651444) rotate(0 465.7945877432507 0)"><path d="M0 0 C234.92 0, 469.83 0, 931.59 0 M0 0 C308.76 0, 617.51 0, 931.59 0" stroke="#1e1e1e" stroke-width="4" fill="none"></path></g></g><mask></mask><g stroke-linecap="round"><g stroke-opacity="0.1" fill-opacity="0.1" transform="translate(10.54530653967543 447.83784790317577) rotate(0 466.30274043228286 0)"><path d="M0 0 C241.46 0, 482.92 0, 932.61 0 M0 0 C258.15 0, 516.3 0, 932.61 0" stroke="#1e1e1e" stroke-width="4" fill="none"></path></g></g><mask></mask><g transform="translate(812.627827373571 122.95699479137119) rotate(0 61.14130401611328 25.109783502968185)"><text x="61.14130401611328" y="40.41105782508943" font-family="Cascadia, Segoe UI Emoji" font-size="41.849639171613646px" fill="#1e1e1e" text-anchor="middle" style="white-space: pre;" direction="ltr" dominant-baseline="alphabetic">JWMNP</text></g><g stroke-opacity="0.7" fill-opacity="0.7" transform="translate(633.6261275607524 197.31752403056817) rotate(0 48.91304397583008 251.09783502968187)"><text x="48.91304397583008" y="40.41105782508943" font-family="Cascadia, Segoe UI Emoji" font-size="41.849639171613646px" fill="#1e1e1e" text-anchor="middle" style="white-space: pre;" direction="ltr" dominant-baseline="alphabetic">177</text><text x="48.91304397583008" y="90.63062483102581" font-family="Cascadia, Segoe UI Emoji" font-size="41.849639171613646px" fill="#1e1e1e" text-anchor="middle" style="white-space: pre;" direction="ltr" dominant-baseline="alphabetic">1404</text><text x="48.91304397583008" y="140.85019183696218" font-family="Cascadia, Segoe UI Emoji" font-size="41.849639171613646px" fill="#1e1e1e" text-anchor="middle" style="white-space: pre;" direction="ltr" dominant-baseline="alphabetic">2378</text><text x="48.91304397583008" y="191.06975884289858" font-family="Cascadia, Segoe UI Emoji" font-size="41.849639171613646px" fill="#1e1e1e" text-anchor="middle" style="white-space: pre;" direction="ltr" dominant-baseline="alphabetic">2876</text><text x="48.91304397583008" y="241.28932584883495" font-family="Cascadia, Segoe UI Emoji" font-size="41.849639171613646px" fill="#1e1e1e" text-anchor="middle" style="white-space: pre;" direction="ltr" dominant-baseline="alphabetic">1129</text><text x="48.91304397583008" y="291.5088928547713" font-family="Cascadia, Segoe UI Emoji" font-size="41.849639171613646px" fill="#1e1e1e" text-anchor="middle" style="white-space: pre;" direction="ltr" dominant-baseline="alphabetic">2764</text><text x="48.91304397583008" y="341.7284598607077" font-family="Cascadia, Segoe UI Emoji" font-size="41.849639171613646px" fill="#1e1e1e" text-anchor="middle" style="white-space: pre;" direction="ltr" dominant-baseline="alphabetic">1799</text><text x="48.91304397583008" y="391.94802686664406" font-family="Cascadia, Segoe UI Emoji" font-size="41.849639171613646px" fill="#1e1e1e" text-anchor="middle" style="white-space: pre;" direction="ltr" dominant-baseline="alphabetic">2146</text><text x="48.91304397583008" y="442.1675938725804" font-family="Cascadia, Segoe UI Emoji" font-size="41.849639171613646px" fill="#1e1e1e" text-anchor="middle" style="white-space: pre;" direction="ltr" dominant-baseline="alphabetic">357</text><text x="48.91304397583008" y="492.3871608785168" font-family="Cascadia, Segoe UI Emoji" font-size="41.849639171613646px" fill="#1e1e1e" text-anchor="middle" style="white-space: pre;" direction="ltr" dominant-baseline="alphabetic">...</text></g><g stroke-opacity="0.7" fill-opacity="0.7" transform="translate(833.1085854359253 195.55097499439) rotate(0 36.684783935546875 251.09783502968187)"><text x="36.684783935546875" y="40.41105782508943" font-family="Cascadia, Segoe UI Emoji" font-size="41.849639171613646px" fill="#1e1e1e" text-anchor="middle" style="white-space: pre;" direction="ltr" dominant-baseline="alphabetic">5</text><text x="36.684783935546875" y="90.63062483102581" font-family="Cascadia, Segoe UI Emoji" font-size="41.849639171613646px" fill="#1e1e1e" text-anchor="middle" style="white-space: pre;" direction="ltr" dominant-baseline="alphabetic">15</text><text x="36.684783935546875" y="140.85019183696218" font-family="Cascadia, Segoe UI Emoji" font-size="41.849639171613646px" fill="#1e1e1e" text-anchor="middle" style="white-space: pre;" direction="ltr" dominant-baseline="alphabetic">50</text><text x="36.684783935546875" y="191.06975884289858" font-family="Cascadia, Segoe UI Emoji" font-size="41.849639171613646px" fill="#1e1e1e" text-anchor="middle" style="white-space: pre;" direction="ltr" dominant-baseline="alphabetic">NA</text><text x="36.684783935546875" y="241.28932584883495" font-family="Cascadia, Segoe UI Emoji" font-size="41.849639171613646px" fill="#1e1e1e" text-anchor="middle" style="white-space: pre;" direction="ltr" dominant-baseline="alphabetic">25</text><text x="36.684783935546875" y="291.5088928547713" font-family="Cascadia, Segoe UI Emoji" font-size="41.849639171613646px" fill="#1e1e1e" text-anchor="middle" style="white-space: pre;" direction="ltr" dominant-baseline="alphabetic">10</text><text x="36.684783935546875" y="341.7284598607077" font-family="Cascadia, Segoe UI Emoji" font-size="41.849639171613646px" fill="#1e1e1e" text-anchor="middle" style="white-space: pre;" direction="ltr" dominant-baseline="alphabetic">40</text><text x="36.684783935546875" y="391.94802686664406" font-family="Cascadia, Segoe UI Emoji" font-size="41.849639171613646px" fill="#1e1e1e" text-anchor="middle" style="white-space: pre;" direction="ltr" dominant-baseline="alphabetic">35</text><text x="36.684783935546875" y="442.1675938725804" font-family="Cascadia, Segoe UI Emoji" font-size="41.849639171613646px" fill="#1e1e1e" text-anchor="middle" style="white-space: pre;" direction="ltr" dominant-baseline="alphabetic">15</text><text x="36.684783935546875" y="492.3871608785168" font-family="Cascadia, Segoe UI Emoji" font-size="41.849639171613646px" fill="#1e1e1e" text-anchor="middle" style="white-space: pre;" direction="ltr" dominant-baseline="alphabetic">...</text></g><g stroke-linecap="round"><g stroke-opacity="0.1" fill-opacity="0.1" transform="translate(13.058378280022339 498.31828388530437) rotate(0 466.30274043228286 0)"><path d="M0 0 C308.83 0, 617.65 0, 932.61 0 M0 0 C324.05 0, 648.11 0, 932.61 0" stroke="#1e1e1e" stroke-width="4" fill="none"></path></g></g><mask></mask><g stroke-linecap="round"><g stroke-opacity="0.1" fill-opacity="0.1" transform="translate(12.9052478163537 546.3240613289775) rotate(0 466.1252293196012 0)"><path d="M0 0 C349.45 0, 698.89 0, 932.25 0 M0 0 C187.51 0, 375.02 0, 932.25 0" stroke="#1e1e1e" stroke-width="4" fill="none"></path></g></g><mask></mask><g stroke-linecap="round"><g stroke-opacity="0.1" fill-opacity="0.1" transform="translate(12.9052478163537 594.8891746762313) rotate(0 466.45587089595153 0)"><path d="M0 0 C216.08 0, 432.15 0, 932.91 0 M0 0 C353.48 0, 706.96 0, 932.91 0" stroke="#1e1e1e" stroke-width="4" fill="none"></path></g></g><mask></mask><g stroke-linecap="round"><g stroke-opacity="0.1" fill-opacity="0.1" transform="translate(13.850597284092089 650.7066994198615) rotate(0 466.1252293196011 0)"><path d="M0 0 C289.94 0, 579.87 0, 932.25 0 M0 0 C208.93 0, 417.86 0, 932.25 0" stroke="#1e1e1e" stroke-width="4" fill="none"></path></g></g><mask></mask><g stroke-linecap="round" transform="translate(1249.8275424681133 890.5744286929721) rotate(0 75.15860991259729 302.17062582690585)"><path d="M0 0 L150.32 0 L150.32 604.34 L0 604.34" stroke="none" stroke-width="0" fill="#ced4da"></path><path d="M0 0 C53.62 0, 107.25 0, 150.32 0 M0 0 C47.49 0, 94.98 0, 150.32 0 M150.32 0 C150.32 145.26, 150.32 290.52, 150.32 604.34 M150.32 0 C150.32 163.73, 150.32 327.47, 150.32 604.34 M150.32 604.34 C101.28 604.34, 52.25 604.34, 0 604.34 M150.32 604.34 C107.67 604.34, 65.03 604.34, 0 604.34 M0 604.34 C0 421.04, 0 237.73, 0 0 M0 604.34 C0 481.38, 0 358.42, 0 0" stroke="#1e1e1e" stroke-width="4" fill="none"></path></g><g stroke-linecap="round" transform="translate(464.6310601614232 890.5744286929721) rotate(0 139.66792521930387 301.89295716924335)"><path d="M0 0 C0 0, 0 0, 0 0 M0 0 C0 0, 0 0, 0 0 M0.27 24.08 C4.9 18.75, 9.53 13.42, 21.26 -0.07 M0.27 24.08 C7.89 15.31, 15.52 6.53, 21.26 -0.07 M-0.12 48.92 C10.99 36.13, 22.1 23.35, 42.52 -0.14 M-0.12 48.92 C16.01 30.36, 32.14 11.8, 42.52 -0.14 M0.14 73 C21.41 48.53, 42.68 24.07, 63.78 -0.21 M0.14 73 C17.1 53.49, 34.06 33.98, 63.78 -0.21 M-0.25 97.84 C24.21 69.7, 48.67 41.57, 85.04 -0.28 M-0.25 97.84 C18.59 76.16, 37.43 54.49, 85.04 -0.28 M0.02 121.92 C29.19 88.36, 58.36 54.81, 106.3 -0.34 M0.02 121.92 C37.07 79.3, 74.11 36.69, 106.3 -0.34 M0.29 146 C40.1 100.2, 79.91 54.41, 126.91 0.34 M0.29 146 C40.89 99.29, 81.49 52.59, 126.91 0.34 M-0.1 170.84 C34.7 130.8, 69.51 90.76, 148.17 0.27 M-0.1 170.84 C32.87 132.91, 65.84 94.98, 148.17 0.27 M0.16 194.92 C38.15 151.22, 76.14 107.52, 169.43 0.2 M0.16 194.92 C34.52 155.39, 68.88 115.86, 169.43 0.2 M-0.23 219.75 C72.98 135.54, 146.18 51.33, 190.69 0.13 M-0.23 219.75 C61.98 148.19, 124.19 76.63, 190.69 0.13 M0.04 243.84 C57.82 177.36, 115.6 110.89, 211.95 0.06 M0.04 243.84 C46.3 190.62, 92.56 137.4, 211.95 0.06 M0.3 267.92 C61.78 197.2, 123.25 126.48, 233.21 0 M0.3 267.92 C75.26 181.69, 150.22 95.46, 233.21 0 M-0.08 292.75 C73.74 207.83, 147.56 122.91, 254.47 -0.07 M-0.08 292.75 C86.96 192.62, 174.01 92.48, 254.47 -0.07 M0.18 316.84 C108.91 191.76, 217.63 66.69, 275.73 -0.14 M0.18 316.84 C82.37 222.29, 164.55 127.75, 275.73 -0.14 M-0.21 341.67 C78.69 250.92, 157.58 160.16, 279.27 20.17 M-0.21 341.67 C104.42 221.31, 209.05 100.94, 279.27 20.17 M0.06 365.75 C75.16 279.36, 150.26 192.97, 279.54 44.25 M0.06 365.75 C102.91 247.44, 205.76 129.12, 279.54 44.25 M0.32 389.84 C64.56 315.95, 128.79 242.06, 279.15 69.08 M0.32 389.84 C95.38 280.49, 190.44 171.13, 279.15 69.08 M-0.07 414.67 C99.07 300.63, 198.2 186.59, 279.42 93.17 M-0.07 414.67 C75.1 328.2, 150.27 241.73, 279.42 93.17 M0.2 438.75 C81.28 345.48, 162.36 252.21, 279.68 117.25 M0.2 438.75 C81.81 344.88, 163.41 251, 279.68 117.25 M-0.19 463.59 C82.51 368.45, 165.22 273.31, 279.29 142.08 M-0.19 463.59 C101.54 346.56, 203.27 229.54, 279.29 142.08 M0.08 487.67 C109.74 361.52, 219.4 235.37, 279.56 166.17 M0.08 487.67 C84.76 390.26, 169.43 292.85, 279.56 166.17 M-0.31 512.51 C86.52 412.62, 173.36 312.72, 279.17 191 M-0.31 512.51 C67.05 435.02, 134.42 357.52, 279.17 191 M-0.05 536.59 C67.88 458.46, 135.8 380.32, 279.44 215.08 M-0.05 536.59 C76.61 448.41, 153.27 360.22, 279.44 215.08 M0.22 560.67 C109.9 434.5, 219.57 308.34, 279.7 239.17 M0.22 560.67 C87.68 460.06, 175.14 359.44, 279.7 239.17 M-0.17 585.51 C90.08 481.69, 180.33 377.87, 279.31 264 M-0.17 585.51 C92.42 479, 185.01 372.49, 279.31 264 M4.69 604.31 C89.75 506.45, 174.82 408.6, 279.58 288.08 M4.69 604.31 C64.51 535.49, 124.34 466.67, 279.58 288.08 M25.95 604.24 C98.86 520.36, 171.77 436.49, 279.19 312.92 M25.95 604.24 C82.77 538.87, 139.59 473.51, 279.19 312.92 M47.21 604.17 C94.85 549.37, 142.49 494.56, 279.45 337 M47.21 604.17 C97.83 545.93, 148.45 487.7, 279.45 337 M68.47 604.1 C146.39 514.46, 224.32 424.82, 279.72 361.08 M68.47 604.1 C137.96 524.16, 207.45 444.22, 279.72 361.08 M89.73 604.03 C165.16 517.26, 240.59 430.49, 279.33 385.92 M89.73 604.03 C128 560, 166.28 515.97, 279.33 385.92 M110.33 604.72 C173.24 532.35, 236.14 459.99, 279.6 410 M110.33 604.72 C151.87 556.94, 193.4 509.16, 279.6 410 M131.59 604.65 C187.82 539.97, 244.04 475.29, 279.21 434.84 M131.59 604.65 C173.25 556.73, 214.91 508.81, 279.21 434.84 M152.85 604.58 C187.94 564.22, 223.03 523.86, 279.47 458.92 M152.85 604.58 C203.39 546.45, 253.92 488.32, 279.47 458.92 M174.11 604.51 C197.64 577.45, 221.16 550.39, 279.74 483 M174.11 604.51 C216.03 556.29, 257.95 508.06, 279.74 483 M195.37 604.44 C215.62 581.15, 235.87 557.86, 279.35 507.84 M195.37 604.44 C215.57 581.21, 235.76 557.99, 279.35 507.84 M216.63 604.37 C239.72 577.81, 262.81 551.25, 279.62 531.92 M216.63 604.37 C236.08 582, 255.53 559.63, 279.62 531.92 M237.9 604.3 C254.2 585.55, 270.5 566.79, 279.23 556.76 M237.9 604.3 C248.01 592.66, 258.13 581.02, 279.23 556.76 M259.16 604.23 C263.85 598.83, 268.55 593.43, 279.49 580.84 M259.16 604.23 C263.34 599.42, 267.52 594.61, 279.49 580.84" stroke="#e9ecef" stroke-width="2" fill="none"></path><path d="M0 0 C58 0, 116 0, 279.34 0 M0 0 C87.92 0, 175.85 0, 279.34 0 M279.34 0 C279.34 226.61, 279.34 453.22, 279.34 603.79 M279.34 0 C279.34 221.55, 279.34 443.09, 279.34 603.79 M279.34 603.79 C177.54 603.79, 75.75 603.79, 0 603.79 M279.34 603.79 C198.85 603.79, 118.36 603.79, 0 603.79 M0 603.79 C0 413.28, 0 222.78, 0 0 M0 603.79 C0 452.19, 0 300.6, 0 0" stroke="#1e1e1e" stroke-width="4" fill="none"></path></g><g stroke-linecap="round" transform="translate(743.8501396552057 890.5744286929721) rotate(0 139.66792521930387 301.86750272563415)"><path d="M0 0 L279.34 0 L279.34 603.74 L0 603.74" stroke="none" stroke-width="0" fill="#e9ecef"></path><path d="M0 0 C108.41 0, 216.81 0, 279.34 0 M0 0 C80.49 0, 160.99 0, 279.34 0 M279.34 0 C279.34 141.46, 279.34 282.91, 279.34 603.74 M279.34 0 C279.34 177.38, 279.34 354.75, 279.34 603.74 M279.34 603.74 C221.49 603.74, 163.65 603.74, 0 603.74 M279.34 603.74 C190.28 603.74, 101.23 603.74, 0 603.74 M0 603.74 C0 453.69, 0 303.65, 0 0 M0 603.74 C0 416.98, 0 230.22, 0 0" stroke="#1e1e1e" stroke-width="4" fill="none"></path></g><g stroke-linecap="round" transform="translate(1024.563849119403 890.5744286929721) rotate(0 112.35807812822179 301.9479881573884)"><path d="M0 0 C0 0, 0 0, 0 0 M0 0 C0 0, 0 0, 0 0 M0.27 24.08 C7.4 15.87, 14.54 7.66, 21.26 -0.07 M0.27 24.08 C8.29 14.85, 16.32 5.62, 21.26 -0.07 M-0.12 48.92 C11.4 35.66, 22.92 22.41, 42.52 -0.14 M-0.12 48.92 C15.93 30.45, 31.98 11.99, 42.52 -0.14 M0.14 73 C22.16 47.68, 44.17 22.35, 63.78 -0.21 M0.14 73 C14.01 57.05, 27.87 41.1, 63.78 -0.21 M-0.25 97.84 C22.4 71.78, 45.05 45.73, 85.04 -0.28 M-0.25 97.84 C33.57 58.93, 67.39 20.03, 85.04 -0.28 M0.02 121.92 C35.99 80.54, 71.95 39.17, 106.3 -0.34 M0.02 121.92 C23.01 95.47, 46 69.02, 106.3 -0.34 M0.29 146 C30.01 111.81, 59.73 77.62, 126.91 0.34 M0.29 146 C31.34 110.27, 62.4 74.54, 126.91 0.34 M-0.1 170.84 C49.67 113.58, 99.45 56.32, 148.17 0.27 M-0.1 170.84 C54.09 108.49, 108.28 46.15, 148.17 0.27 M0.16 194.92 C48.15 139.71, 96.14 84.51, 169.43 0.2 M0.16 194.92 C37.93 151.47, 75.7 108.02, 169.43 0.2 M-0.23 219.75 C63 147.01, 126.24 74.28, 190.69 0.13 M-0.23 219.75 C52.91 158.62, 106.05 97.49, 190.69 0.13 M0.04 243.84 C62.09 172.46, 124.13 101.08, 211.95 0.06 M0.04 243.84 C54.16 181.57, 108.29 119.31, 211.95 0.06 M0.3 267.92 C66.29 192.01, 132.28 116.09, 225.33 9.05 M0.3 267.92 C88.67 166.26, 177.04 64.61, 225.33 9.05 M-0.08 292.75 C71.57 210.32, 143.23 127.89, 224.94 33.89 M-0.08 292.75 C65.75 217.02, 131.58 141.29, 224.94 33.89 M0.18 316.84 C82.36 222.3, 164.54 127.76, 225.21 57.97 M0.18 316.84 C83.77 220.68, 167.36 124.52, 225.21 57.97 M-0.21 341.67 C87.84 240.38, 175.89 139.09, 224.82 82.81 M-0.21 341.67 C69.53 261.45, 139.27 181.22, 224.82 82.81 M0.06 365.75 C59.78 297.05, 119.51 228.34, 225.09 106.89 M0.06 365.75 C68.13 287.44, 136.21 209.13, 225.09 106.89 M0.32 389.84 C71.5 307.96, 142.67 226.09, 224.7 131.73 M0.32 389.84 C69.41 310.36, 138.49 230.89, 224.7 131.73 M-0.07 414.67 C64.57 340.31, 129.21 265.96, 224.96 155.81 M-0.07 414.67 C67.17 337.33, 134.4 259.99, 224.96 155.81 M0.2 438.75 C62.55 367.03, 124.89 295.32, 225.23 179.89 M0.2 438.75 C70.39 358.01, 140.57 277.28, 225.23 179.89 M-0.19 463.59 C67.11 386.17, 134.41 308.75, 224.84 204.72 M-0.19 463.59 C66.89 386.42, 133.98 309.25, 224.84 204.72 M0.08 487.67 C51.09 428.99, 102.1 370.31, 225.11 228.81 M0.08 487.67 C83.85 391.3, 167.63 294.92, 225.11 228.81 M-0.31 512.51 C77.15 423.4, 154.61 334.29, 224.72 253.64 M-0.31 512.51 C58.96 444.32, 118.24 376.13, 224.72 253.64 M-0.05 536.59 C66.78 459.71, 133.61 382.84, 224.98 277.72 M-0.05 536.59 C81.97 442.24, 163.99 347.88, 224.98 277.72 M0.22 560.67 C54.48 498.26, 108.73 435.84, 225.25 301.81 M0.22 560.67 C86.31 461.63, 172.41 362.59, 225.25 301.81 M-0.17 585.51 C88.44 483.58, 177.05 381.64, 224.86 326.64 M-0.17 585.51 C87.34 484.84, 174.84 384.18, 224.86 326.64 M4.69 604.31 C89.12 507.18, 173.56 410.04, 225.12 350.72 M4.69 604.31 C63.88 536.22, 123.07 468.12, 225.12 350.72 M25.95 604.24 C105.05 513.24, 184.15 422.24, 224.74 375.56 M25.95 604.24 C99.66 519.44, 173.37 434.64, 224.74 375.56 M47.21 604.17 C107.37 534.96, 167.54 465.75, 225 399.64 M47.21 604.17 C111.05 530.73, 174.9 457.28, 225 399.64 M68.47 604.1 C125.75 538.21, 183.03 472.31, 225.27 423.72 M68.47 604.1 C109.35 557.07, 150.23 510.04, 225.27 423.72 M89.07 604.79 C123.1 565.65, 157.12 526.51, 224.88 448.56 M89.07 604.79 C132.15 555.23, 175.23 505.68, 224.88 448.56 M110.33 604.72 C147.85 561.56, 185.37 518.4, 225.14 472.64 M110.33 604.72 C137.2 573.81, 164.07 542.91, 225.14 472.64 M131.59 604.65 C153.75 579.16, 175.9 553.68, 224.75 497.48 M131.59 604.65 C153.09 579.92, 174.58 555.19, 224.75 497.48 M152.85 604.58 C173.65 580.65, 194.45 556.73, 225.02 521.56 M152.85 604.58 C173.86 580.42, 194.86 556.26, 225.02 521.56 M174.11 604.51 C194.25 581.34, 214.39 558.17, 225.29 545.64 M174.11 604.51 C184.99 592, 195.87 579.48, 225.29 545.64 M195.37 604.44 C202.18 596.62, 208.98 588.79, 224.9 570.48 M195.37 604.44 C202.97 595.71, 210.56 586.97, 224.9 570.48 M216.63 604.37 C219.93 600.58, 223.22 596.79, 225.16 594.56 M216.63 604.37 C218.35 602.4, 220.06 600.43, 225.16 594.56 M-0.14 603.77 C-0.14 603.77, -0.14 603.77, -0.14 603.77 M-0.14 603.77 C-0.14 603.77, -0.14 603.77, -0.14 603.77 M24.69 604.16 C18.24 598.55, 11.79 592.94, -0.21 582.51 M24.69 604.16 C15.78 596.41, 6.87 588.67, -0.21 582.51 M48.77 603.89 C36.23 592.99, 23.69 582.08, -0.28 561.25 M48.77 603.89 C31.93 589.25, 15.08 574.6, -0.28 561.25 M72.86 603.63 C55.98 588.96, 39.11 574.29, -0.35 539.99 M72.86 603.63 C52.95 586.32, 33.04 569.02, -0.35 539.99 M97.69 604.02 C61.13 572.24, 24.58 540.46, 0.33 519.39 M97.69 604.02 C74.39 583.76, 51.08 563.5, 0.33 519.39 M121.77 603.75 C86.07 572.71, 50.36 541.67, 0.27 498.13 M121.77 603.75 C78.52 566.15, 35.27 528.55, 0.27 498.13 M146.61 604.14 C95.43 559.65, 44.26 515.17, 0.2 476.87 M146.61 604.14 C88.63 553.74, 30.66 503.35, 0.2 476.87 M170.69 603.87 C133.59 571.62, 96.49 539.37, 0.13 455.61 M170.69 603.87 C128.43 567.14, 86.18 530.41, 0.13 455.61 M194.77 603.61 C149.27 564.06, 103.78 524.5, 0.06 434.35 M194.77 603.61 C123.96 542.05, 53.15 480.5, 0.06 434.35 M219.61 604 C143.88 538.16, 68.14 472.33, -0.01 413.08 M219.61 604 C173.45 563.87, 127.28 523.74, -0.01 413.08 M224.82 587.33 C166.63 536.74, 108.43 486.15, -0.08 391.82 M224.82 587.33 C153.34 525.19, 81.85 463.05, -0.08 391.82 M224.75 566.07 C136.11 489.01, 47.46 411.95, -0.15 370.56 M224.75 566.07 C150.27 501.32, 75.78 436.57, -0.15 370.56 M225.44 545.47 C173.39 500.22, 121.33 454.96, -0.22 349.3 M225.44 545.47 C167.02 494.68, 108.59 443.89, -0.22 349.3 M225.37 524.21 C166.95 473.42, 108.54 422.64, -0.29 328.04 M225.37 524.21 C152.34 460.72, 79.3 397.23, -0.29 328.04 M225.3 502.95 C150.77 438.16, 76.24 373.37, -0.36 306.78 M225.3 502.95 C177.41 461.32, 129.53 419.69, -0.36 306.78 M225.23 481.69 C178.61 441.15, 131.98 400.62, 0.33 286.18 M225.23 481.69 C152.04 418.06, 78.85 354.44, 0.33 286.18 M225.16 460.43 C154.68 399.15, 84.19 337.88, 0.26 264.92 M225.16 460.43 C173.85 415.81, 122.53 371.2, 0.26 264.92 M225.1 439.17 C161.48 383.86, 97.86 328.56, 0.19 243.66 M225.1 439.17 C157.75 380.62, 90.41 322.08, 0.19 243.66 M225.03 417.9 C155.1 357.11, 85.16 296.32, 0.12 222.4 M225.03 417.9 C139.07 343.18, 53.11 268.46, 0.12 222.4 M224.96 396.64 C156.62 337.24, 88.28 277.84, 0.05 201.14 M224.96 396.64 C172.43 350.99, 119.91 305.33, 0.05 201.14 M224.89 375.38 C173.45 330.67, 122.01 285.95, -0.01 179.88 M224.89 375.38 C140.63 302.14, 56.38 228.9, -0.01 179.88 M224.82 354.12 C165.52 302.58, 106.23 251.03, -0.08 158.62 M224.82 354.12 C148.2 287.52, 71.59 220.92, -0.08 158.62 M224.75 332.86 C146.57 264.9, 68.38 196.94, -0.15 137.36 M224.75 332.86 C150.33 268.17, 75.91 203.48, -0.15 137.36 M225.44 312.26 C150.83 247.4, 76.22 182.55, -0.22 116.1 M225.44 312.26 C167.06 261.52, 108.69 210.78, -0.22 116.1 M225.37 291 C152.36 227.54, 79.36 164.08, -0.29 94.84 M225.37 291 C179.92 251.5, 134.48 211.99, -0.29 94.84 M225.3 269.74 C169.31 221.07, 113.31 172.39, -0.36 73.58 M225.3 269.74 C168.78 220.61, 112.26 171.47, -0.36 73.58 M225.23 248.48 C138.14 172.77, 51.05 97.07, 0.33 52.97 M225.23 248.48 C143.93 177.81, 62.64 107.14, 0.33 52.97 M225.16 227.22 C149.92 161.82, 74.69 96.42, 0.26 31.71 M225.16 227.22 C179.29 187.35, 133.42 147.47, 0.26 31.71 M225.09 205.96 C147.58 138.58, 70.07 71.2, 0.19 10.45 M225.09 205.96 C177.51 164.6, 129.93 123.24, 0.19 10.45 M225.02 184.7 C164.76 132.31, 104.49 79.92, 12.19 -0.31 M225.02 184.7 C175.65 141.78, 126.27 98.86, 12.19 -0.31 M224.95 163.44 C154.18 101.92, 83.41 40.39, 37.03 0.08 M224.95 163.44 C154.1 101.85, 83.25 40.26, 37.03 0.08 M224.88 142.18 C165.53 90.58, 106.18 38.99, 61.11 -0.19 M224.88 142.18 C180.26 103.39, 135.63 64.59, 61.11 -0.19 M224.82 120.92 C191.45 91.91, 158.08 62.91, 85.19 -0.45 M224.82 120.92 C181.77 83.5, 138.73 46.09, 85.19 -0.45 M224.75 99.66 C200.01 78.15, 175.27 56.65, 110.03 -0.06 M224.75 99.66 C191.67 70.91, 158.59 42.15, 110.03 -0.06 M225.43 79.05 C201.45 58.2, 177.46 37.35, 134.11 -0.33 M225.43 79.05 C199.8 56.77, 174.17 34.49, 134.11 -0.33 M225.36 57.79 C208.02 42.71, 190.67 27.63, 158.95 0.06 M225.36 57.79 C207.6 42.35, 189.84 26.92, 158.95 0.06 M225.29 36.53 C210.36 23.55, 195.42 10.56, 183.03 -0.21 M225.29 36.53 C208.61 22.03, 191.93 7.53, 183.03 -0.21 M225.23 15.27 C219.93 10.67, 214.63 6.06, 207.11 -0.47 M225.23 15.27 C221.19 11.77, 217.16 8.26, 207.11 -0.47" stroke="#ffffff" stroke-width="2" fill="none"></path><path d="M0 0 C65.85 0, 131.71 0, 224.72 0 M0 0 C58.23 0, 116.47 0, 224.72 0 M224.72 0 C224.72 174.44, 224.72 348.88, 224.72 603.9 M224.72 0 C224.72 225.24, 224.72 450.48, 224.72 603.9 M224.72 603.9 C168.03 603.9, 111.34 603.9, 0 603.9 M224.72 603.9 C147.05 603.9, 69.39 603.9, 0 603.9 M0 603.9 C0 436.61, 0 269.33, 0 0 M0 603.9 C0 394.6, 0 185.31, 0 0" stroke="#1e1e1e" stroke-width="4" fill="none"></path></g><g transform="translate(544.3081367944072 906.0026486597969) rotate(0 49.12783555315838 25.109783502968185)"><text x="49.12783555315836" y="40.41105782508943" font-family="Cascadia, Segoe UI Emoji" font-size="41.849639171613646px" fill="#1e1e1e" text-anchor="middle" style="white-space: pre;" direction="ltr" dominant-baseline="alphabetic">year</text></g><g transform="translate(786.6253013576235 906.0026486597969) rotate(0 98.2556711063167 25.109783502968185)"><text x="98.25567110631673" y="40.41105782508943" font-family="Cascadia, Segoe UI Emoji" font-size="41.849639171613646px" fill="#1e1e1e" text-anchor="middle" style="white-space: pre;" direction="ltr" dominant-baseline="alphabetic">location</text></g><g transform="translate(1035.9335566227 906.0026486597969) rotate(0 97.8260879516601 25.109783502968185)"><text x="97.82608795166016" y="40.41105782508943" font-family="Cascadia, Segoe UI Emoji" font-size="41.849639171613646px" fill="#1e1e1e" text-anchor="middle" style="white-space: pre;" direction="ltr" dominant-baseline="alphabetic">SERIALNO</text></g><g stroke-opacity="0.7" fill-opacity="0.7" transform="translate(542.7062387345286 978.1048721525356) rotate(0 48.91304397583008 251.09783502968187)"><text x="48.91304397583008" y="40.41105782508943" font-family="Cascadia, Segoe UI Emoji" font-size="41.849639171613646px" fill="#1e1e1e" text-anchor="middle" style="white-space: pre;" direction="ltr" dominant-baseline="alphabetic">2005</text><text x="48.91304397583008" y="90.63062483102581" font-family="Cascadia, Segoe UI Emoji" font-size="41.849639171613646px" fill="#1e1e1e" text-anchor="middle" style="white-space: pre;" direction="ltr" dominant-baseline="alphabetic">2005</text><text x="48.91304397583008" y="140.85019183696218" font-family="Cascadia, Segoe UI Emoji" font-size="41.849639171613646px" fill="#1e1e1e" text-anchor="middle" style="white-space: pre;" direction="ltr" dominant-baseline="alphabetic">2005</text><text x="48.91304397583008" y="191.06975884289858" font-family="Cascadia, Segoe UI Emoji" font-size="41.849639171613646px" fill="#1e1e1e" text-anchor="middle" style="white-space: pre;" direction="ltr" dominant-baseline="alphabetic">2006</text><text x="48.91304397583008" y="241.28932584883495" font-family="Cascadia, Segoe UI Emoji" font-size="41.849639171613646px" fill="#1e1e1e" text-anchor="middle" style="white-space: pre;" direction="ltr" dominant-baseline="alphabetic">2006</text><text x="48.91304397583008" y="291.5088928547713" font-family="Cascadia, Segoe UI Emoji" font-size="41.849639171613646px" fill="#1e1e1e" text-anchor="middle" style="white-space: pre;" direction="ltr" dominant-baseline="alphabetic">2006</text><text x="48.91304397583008" y="341.7284598607077" font-family="Cascadia, Segoe UI Emoji" font-size="41.849639171613646px" fill="#1e1e1e" text-anchor="middle" style="white-space: pre;" direction="ltr" dominant-baseline="alphabetic">2006</text><text x="48.91304397583008" y="391.94802686664406" font-family="Cascadia, Segoe UI Emoji" font-size="41.849639171613646px" fill="#1e1e1e" text-anchor="middle" style="white-space: pre;" direction="ltr" dominant-baseline="alphabetic">2007</text><text x="48.91304397583008" y="442.1675938725804" font-family="Cascadia, Segoe UI Emoji" font-size="41.849639171613646px" fill="#1e1e1e" text-anchor="middle" style="white-space: pre;" direction="ltr" dominant-baseline="alphabetic">2007</text><text x="48.91304397583008" y="492.3871608785168" font-family="Cascadia, Segoe UI Emoji" font-size="41.849639171613646px" fill="#1e1e1e" text-anchor="middle" style="white-space: pre;" direction="ltr" dominant-baseline="alphabetic">...</text></g><g stroke-opacity="0.7" fill-opacity="0.7" transform="translate(848.466879586105 978.1048721525356) rotate(0 36.684783935546875 251.09783502968187)"><text x="36.684783935546875" y="40.41105782508943" font-family="Cascadia, Segoe UI Emoji" font-size="41.849639171613646px" fill="#1e1e1e" text-anchor="middle" style="white-space: pre;" direction="ltr" dominant-baseline="alphabetic">ny</text><text x="36.684783935546875" y="90.63062483102581" font-family="Cascadia, Segoe UI Emoji" font-size="41.849639171613646px" fill="#1e1e1e" text-anchor="middle" style="white-space: pre;" direction="ltr" dominant-baseline="alphabetic">ca</text><text x="36.684783935546875" y="140.85019183696218" font-family="Cascadia, Segoe UI Emoji" font-size="41.849639171613646px" fill="#1e1e1e" text-anchor="middle" style="white-space: pre;" direction="ltr" dominant-baseline="alphabetic">ny</text><text x="36.684783935546875" y="191.06975884289858" font-family="Cascadia, Segoe UI Emoji" font-size="41.849639171613646px" fill="#1e1e1e" text-anchor="middle" style="white-space: pre;" direction="ltr" dominant-baseline="alphabetic">ny</text><text x="36.684783935546875" y="241.28932584883495" font-family="Cascadia, Segoe UI Emoji" font-size="41.849639171613646px" fill="#1e1e1e" text-anchor="middle" style="white-space: pre;" direction="ltr" dominant-baseline="alphabetic">ny</text><text x="36.684783935546875" y="291.5088928547713" font-family="Cascadia, Segoe UI Emoji" font-size="41.849639171613646px" fill="#1e1e1e" text-anchor="middle" style="white-space: pre;" direction="ltr" dominant-baseline="alphabetic">ca</text><text x="36.684783935546875" y="341.7284598607077" font-family="Cascadia, Segoe UI Emoji" font-size="41.849639171613646px" fill="#1e1e1e" text-anchor="middle" style="white-space: pre;" direction="ltr" dominant-baseline="alphabetic">ca</text><text x="36.684783935546875" y="391.94802686664406" font-family="Cascadia, Segoe UI Emoji" font-size="41.849639171613646px" fill="#1e1e1e" text-anchor="middle" style="white-space: pre;" direction="ltr" dominant-baseline="alphabetic">ny</text><text x="36.684783935546875" y="442.1675938725804" font-family="Cascadia, Segoe UI Emoji" font-size="41.849639171613646px" fill="#1e1e1e" text-anchor="middle" style="white-space: pre;" direction="ltr" dominant-baseline="alphabetic">ny</text><text x="36.684783935546875" y="492.3871608785168" font-family="Cascadia, Segoe UI Emoji" font-size="41.849639171613646px" fill="#1e1e1e" text-anchor="middle" style="white-space: pre;" direction="ltr" dominant-baseline="alphabetic">...</text></g><g stroke-linecap="round"><g stroke-opacity="0.1" fill-opacity="0.1" transform="translate(465.17636670109863 1031.764656737467) rotate(0 691.6625731383749 0)"><path d="M0 0 C399.58 0, 799.16 0, 1383.33 0 M0 0 C515.95 0, 1031.91 0, 1383.33 0" stroke="#1e1e1e" stroke-width="4" fill="none"></path></g></g><mask></mask><g stroke-linecap="round"><g stroke-opacity="0.1" fill-opacity="0.1" transform="translate(465.17636670109863 1080.3297700847208) rotate(0 690.2631375952268 0)"><path d="M0 0 C305.71 0, 611.42 0, 1380.53 0 M0 0 C469.33 0, 938.67 0, 1380.53 0" stroke="#1e1e1e" stroke-width="4" fill="none"></path></g></g><mask></mask><g stroke-linecap="round"><g stroke-opacity="0.1" fill-opacity="0.1" transform="translate(465.17636670109863 1130.8095507091455) rotate(0 689.7738529572766 0)"><path d="M0 0 C518 0, 1035.99 0, 1379.55 0 M0 0 C406.03 0, 812.06 0, 1379.55 0" stroke="#1e1e1e" stroke-width="4" fill="none"></path></g></g><mask></mask><g stroke-linecap="round"><g stroke-opacity="0.1" fill-opacity="0.1" transform="translate(465.17636670109863 1181.28933133357) rotate(0 689.2845683193265 0)"><path d="M0 0 C283.04 0, 566.07 0, 1378.57 0 M0 0 C344.18 0, 688.37 0, 1378.57 0" stroke="#1e1e1e" stroke-width="4" fill="none"></path></g></g><mask></mask><g stroke-linecap="round"><g stroke-opacity="0.1" fill-opacity="0.1" transform="translate(465.17636670109863 1230.8835017716015) rotate(0 690.0365345639254 0)"><path d="M0 0 C450.2 0, 900.4 0, 1380.07 0 M0 0 C391.51 0, 783.02 0, 1380.07 0" stroke="#1e1e1e" stroke-width="4" fill="none"></path></g></g><mask></mask><g transform="translate(1267.2588875349943 906.0026486597969) rotate(0 61.14130401611328 25.109783502968185)"><text x="61.14130401611328" y="40.41105782508943" font-family="Cascadia, Segoe UI Emoji" font-size="41.849639171613646px" fill="#1e1e1e" text-anchor="middle" style="white-space: pre;" direction="ltr" dominant-baseline="alphabetic">JWMNP</text></g><g stroke-opacity="0.7" fill-opacity="0.7" transform="translate(1088.2571877221758 980.3631778989939) rotate(0 48.913043975830135 251.09783502968187)"><text x="48.91304397583008" y="40.41105782508943" font-family="Cascadia, Segoe UI Emoji" font-size="41.849639171613646px" fill="#1e1e1e" text-anchor="middle" style="white-space: pre;" direction="ltr" dominant-baseline="alphabetic">177</text><text x="48.91304397583008" y="90.63062483102581" font-family="Cascadia, Segoe UI Emoji" font-size="41.849639171613646px" fill="#1e1e1e" text-anchor="middle" style="white-space: pre;" direction="ltr" dominant-baseline="alphabetic">1404</text><text x="48.91304397583008" y="140.85019183696218" font-family="Cascadia, Segoe UI Emoji" font-size="41.849639171613646px" fill="#1e1e1e" text-anchor="middle" style="white-space: pre;" direction="ltr" dominant-baseline="alphabetic">2378</text><text x="48.91304397583008" y="191.06975884289858" font-family="Cascadia, Segoe UI Emoji" font-size="41.849639171613646px" fill="#1e1e1e" text-anchor="middle" style="white-space: pre;" direction="ltr" dominant-baseline="alphabetic">2876</text><text x="48.91304397583008" y="241.28932584883495" font-family="Cascadia, Segoe UI Emoji" font-size="41.849639171613646px" fill="#1e1e1e" text-anchor="middle" style="white-space: pre;" direction="ltr" dominant-baseline="alphabetic">1129</text><text x="48.91304397583008" y="291.5088928547713" font-family="Cascadia, Segoe UI Emoji" font-size="41.849639171613646px" fill="#1e1e1e" text-anchor="middle" style="white-space: pre;" direction="ltr" dominant-baseline="alphabetic">2764</text><text x="48.91304397583008" y="341.7284598607077" font-family="Cascadia, Segoe UI Emoji" font-size="41.849639171613646px" fill="#1e1e1e" text-anchor="middle" style="white-space: pre;" direction="ltr" dominant-baseline="alphabetic">1799</text><text x="48.91304397583008" y="391.94802686664406" font-family="Cascadia, Segoe UI Emoji" font-size="41.849639171613646px" fill="#1e1e1e" text-anchor="middle" style="white-space: pre;" direction="ltr" dominant-baseline="alphabetic">2146</text><text x="48.91304397583008" y="442.1675938725804" font-family="Cascadia, Segoe UI Emoji" font-size="41.849639171613646px" fill="#1e1e1e" text-anchor="middle" style="white-space: pre;" direction="ltr" dominant-baseline="alphabetic">357</text><text x="48.91304397583008" y="492.3871608785168" font-family="Cascadia, Segoe UI Emoji" font-size="41.849639171613646px" fill="#1e1e1e" text-anchor="middle" style="white-space: pre;" direction="ltr" dominant-baseline="alphabetic">...</text></g><g stroke-opacity="0.7" fill-opacity="0.7" transform="translate(1287.7396455973485 978.5966288628156) rotate(0 36.684783935546875 251.09783502968187)"><text x="36.684783935546875" y="40.41105782508943" font-family="Cascadia, Segoe UI Emoji" font-size="41.849639171613646px" fill="#1e1e1e" text-anchor="middle" style="white-space: pre;" direction="ltr" dominant-baseline="alphabetic">5</text><text x="36.684783935546875" y="90.63062483102581" font-family="Cascadia, Segoe UI Emoji" font-size="41.849639171613646px" fill="#1e1e1e" text-anchor="middle" style="white-space: pre;" direction="ltr" dominant-baseline="alphabetic">15</text><text x="36.684783935546875" y="140.85019183696218" font-family="Cascadia, Segoe UI Emoji" font-size="41.849639171613646px" fill="#1e1e1e" text-anchor="middle" style="white-space: pre;" direction="ltr" dominant-baseline="alphabetic">50</text><text x="36.684783935546875" y="191.06975884289858" font-family="Cascadia, Segoe UI Emoji" font-size="41.849639171613646px" fill="#1e1e1e" text-anchor="middle" style="white-space: pre;" direction="ltr" dominant-baseline="alphabetic">NA</text><text x="36.684783935546875" y="241.28932584883495" font-family="Cascadia, Segoe UI Emoji" font-size="41.849639171613646px" fill="#1e1e1e" text-anchor="middle" style="white-space: pre;" direction="ltr" dominant-baseline="alphabetic">25</text><text x="36.684783935546875" y="291.5088928547713" font-family="Cascadia, Segoe UI Emoji" font-size="41.849639171613646px" fill="#1e1e1e" text-anchor="middle" style="white-space: pre;" direction="ltr" dominant-baseline="alphabetic">10</text><text x="36.684783935546875" y="341.7284598607077" font-family="Cascadia, Segoe UI Emoji" font-size="41.849639171613646px" fill="#1e1e1e" text-anchor="middle" style="white-space: pre;" direction="ltr" dominant-baseline="alphabetic">40</text><text x="36.684783935546875" y="391.94802686664406" font-family="Cascadia, Segoe UI Emoji" font-size="41.849639171613646px" fill="#1e1e1e" text-anchor="middle" style="white-space: pre;" direction="ltr" dominant-baseline="alphabetic">35</text><text x="36.684783935546875" y="442.1675938725804" font-family="Cascadia, Segoe UI Emoji" font-size="41.849639171613646px" fill="#1e1e1e" text-anchor="middle" style="white-space: pre;" direction="ltr" dominant-baseline="alphabetic">15</text><text x="36.684783935546875" y="492.3871608785168" font-family="Cascadia, Segoe UI Emoji" font-size="41.849639171613646px" fill="#1e1e1e" text-anchor="middle" style="white-space: pre;" direction="ltr" dominant-baseline="alphabetic">...</text></g><g stroke-linecap="round"><g stroke-opacity="0.1" fill-opacity="0.1" transform="translate(468.8952196360222 1281.36393775373) rotate(0 690.0365345639254 0)"><path d="M0 0 C357.52 0, 715.04 0, 1380.07 0 M0 0 C279.36 0, 558.73 0, 1380.07 0" stroke="#1e1e1e" stroke-width="4" fill="none"></path></g></g><mask></mask><g stroke-linecap="round"><g stroke-opacity="0.1" fill-opacity="0.1" transform="translate(468.6686166047209 1329.3697151974031) rotate(0 689.7738529572767 0)"><path d="M0 0 C548.23 0, 1096.47 0, 1379.55 0 M0 0 C465.32 0, 930.63 0, 1379.55 0" stroke="#1e1e1e" stroke-width="4" fill="none"></path></g></g><mask></mask><g stroke-linecap="round"><g stroke-opacity="0.1" fill-opacity="0.1" transform="translate(468.6686166047209 1377.934828544657) rotate(0 690.2631375952268 0)"><path d="M0 0 C411.68 0, 823.35 0, 1380.53 0 M0 0 C500.12 0, 1000.24 0, 1380.53 0" stroke="#1e1e1e" stroke-width="4" fill="none"></path></g></g><mask></mask><g stroke-linecap="round"><g stroke-opacity="0.1" fill-opacity="0.1" transform="translate(470.0675482731587 1433.7523532882872) rotate(0 689.7738529572766 0)"><path d="M0 0 C418.43 0, 836.87 0, 1379.55 0 M0 0 C280.69 0, 561.38 0, 1379.55 0" stroke="#1e1e1e" stroke-width="4" fill="none"></path></g></g><mask></mask><g stroke-linecap="round" transform="translate(1400.732116187712 890.5744295673728) rotate(0 224.44156893327317 302.17062528464646)"><path d="M0 0 C0 0, 0 0, 0 0 M0 0 C0 0, 0 0, 0 0 M0.27 24.08 C7.94 15.26, 15.61 6.43, 21.26 -0.07 M0.27 24.08 C8.54 14.57, 16.81 5.05, 21.26 -0.07 M-0.12 48.92 C13.46 33.29, 27.04 17.67, 42.52 -0.14 M-0.12 48.92 C16.16 30.18, 32.45 11.45, 42.52 -0.14 M0.14 73 C20.56 49.51, 40.99 26.02, 63.78 -0.21 M0.14 73 C20.32 49.78, 40.51 26.57, 63.78 -0.21 M-0.25 97.84 C30.8 62.12, 61.85 26.4, 85.04 -0.28 M-0.25 97.84 C32.38 60.31, 65 22.78, 85.04 -0.28 M0.02 121.92 C32.27 84.82, 64.52 47.72, 106.3 -0.34 M0.02 121.92 C28.9 88.7, 57.77 55.48, 106.3 -0.34 M0.29 146 C39.38 101.03, 78.46 56.06, 126.91 0.34 M0.29 146 C43.25 96.57, 86.22 47.14, 126.91 0.34 M-0.1 170.84 C46.38 117.37, 92.86 63.9, 148.17 0.27 M-0.1 170.84 C51.94 110.97, 103.98 51.1, 148.17 0.27 M0.16 194.92 C45.1 143.23, 90.03 91.54, 169.43 0.2 M0.16 194.92 C39.64 149.51, 79.11 104.1, 169.43 0.2 M-0.23 219.75 C71.64 137.08, 143.5 54.41, 190.69 0.13 M-0.23 219.75 C42.43 170.69, 85.08 121.62, 190.69 0.13 M0.04 243.84 C78.91 153.11, 157.77 62.38, 211.95 0.06 M0.04 243.84 C46.66 190.2, 93.28 136.57, 211.95 0.06 M0.3 267.92 C80.1 176.12, 159.9 84.32, 233.21 0 M0.3 267.92 C77.7 178.88, 155.1 89.85, 233.21 0 M-0.08 292.75 C99.63 178.04, 199.35 63.33, 254.47 -0.07 M-0.08 292.75 C58.61 225.23, 117.3 157.71, 254.47 -0.07 M0.18 316.84 C79.4 225.7, 158.63 134.57, 275.73 -0.14 M0.18 316.84 C81.75 223, 163.32 129.17, 275.73 -0.14 M-0.21 341.67 C92.53 234.99, 185.26 128.31, 296.99 -0.21 M-0.21 341.67 C109.99 214.91, 220.18 88.14, 296.99 -0.21 M0.06 365.75 C99.16 251.75, 198.26 137.75, 318.25 -0.28 M0.06 365.75 C98.04 253.04, 196.02 140.33, 318.25 -0.28 M0.32 389.84 C117.67 254.85, 235.01 119.86, 339.51 -0.35 M0.32 389.84 C109.36 264.4, 218.4 138.97, 339.51 -0.35 M-0.07 414.67 C122.33 273.87, 244.73 133.06, 360.11 0.34 M-0.07 414.67 C121.09 275.3, 242.24 135.93, 360.11 0.34 M0.2 438.75 C126.52 293.44, 252.84 148.12, 381.37 0.27 M0.2 438.75 C129.23 290.32, 258.27 141.88, 381.37 0.27 M-0.19 463.59 C129.95 313.89, 260.08 164.18, 402.63 0.2 M-0.19 463.59 C130.62 313.11, 261.43 162.64, 402.63 0.2 M0.08 487.67 C140.47 326.17, 280.86 164.67, 423.89 0.13 M0.08 487.67 C107.21 364.43, 214.33 241.2, 423.89 0.13 M-0.31 512.51 C105.05 391.31, 210.41 270.1, 445.15 0.06 M-0.31 512.51 C174.02 311.96, 348.35 111.42, 445.15 0.06 M-0.05 536.59 C104.85 415.92, 209.75 295.25, 449.35 19.61 M-0.05 536.59 C121.34 396.96, 242.72 257.32, 449.35 19.61 M0.22 560.67 C126.13 415.82, 252.05 270.97, 448.96 44.45 M0.22 560.67 C103.25 442.15, 206.28 323.63, 448.96 44.45 M-0.17 585.51 C157.46 404.17, 315.09 222.84, 449.23 68.53 M-0.17 585.51 C166.72 393.53, 333.6 201.55, 449.23 68.53 M4.69 604.31 C129.36 460.89, 254.02 317.48, 448.84 93.37 M4.69 604.31 C141.41 447.03, 278.13 289.75, 448.84 93.37 M25.29 604.99 C119.04 497.15, 212.78 389.31, 449.11 117.45 M25.29 604.99 C157.69 452.69, 290.09 300.38, 449.11 117.45 M46.55 604.92 C162.23 471.85, 277.91 338.77, 449.37 141.53 M46.55 604.92 C155.07 480.09, 263.59 355.25, 449.37 141.53 M67.81 604.85 C146.94 513.83, 226.07 422.8, 448.98 166.37 M67.81 604.85 C153.23 506.6, 238.64 408.34, 448.98 166.37 M89.07 604.79 C224.31 449.22, 359.54 293.65, 449.25 190.45 M89.07 604.79 C208.89 466.95, 328.71 329.11, 449.25 190.45 M110.33 604.72 C211.17 488.72, 312 372.72, 448.86 215.29 M110.33 604.72 C182.2 522.05, 254.06 439.38, 448.86 215.29 M131.59 604.65 C209.69 514.81, 287.78 424.98, 449.13 239.37 M131.59 604.65 C224 498.35, 316.4 392.05, 449.13 239.37 M152.85 604.58 C243.06 500.81, 333.27 397.03, 448.74 264.2 M152.85 604.58 C258.74 482.78, 364.62 360.97, 448.74 264.2 M174.11 604.51 C235.68 533.68, 297.25 462.86, 449 288.29 M174.11 604.51 C260.09 505.61, 346.07 406.7, 449 288.29 M195.37 604.44 C263.05 526.59, 330.72 448.74, 449.27 312.37 M195.37 604.44 C275.77 511.96, 356.16 419.48, 449.27 312.37 M216.63 604.37 C277.02 534.91, 337.4 465.45, 448.88 337.2 M216.63 604.37 C295.9 513.19, 375.17 422, 448.88 337.2 M237.9 604.3 C289.81 544.58, 341.72 484.86, 449.15 361.29 M237.9 604.3 C305.39 526.65, 372.89 449.01, 449.15 361.29 M258.5 604.99 C321.16 532.9, 383.82 460.82, 448.76 386.12 M258.5 604.99 C314.62 540.43, 370.75 475.86, 448.76 386.12 M279.76 604.92 C335.68 540.59, 391.6 476.26, 449.02 410.2 M279.76 604.92 C342.78 532.42, 405.81 459.92, 449.02 410.2 M301.02 604.85 C335.49 565.2, 369.95 525.55, 449.29 434.29 M301.02 604.85 C340.63 559.28, 380.24 513.71, 449.29 434.29 M322.28 604.78 C351.82 570.8, 381.36 536.81, 448.9 459.12 M322.28 604.78 C354.69 567.5, 387.1 530.21, 448.9 459.12 M343.54 604.71 C385.23 556.75, 426.92 508.79, 449.17 483.2 M343.54 604.71 C378 565.08, 412.45 525.44, 449.17 483.2 M364.8 604.64 C389.36 576.39, 413.92 548.14, 448.78 508.04 M364.8 604.64 C392.2 573.13, 419.6 541.61, 448.78 508.04 M386.06 604.57 C402.84 585.27, 419.63 565.96, 449.04 532.12 M386.06 604.57 C405.93 581.72, 425.8 558.86, 449.04 532.12 M407.32 604.51 C418.69 591.43, 430.05 578.35, 449.31 556.2 M407.32 604.51 C420.51 589.34, 433.7 574.17, 449.31 556.2 M428.58 604.44 C435.15 596.88, 441.73 589.31, 448.92 581.04 M428.58 604.44 C433.73 598.51, 438.88 592.58, 448.92 581.04 M-0.36 604.02 C-0.36 604.02, -0.36 604.02, -0.36 604.02 M-0.36 604.02 C-0.36 604.02, -0.36 604.02, -0.36 604.02 M24.47 604.41 C18.07 598.85, 11.66 593.28, 0.32 583.42 M24.47 604.41 C16.43 597.42, 8.38 590.43, 0.32 583.42 M48.55 604.15 C31.11 588.99, 13.67 573.83, 0.25 562.16 M48.55 604.15 C36.93 594.04, 25.3 583.93, 0.25 562.16 M73.39 604.54 C57.44 590.67, 41.49 576.81, 0.18 540.9 M73.39 604.54 C49.73 583.97, 26.08 563.41, 0.18 540.9 M97.47 604.27 C65.93 576.85, 34.39 549.44, 0.11 519.64 M97.47 604.27 C66.68 577.51, 35.89 550.74, 0.11 519.64 M122.31 604.66 C81.76 569.41, 41.2 534.16, 0.04 498.38 M122.31 604.66 C77.45 565.67, 32.6 526.68, 0.04 498.38 M146.39 604.39 C101.37 565.26, 56.34 526.12, -0.02 477.12 M146.39 604.39 C90.35 555.68, 34.31 506.96, -0.02 477.12 M170.47 604.13 C105.32 547.5, 40.18 490.86, -0.09 455.86 M170.47 604.13 C105.21 547.4, 39.95 490.67, -0.09 455.86 M195.31 604.52 C117.2 536.62, 39.09 468.72, -0.16 434.6 M195.31 604.52 C147.21 562.71, 99.11 520.89, -0.16 434.6 M219.39 604.25 C138.33 533.79, 57.27 463.32, -0.23 413.34 M219.39 604.25 C161.47 553.9, 103.55 503.56, -0.23 413.34 M244.23 604.64 C167.65 538.08, 91.08 471.52, -0.3 392.08 M244.23 604.64 C174.03 543.62, 103.83 482.6, -0.3 392.08 M268.31 604.38 C182.73 529.99, 97.16 455.6, -0.37 370.82 M268.31 604.38 C193.46 539.31, 118.62 474.25, -0.37 370.82 M292.39 604.11 C179.65 506.1, 66.9 408.1, 0.32 350.21 M292.39 604.11 C215.98 537.69, 139.57 471.26, 0.32 350.21 M317.23 604.5 C228.29 527.19, 139.36 449.88, 0.25 328.95 M317.23 604.5 C231.48 529.96, 145.73 455.42, 0.25 328.95 M341.31 604.23 C211.3 491.22, 81.29 378.21, 0.18 307.69 M341.31 604.23 C238.78 515.11, 136.26 425.98, 0.18 307.69 M366.14 604.62 C245.11 499.41, 124.08 394.19, 0.11 286.43 M366.14 604.62 C271.74 522.56, 177.33 440.49, 0.11 286.43 M390.23 604.36 C278.51 507.24, 166.79 410.13, 0.04 265.17 M390.23 604.36 C269.37 499.3, 148.51 394.24, 0.04 265.17 M414.31 604.09 C261.33 471.11, 108.36 338.13, -0.03 243.91 M414.31 604.09 C317.3 519.76, 220.3 435.44, -0.03 243.91 M439.14 604.48 C300.99 484.38, 162.84 364.29, -0.1 222.65 M439.14 604.48 C276.6 463.18, 114.06 321.88, -0.1 222.65 M448.89 591.75 C304.49 466.22, 160.09 340.7, -0.17 201.39 M448.89 591.75 C283.86 448.29, 118.83 304.84, -0.17 201.39 M449.57 571.14 C313 452.42, 176.42 333.7, -0.24 180.13 M449.57 571.14 C297.83 439.24, 146.09 307.33, -0.24 180.13 M449.5 549.88 C297.41 417.67, 145.31 285.45, -0.3 158.87 M449.5 549.88 C358.91 471.13, 268.31 392.37, -0.3 158.87 M449.43 528.62 C307.06 404.86, 164.68 281.09, -0.37 137.61 M449.43 528.62 C340.37 433.82, 231.31 339.01, -0.37 137.61 M449.36 507.36 C272.3 353.44, 95.23 199.51, 0.31 117.01 M449.36 507.36 C335.21 408.13, 221.05 308.9, 0.31 117.01 M449.3 486.1 C341.03 391.99, 232.77 297.88, 0.24 95.75 M449.3 486.1 C318.49 372.4, 187.69 258.69, 0.24 95.75 M449.23 464.84 C318.78 351.45, 188.33 238.05, 0.17 74.49 M449.23 464.84 C350.77 379.25, 252.3 293.66, 0.17 74.49 M449.16 443.58 C273.92 291.25, 98.69 138.93, 0.11 53.23 M449.16 443.58 C330.31 340.27, 211.47 236.96, 0.11 53.23 M449.09 422.32 C335.9 323.93, 222.71 225.54, 0.04 31.97 M449.09 422.32 C285.22 279.87, 121.35 137.42, 0.04 31.97 M449.02 401.06 C313.49 283.24, 177.95 165.43, -0.03 10.71 M449.02 401.06 C306.02 276.75, 163.02 152.45, -0.03 10.71 M448.95 379.8 C304.76 254.46, 160.57 129.12, 11.22 -0.71 M448.95 379.8 C302.51 252.5, 156.06 125.2, 11.22 -0.71 M448.88 358.54 C308.78 236.75, 168.67 114.96, 35.3 -0.98 M448.88 358.54 C290.27 220.66, 131.66 82.78, 35.3 -0.98 M449.57 337.94 C294.61 203.23, 139.65 68.53, 60.14 -0.59 M449.57 337.94 C314.63 220.63, 179.68 103.33, 60.14 -0.59 M449.5 316.68 C343.95 224.93, 238.41 133.18, 84.22 -0.85 M449.5 316.68 C315.92 200.56, 182.33 84.43, 84.22 -0.85 M449.43 295.42 C327.58 189.5, 205.73 83.58, 109.06 -0.47 M449.43 295.42 C315.27 178.79, 181.11 62.17, 109.06 -0.47 M449.36 274.16 C333.86 173.75, 218.36 73.35, 133.14 -0.73 M449.36 274.16 C339.98 179.08, 230.61 84, 133.14 -0.73 M449.29 252.9 C351.45 167.84, 253.6 82.79, 157.22 -1 M449.29 252.9 C377.49 190.48, 305.68 128.06, 157.22 -1 M449.22 231.64 C394.3 183.89, 339.38 136.15, 182.06 -0.61 M449.22 231.64 C347.72 143.4, 246.22 55.17, 182.06 -0.61 M449.15 210.38 C381.26 151.36, 313.38 92.35, 206.14 -0.87 M449.15 210.38 C389.63 158.63, 330.1 106.89, 206.14 -0.87 M449.08 189.12 C389.58 137.39, 330.08 85.67, 230.97 -0.48 M449.08 189.12 C383.94 132.49, 318.8 75.86, 230.97 -0.48 M449.02 167.86 C377.94 106.07, 306.86 44.28, 255.06 -0.75 M449.02 167.86 C388.93 115.62, 328.84 63.39, 255.06 -0.75 M448.95 146.6 C405.86 109.14, 362.78 71.69, 279.89 -0.36 M448.95 146.6 C396.88 101.34, 344.81 56.07, 279.89 -0.36 M448.88 125.34 C391.4 75.37, 333.92 25.41, 303.97 -0.63 M448.88 125.34 C400.51 83.29, 352.14 41.25, 303.97 -0.63 M449.56 104.73 C417.41 76.79, 385.27 48.84, 328.06 -0.89 M449.56 104.73 C402.33 63.67, 355.1 22.61, 328.06 -0.89 M449.49 83.47 C411.3 50.27, 373.1 17.07, 352.89 -0.5 M449.49 83.47 C412.28 51.12, 375.06 18.77, 352.89 -0.5 M449.43 62.21 C432.04 47.1, 414.66 31.99, 376.97 -0.77 M449.43 62.21 C427.92 43.52, 406.42 24.83, 376.97 -0.77 M449.36 40.95 C439.23 32.15, 429.1 23.34, 401.81 -0.38 M449.36 40.95 C434.73 28.24, 420.11 15.53, 401.81 -0.38 M449.29 19.69 C441.25 12.7, 433.21 5.71, 425.89 -0.65 M449.29 19.69 C440.8 12.31, 432.3 4.93, 425.89 -0.65" stroke="#e9ecef" stroke-width="2" fill="none"></path><path d="M0 0 C100.17 0, 200.33 0, 448.88 0 M0 0 C149.73 0, 299.46 0, 448.88 0 M448.88 0 C448.88 156.72, 448.88 313.44, 448.88 604.34 M448.88 0 C448.88 207.51, 448.88 415.02, 448.88 604.34 M448.88 604.34 C270.02 604.34, 91.15 604.34, 0 604.34 M448.88 604.34 C358.76 604.34, 268.64 604.34, 0 604.34 M0 604.34 C0 446.17, 0 288, 0 0 M0 604.34 C0 372.38, 0 140.41, 0 0" stroke="#1e1e1e" stroke-width="4" fill="none"></path></g><g transform="translate(1422.1100456891118 906.8981763754009) rotate(0 207.88043212890625 25.109783502968185)"><text x="207.88043212890625" y="40.41105782508943" font-family="Cascadia, Segoe UI Emoji" font-size="41.849639171613646px" fill="#1e1e1e" text-anchor="middle" style="white-space: pre;" direction="ltr" dominant-baseline="alphabetic">mean_commute_time</text></g><g stroke-linecap="round" transform="translate(464.7186334662589 890.5744286929721) rotate(0 692.4483103607267 43.03950061996281)"><path d="M0 0 C524.11 0, 1048.21 0, 1384.9 0 M0 0 C297.41 0, 594.82 0, 1384.9 0 M1384.9 0 C1384.9 19.06, 1384.9 38.12, 1384.9 86.08 M1384.9 0 C1384.9 29.26, 1384.9 58.53, 1384.9 86.08 M1384.9 86.08 C1026.13 86.08, 667.35 86.08, 0 86.08 M1384.9 86.08 C1104.56 86.08, 824.22 86.08, 0 86.08 M0 86.08 C0 61.41, 0 36.75, 0 0 M0 86.08 C0 64.98, 0 43.87, 0 0" stroke="#1e1e1e" stroke-width="4" fill="none"></path></g><g stroke-opacity="0.7" fill-opacity="0.7" transform="translate(1572.121471923097 980.363177817062) rotate(0 61.14130401611328 251.09783502968187)"><text x="61.14130401611328" y="40.41105782508943" font-family="Cascadia, Segoe UI Emoji" font-size="41.849639171613646px" fill="#1e1e1e" text-anchor="middle" style="white-space: pre;" direction="ltr" dominant-baseline="alphabetic">12.43</text><text x="61.14130401611328" y="90.63062483102581" font-family="Cascadia, Segoe UI Emoji" font-size="41.849639171613646px" fill="#1e1e1e" text-anchor="middle" style="white-space: pre;" direction="ltr" dominant-baseline="alphabetic">11.38</text><text x="61.14130401611328" y="140.85019183696218" font-family="Cascadia, Segoe UI Emoji" font-size="41.849639171613646px" fill="#1e1e1e" text-anchor="middle" style="white-space: pre;" direction="ltr" dominant-baseline="alphabetic">12.43</text><text x="61.14130401611328" y="191.06975884289858" font-family="Cascadia, Segoe UI Emoji" font-size="41.849639171613646px" fill="#1e1e1e" text-anchor="middle" style="white-space: pre;" direction="ltr" dominant-baseline="alphabetic">13.83</text><text x="61.14130401611328" y="241.28932584883495" font-family="Cascadia, Segoe UI Emoji" font-size="41.849639171613646px" fill="#1e1e1e" text-anchor="middle" style="white-space: pre;" direction="ltr" dominant-baseline="alphabetic">13.83</text><text x="61.14130401611328" y="291.5088928547713" font-family="Cascadia, Segoe UI Emoji" font-size="41.849639171613646px" fill="#1e1e1e" text-anchor="middle" style="white-space: pre;" direction="ltr" dominant-baseline="alphabetic">12.15</text><text x="61.14130401611328" y="341.7284598607077" font-family="Cascadia, Segoe UI Emoji" font-size="41.849639171613646px" fill="#1e1e1e" text-anchor="middle" style="white-space: pre;" direction="ltr" dominant-baseline="alphabetic">12.15</text><text x="61.14130401611328" y="391.94802686664406" font-family="Cascadia, Segoe UI Emoji" font-size="41.849639171613646px" fill="#1e1e1e" text-anchor="middle" style="white-space: pre;" direction="ltr" dominant-baseline="alphabetic">12.09</text><text x="61.14130401611328" y="442.1675938725804" font-family="Cascadia, Segoe UI Emoji" font-size="41.849639171613646px" fill="#1e1e1e" text-anchor="middle" style="white-space: pre;" direction="ltr" dominant-baseline="alphabetic">12.09</text><text x="61.14130401611328" y="492.3871608785168" font-family="Cascadia, Segoe UI Emoji" font-size="41.849639171613646px" fill="#1e1e1e" text-anchor="middle" style="white-space: pre;" direction="ltr" dominant-baseline="alphabetic">...</text></g><g stroke-opacity="0.9" fill-opacity="0.9" transform="translate(480.3692468947089 789.710879147287) rotate(0 676.7539102798589 32.246990147978295)"><text x="1353.5078205597176" y="51.89749976940258" font-family="Cascadia, Segoe UI Emoji" font-size="53.744983579963844px" fill="#1e1e1e" text-anchor="end" style="white-space: pre;" direction="ltr" dominant-baseline="alphabetic">left_join(x, y, by = c("year", "location"))</text></g><g stroke-opacity="0.9" fill-opacity="0.9" transform="translate(457.376614959633 10) rotate(0 20.67391300201416 32.246990147978295)"><text x="41.34782600402832" y="51.89749976940258" font-family="Cascadia, Segoe UI Emoji" font-size="53.744983579963844px" fill="#1e1e1e" text-anchor="end" style="white-space: pre;" direction="ltr" dominant-baseline="alphabetic">x</text></g><g stroke-opacity="0.9" fill-opacity="0.9" transform="translate(1638.3959901899536 10) rotate(0 20.67391300201416 32.246990147978295)"><text x="41.34782600402832" y="51.89749976940258" font-family="Cascadia, Segoe UI Emoji" font-size="53.744983579963844px" fill="#1e1e1e" text-anchor="end" style="white-space: pre;" direction="ltr" dominant-baseline="alphabetic">y</text></g></svg>