<svg version="1.1" xmlns="http://www.w3.org/2000/svg" viewBox="0 0 962.75 382.6000000000001" width="2888.25" height="1147.8000000000002">
  <!-- svg-source:excalidraw -->
  
  <defs>
    <style class="style-fonts">
      @font-face {
        font-family: "Virgil";
        src: url("https://excalidraw.com/Virgil.woff2");
      }
      @font-face {
        font-family: "Cascadia";
        src: url("https://excalidraw.com/Cascadia.woff2");
      }
      @font-face {
        font-family: "Assistant";
        src: url("https://excalidraw.com/Assistant-Regular.woff2");
      }
    </style>
    
  </defs>
  <g transform="translate(330 10.800000000000068) rotate(0 52.75 21.599999999999994)"><text x="0" y="34.762499999999996" font-family="Cascadia, Segoe UI Emoji" font-size="36px" fill="#1e1e1e" text-anchor="start" style="white-space: pre;" direction="ltr" dominant-baseline="alphabetic">dplyr</text></g><g transform="translate(369.3500003814697 318.00000000000017) rotate(0 10.550000190734863 21.599999999999994)"><text x="0" y="34.762499999999996" font-family="Cascadia, Segoe UI Emoji" font-size="36px" fill="#1e1e1e" text-anchor="start" style="white-space: pre;" direction="ltr" dominant-baseline="alphabetic">R</text></g><g stroke-linecap="round"><g stroke-opacity="0.5" fill-opacity="0.5" transform="translate(578 50.60000000000008) rotate(0 0 0)"><path d="M0 0 C0 0, 0 0, 0 0 M0 0 C0 0, 0 0, 0 0" stroke="#1e1e1e" stroke-width="2" fill="none"></path></g></g><mask></mask><g transform="translate(336.25 182) rotate(0 52.75 21.599999999999994)"><text x="0" y="34.762499999999996" font-family="Cascadia, Segoe UI Emoji" font-size="36px" fill="#1e1e1e" text-anchor="start" style="white-space: pre;" direction="ltr" dominant-baseline="alphabetic">dplyr</text></g><g transform="translate(569.25 174) rotate(0 63.29999923706055 21.599999999999994)"><text x="0" y="34.762499999999996" font-family="Cascadia, Segoe UI Emoji" font-size="36px" fill="#1e1e1e" text-anchor="start" style="white-space: pre;" direction="ltr" dominant-baseline="alphabetic">dbplyr</text></g><g transform="translate(823.25 169.40947867298578) rotate(0 52.75 43.2)"><text x="0" y="34.762499999999996" font-family="Cascadia, Segoe UI Emoji" font-size="36px" fill="#1e1e1e" text-anchor="start" style="white-space: pre;" direction="ltr" dominant-baseline="alphabetic">arrow</text><text x="0" y="77.96249999999999" font-family="Cascadia, Segoe UI Emoji" font-size="36px" fill="#1e1e1e" text-anchor="start" style="white-space: pre;" direction="ltr" dominant-baseline="alphabetic"></text></g><g transform="translate(578.25 10) rotate(0 52.75 21.599999999999994)"><text x="0" y="34.762499999999996" font-family="Cascadia, Segoe UI Emoji" font-size="36px" fill="#1e1e1e" text-anchor="start" style="white-space: pre;" direction="ltr" dominant-baseline="alphabetic">dplyr</text></g><g transform="translate(824.25 17) rotate(0 52.75 21.599999999999994)"><text x="0" y="34.762499999999996" font-family="Cascadia, Segoe UI Emoji" font-size="36px" fill="#1e1e1e" text-anchor="start" style="white-space: pre;" direction="ltr" dominant-baseline="alphabetic">dplyr</text></g><g transform="translate(847.25 308.99999999999994) rotate(0 52.75 21.599999999999994)"><text x="0" y="34.762499999999996" font-family="Cascadia, Segoe UI Emoji" font-size="36px" fill="#1e1e1e" text-anchor="start" style="white-space: pre;" direction="ltr" dominant-baseline="alphabetic">Acero</text></g><g transform="translate(514.25 315.99999999999994) rotate(0 126.5999984741211 21.599999999999994)"><text x="0" y="34.762499999999996" font-family="Cascadia, Segoe UI Emoji" font-size="36px" fill="#1e1e1e" text-anchor="start" style="white-space: pre;" direction="ltr" dominant-baseline="alphabetic">SQL database</text></g><g stroke-opacity="0.7" fill-opacity="0.7" transform="translate(57 14.60000000000008) rotate(0 155 24)"><text x="0" y="19.3125" font-family="Cascadia, Segoe UI Emoji" font-size="20px" fill="#1e1e1e" text-anchor="start" style="white-space: pre;" direction="ltr" dominant-baseline="alphabetic">write code using</text><text x="0" y="43.3125" font-family="Cascadia, Segoe UI Emoji" font-size="20px" fill="#1e1e1e" text-anchor="start" style="white-space: pre;" direction="ltr" dominant-baseline="alphabetic">functions from...</text></g><g stroke-opacity="0.7" fill-opacity="0.7" transform="translate(34 190.60000000000008) rotate(0 139 12)"><text x="0" y="19.3125" font-family="Cascadia, Segoe UI Emoji" font-size="20px" fill="#1e1e1e" text-anchor="start" style="white-space: pre;" direction="ltr" dominant-baseline="alphabetic">using the R package...</text></g><g stroke-opacity="0.7" fill-opacity="0.7" transform="translate(10 300.6000000000001) rotate(0 155 36)"><text x="0" y="19.3125" font-family="Cascadia, Segoe UI Emoji" font-size="20px" fill="#1e1e1e" text-anchor="start" style="white-space: pre;" direction="ltr" dominant-baseline="alphabetic">which is translated into </text><text x="0" y="43.3125" font-family="Cascadia, Segoe UI Emoji" font-size="20px" fill="#1e1e1e" text-anchor="start" style="white-space: pre;" direction="ltr" dominant-baseline="alphabetic">expressions to manipulate </text><text x="0" y="67.3125" font-family="Cascadia, Segoe UI Emoji" font-size="20px" fill="#1e1e1e" text-anchor="start" style="white-space: pre;" direction="ltr" dominant-baseline="alphabetic">objects managed by...</text></g><g stroke-linecap="round"><g stroke-opacity="0.5" fill-opacity="0.5" transform="translate(377.9525995770442 62.60000000000008) rotate(0 0.05529540904450414 54)"><path d="M0 0 C0.02 18, 0.09 90, 0.11 108 M0 0 C0.02 18, 0.09 90, 0.11 108" stroke="#1e1e1e" stroke-width="2" fill="none"></path></g><g stroke-opacity="0.5" fill-opacity="0.5" transform="translate(377.9525995770442 62.60000000000008) rotate(0 0.05529540904450414 54)"><path d="M-8.46 84.52 C-6.07 91.08, -3.67 97.64, 0.11 108 M-8.46 84.52 C-6.1 90.98, -3.74 97.44, 0.11 108" stroke="#1e1e1e" stroke-width="2" fill="none"></path></g><g stroke-opacity="0.5" fill-opacity="0.5" transform="translate(377.9525995770442 62.60000000000008) rotate(0 0.05529540904450414 54)"><path d="M8.64 84.5 C6.25 91.07, 3.87 97.63, 0.11 108 M8.64 84.5 C6.29 90.97, 3.94 97.44, 0.11 108" stroke="#1e1e1e" stroke-width="2" fill="none"></path></g></g><mask></mask><g stroke-linecap="round"><g stroke-opacity="0.5" fill-opacity="0.5" transform="translate(380.40303966832175 226.2) rotate(0 -0.26136684065090776 39.200000000000045)"><path d="M0 0 C-0.09 13.07, -0.44 65.33, -0.52 78.4 M0 0 C-0.09 13.07, -0.44 65.33, -0.52 78.4" stroke="#1e1e1e" stroke-width="2" fill="none"></path></g><g stroke-opacity="0.5" fill-opacity="0.5" transform="translate(380.40303966832175 226.2) rotate(0 -0.26136684065090776 39.200000000000045)"><path d="M-8.92 54.85 C-5.59 64.19, -2.26 73.53, -0.52 78.4 M-8.92 54.85 C-6.66 61.19, -4.4 67.52, -0.52 78.4" stroke="#1e1e1e" stroke-width="2" fill="none"></path></g><g stroke-opacity="0.5" fill-opacity="0.5" transform="translate(380.40303966832175 226.2) rotate(0 -0.26136684065090776 39.200000000000045)"><path d="M8.18 54.97 C4.73 64.26, 1.28 73.55, -0.52 78.4 M8.18 54.97 C5.84 61.27, 3.5 67.57, -0.52 78.4" stroke="#1e1e1e" stroke-width="2" fill="none"></path></g></g><mask></mask><g stroke-linecap="round"><g stroke-opacity="0.5" fill-opacity="0.5" transform="translate(628.8473420125979 48.600000000000136) rotate(0 1.6626683551786527 56.49999999999997)"><path d="M0 0 C0.55 18.83, 2.77 94.17, 3.33 113 M0 0 C0.55 18.83, 2.77 94.17, 3.33 113" stroke="#1e1e1e" stroke-width="2" fill="none"></path></g><g stroke-opacity="0.5" fill-opacity="0.5" transform="translate(628.8473420125979 48.600000000000136) rotate(0 1.6626683551786527 56.49999999999997)"><path d="M-5.91 89.77 C-3.96 94.69, -2 99.61, 3.33 113 M-5.91 89.77 C-2.75 97.71, 0.4 105.65, 3.33 113" stroke="#1e1e1e" stroke-width="2" fill="none"></path></g><g stroke-opacity="0.5" fill-opacity="0.5" transform="translate(628.8473420125979 48.600000000000136) rotate(0 1.6626683551786527 56.49999999999997)"><path d="M11.18 89.27 C9.52 94.29, 7.85 99.32, 3.33 113 M11.18 89.27 C8.5 97.38, 5.81 105.5, 3.33 113" stroke="#1e1e1e" stroke-width="2" fill="none"></path></g></g><mask></mask><g stroke-linecap="round"><g stroke-opacity="0.5" fill-opacity="0.5" transform="translate(634.0611191763901 221.60000000000008) rotate(0 0.35275858625755063 44.5)"><path d="M0 0 C0.12 14.83, 0.59 74.17, 0.71 89 M0 0 C0.12 14.83, 0.59 74.17, 0.71 89" stroke="#1e1e1e" stroke-width="2" fill="none"></path></g><g stroke-opacity="0.5" fill-opacity="0.5" transform="translate(634.0611191763901 221.60000000000008) rotate(0 0.35275858625755063 44.5)"><path d="M-8.03 65.58 C-4.73 74.43, -1.43 83.28, 0.71 89 M-8.03 65.58 C-4.85 74.1, -1.67 82.62, 0.71 89" stroke="#1e1e1e" stroke-width="2" fill="none"></path></g><g stroke-opacity="0.5" fill-opacity="0.5" transform="translate(634.0611191763901 221.60000000000008) rotate(0 0.35275858625755063 44.5)"><path d="M9.07 65.44 C5.91 74.34, 2.75 83.24, 0.71 89 M9.07 65.44 C6.03 74.01, 2.98 82.58, 0.71 89" stroke="#1e1e1e" stroke-width="2" fill="none"></path></g></g><mask></mask><g stroke-linecap="round"><g stroke-opacity="0.5" fill-opacity="0.5" transform="translate(878.4092416699564 71.41895734597166) rotate(0 0.22690212976840485 39.2952606635071)"><path d="M0 0 C0.08 13.1, 0.38 65.49, 0.45 78.59 M0 0 C0.08 13.1, 0.38 65.49, 0.45 78.59" stroke="#1e1e1e" stroke-width="2" fill="none"></path></g><g stroke-opacity="0.5" fill-opacity="0.5" transform="translate(878.4092416699564 71.41895734597166) rotate(0 0.22690212976840485 39.2952606635071)"><path d="M-8.23 55.15 C-5.93 61.37, -3.62 67.59, 0.45 78.59 M-8.23 55.15 C-5.41 62.78, -2.58 70.4, 0.45 78.59" stroke="#1e1e1e" stroke-width="2" fill="none"></path></g><g stroke-opacity="0.5" fill-opacity="0.5" transform="translate(878.4092416699564 71.41895734597166) rotate(0 0.22690212976840485 39.2952606635071)"><path d="M8.87 55.05 C6.64 61.3, 4.4 67.54, 0.45 78.59 M8.87 55.05 C6.13 62.71, 3.39 70.37, 0.45 78.59" stroke="#1e1e1e" stroke-width="2" fill="none"></path></g></g><mask></mask><g stroke-linecap="round"><g stroke-opacity="0.5" fill-opacity="0.5" transform="translate(889 229.60000000000008) rotate(0 1.5748297707548318 39.19999999999993)"><path d="M0 0 C0.52 13.07, 2.62 65.33, 3.15 78.4 M0 0 C0.52 13.07, 2.62 65.33, 3.15 78.4" stroke="#1e1e1e" stroke-width="2" fill="none"></path></g><g stroke-opacity="0.5" fill-opacity="0.5" transform="translate(889 229.60000000000008) rotate(0 1.5748297707548318 39.19999999999993)"><path d="M-6.34 55.27 C-3.08 63.2, 0.17 71.13, 3.15 78.4 M-6.34 55.27 C-3.91 61.19, -1.48 67.11, 3.15 78.4" stroke="#1e1e1e" stroke-width="2" fill="none"></path></g><g stroke-opacity="0.5" fill-opacity="0.5" transform="translate(889 229.60000000000008) rotate(0 1.5748297707548318 39.19999999999993)"><path d="M10.75 54.58 C8.14 62.75, 5.54 70.92, 3.15 78.4 M10.75 54.58 C8.8 60.68, 6.86 66.78, 3.15 78.4" stroke="#1e1e1e" stroke-width="2" fill="none"></path></g></g><mask></mask></svg>