<svg version="1.1" xmlns="http://www.w3.org/2000/svg" viewBox="0 0 742.125 340.8525291828795" width="2226.375" height="1022.5575875486385">
  <!-- svg-source:excalidraw -->
  
  <defs>
    <style class="style-fonts">
      @font-face {
        font-family: "Virgil";
        src: url("https://excalidraw.com/Virgil.woff2");
      }
      @font-face {
        font-family: "Cascadia";
        src: url("https://excalidraw.com/Cascadia.woff2");
      }
      @font-face {
        font-family: "Assistant";
        src: url("https://excalidraw.com/Assistant-Regular.woff2");
      }
    </style>
    
  </defs>
  <g transform="translate(18.0625 54.052529182879425) rotate(0 73.0625 16.80000000000001)"><text x="0" y="27.0375" font-family="Cascadia, Segoe UI Emoji" font-size="28px" fill="#1e1e1e" text-anchor="start" style="white-space: pre;" direction="ltr" dominant-baseline="alphabetic">Spark</text></g><g transform="translate(203 10) rotate(0 73.0625 16.80000000000001)"><text x="0" y="27.0375" font-family="Cascadia, Segoe UI Emoji" font-size="28px" fill="#1e1e1e" text-anchor="start" style="white-space: pre;" direction="ltr" dominant-baseline="alphabetic">Pandas</text></g><g transform="translate(416 10) rotate(0 73.0625 16.80000000000001)"><text x="0" y="27.0375" font-family="Cascadia, Segoe UI Emoji" font-size="28px" fill="#1e1e1e" text-anchor="start" style="white-space: pre;" direction="ltr" dominant-baseline="alphabetic">Drill</text></g><g transform="translate(572 88.25252918287947) rotate(0 73.0625 16.80000000000001)"><text x="0" y="27.0375" font-family="Cascadia, Segoe UI Emoji" font-size="28px" fill="#1e1e1e" text-anchor="start" style="white-space: pre;" direction="ltr" dominant-baseline="alphabetic">Impala</text></g><g transform="translate(10 197.25252918287947) rotate(0 73.0625 16.80000000000001)"><text x="0" y="27.0375" font-family="Cascadia, Segoe UI Emoji" font-size="28px" fill="#1e1e1e" text-anchor="start" style="white-space: pre;" direction="ltr" dominant-baseline="alphabetic">Parquet</text></g><g transform="translate(188 297.25252918287947) rotate(0 78.56250000000006 16.80000000000001)"><text x="0" y="27.0375" font-family="Cascadia, Segoe UI Emoji" font-size="28px" fill="#1e1e1e" text-anchor="start" style="white-space: pre;" direction="ltr" dominant-baseline="alphabetic">Cassandra</text></g><g transform="translate(429 285.25252918287947) rotate(0 73.0625 16.80000000000001)"><text x="0" y="27.0375" font-family="Cascadia, Segoe UI Emoji" font-size="28px" fill="#1e1e1e" text-anchor="start" style="white-space: pre;" direction="ltr" dominant-baseline="alphabetic">Kudu</text></g><g transform="translate(586 220.25252918287947) rotate(0 73.0625 16.80000000000001)"><text x="0" y="27.0375" font-family="Cascadia, Segoe UI Emoji" font-size="28px" fill="#1e1e1e" text-anchor="start" style="white-space: pre;" direction="ltr" dominant-baseline="alphabetic">HBase</text></g><g stroke-linecap="round"><g transform="translate(58.0625 89.05252918287943) rotate(0 1.5 59)"><path d="M0 0 C0.5 19.67, 2.5 98.33, 3 118 M0 0 C0.5 19.67, 2.5 98.33, 3 118" stroke="#1e1e1e" stroke-width="2" fill="none"></path></g></g><mask></mask><g stroke-linecap="round"><g transform="translate(71.0625 91.05252918287943) rotate(0 96.5 100.5)"><path d="M0 0 C32.17 33.5, 160.83 167.5, 193 201 M0 0 C32.17 33.5, 160.83 167.5, 193 201" stroke="#1e1e1e" stroke-width="2" fill="none"></path></g></g><mask></mask><g stroke-linecap="round"><g transform="translate(95.0625 87.05252918287943) rotate(0 173 98)"><path d="M0 0 C57.67 32.67, 288.33 163.33, 346 196 M0 0 C57.67 32.67, 288.33 163.33, 346 196" stroke="#1e1e1e" stroke-width="2" fill="none"></path></g></g><mask></mask><g stroke-linecap="round"><g transform="translate(103.0625 73.05252918287943) rotate(0 236.5 80.5)"><path d="M0 0 C78.83 26.83, 394.17 134.17, 473 161 M0 0 C78.83 26.83, 394.17 134.17, 473 161" stroke="#1e1e1e" stroke-width="2" fill="none"></path></g></g><mask></mask><g stroke-linecap="round"><g transform="translate(115.0625 66.05252918287943) rotate(0 222.5 21.5)"><path d="M0 0 C74.17 7.17, 370.83 35.83, 445 43 M0 0 C74.17 7.17, 370.83 35.83, 445 43" stroke="#1e1e1e" stroke-width="2" fill="none"></path></g></g><mask></mask><g stroke-linecap="round"><g transform="translate(114.0625 55.052529182879425) rotate(0 40 -7)"><path d="M0 0 C13.33 -2.33, 66.67 -11.67, 80 -14 M0 0 C13.33 -2.33, 66.67 -11.67, 80 -14" stroke="#1e1e1e" stroke-width="2" fill="none"></path></g></g><mask></mask><g stroke-linecap="round"><g transform="translate(123.0625 61.052529182879425) rotate(0 155.5 -4)"><path d="M0 0 C51.83 -1.33, 259.17 -6.67, 311 -8 M0 0 C51.83 -1.33, 259.17 -6.67, 311 -8" stroke="#1e1e1e" stroke-width="2" fill="none"></path></g></g><mask></mask><g stroke-linecap="round"><g transform="translate(93.0625 192.05252918287943) rotate(0 66.5 -73)"><path d="M0 0 C22.17 -24.33, 110.83 -121.67, 133 -146 M0 0 C22.17 -24.33, 110.83 -121.67, 133 -146" stroke="#1e1e1e" stroke-width="2" fill="none"></path></g></g><mask></mask><g stroke-linecap="round"><g transform="translate(121.0625 188.05252918287943) rotate(0 154 -72)"><path d="M0 0 C51.33 -24, 256.67 -120, 308 -144 M0 0 C51.33 -24, 256.67 -120, 308 -144" stroke="#1e1e1e" stroke-width="2" fill="none"></path></g></g><mask></mask><g stroke-linecap="round"><g transform="translate(145.0625 198.05252918287943) rotate(0 211 -40)"><path d="M0 0 C70.33 -13.33, 351.67 -66.67, 422 -80 M0 0 C70.33 -13.33, 351.67 -66.67, 422 -80" stroke="#1e1e1e" stroke-width="2" fill="none"></path></g></g><mask></mask><g stroke-linecap="round"><g transform="translate(165.0625 215.05252918287943) rotate(0 202.5 16.5)"><path d="M0 0 C67.5 5.5, 337.5 27.5, 405 33 M0 0 C67.5 5.5, 337.5 27.5, 405 33" stroke="#1e1e1e" stroke-width="2" fill="none"></path></g></g><mask></mask><g stroke-linecap="round"><g transform="translate(152.0625 227.05252918287943) rotate(0 132.5 31)"><path d="M0 0 C44.17 10.33, 220.83 51.67, 265 62 M0 0 C44.17 10.33, 220.83 51.67, 265 62" stroke="#1e1e1e" stroke-width="2" fill="none"></path></g></g><mask></mask><g stroke-linecap="round"><g transform="translate(111.0625 236.05252918287943) rotate(0 46.5 25.5)"><path d="M0 0 C15.5 8.5, 77.5 42.5, 93 51 M0 0 C15.5 8.5, 77.5 42.5, 93 51" stroke="#1e1e1e" stroke-width="2" fill="none"></path></g></g><mask></mask><g stroke-linecap="round"><g transform="translate(284.0625 292.0525291828794) rotate(0 -12.5 -122)"><path d="M0 0 C-4.17 -40.67, -20.83 -203.33, -25 -244 M0 0 C-4.17 -40.67, -20.83 -203.33, -25 -244" stroke="#1e1e1e" stroke-width="2" fill="none"></path></g></g><mask></mask><g stroke-linecap="round"><g transform="translate(303.0625 285.0525291828794) rotate(0 75 -116.5)"><path d="M0 0 C25 -38.83, 125 -194.17, 150 -233 M0 0 C25 -38.83, 125 -194.17, 150 -233" stroke="#1e1e1e" stroke-width="2" fill="none"></path></g></g><mask></mask><g stroke-linecap="round"><g transform="translate(318.0625 280.0525291828794) rotate(0 127 -75.5)"><path d="M0 0 C42.33 -25.17, 211.67 -125.83, 254 -151 M0 0 C42.33 -25.17, 211.67 -125.83, 254 -151" stroke="#1e1e1e" stroke-width="2" fill="none"></path></g></g><mask></mask><g stroke-linecap="round"><g transform="translate(337.0625 286.0525291828794) rotate(0 113 -22.5)"><path d="M0 0 C37.67 -7.5, 188.33 -37.5, 226 -45 M0 0 C37.67 -7.5, 188.33 -37.5, 226 -45" stroke="#1e1e1e" stroke-width="2" fill="none"></path></g></g><mask></mask><g stroke-linecap="round"><g transform="translate(352.0625 311.0525291828794) rotate(0 27 -7.5)"><path d="M0 0 C9 -2.5, 45 -12.5, 54 -15 M0 0 C9 -2.5, 45 -12.5, 54 -15" stroke="#1e1e1e" stroke-width="2" fill="none"></path></g></g><mask></mask><g stroke-linecap="round"><g transform="translate(458.0625 278.0525291828794) rotate(0 -94 -114.5)"><path d="M0 0 C-31.33 -38.17, -156.67 -190.83, -188 -229 M0 0 C-31.33 -38.17, -156.67 -190.83, -188 -229" stroke="#1e1e1e" stroke-width="2" fill="none"></path></g></g><mask></mask><g stroke-linecap="round"><g transform="translate(473.0625 271.0525291828794) rotate(0 -2 -108)"><path d="M0 0 C-0.67 -36, -3.33 -180, -4 -216 M0 0 C-0.67 -36, -3.33 -180, -4 -216" stroke="#1e1e1e" stroke-width="2" fill="none"></path></g></g><mask></mask><g stroke-linecap="round"><g transform="translate(491.0625 266.0525291828794) rotate(0 42.5 -68)"><path d="M0 0 C14.17 -22.67, 70.83 -113.33, 85 -136 M0 0 C14.17 -22.67, 70.83 -113.33, 85 -136" stroke="#1e1e1e" stroke-width="2" fill="none"></path></g></g><mask></mask><g stroke-linecap="round"><g transform="translate(515.0625 283.0525291828794) rotate(0 32 -14.5)"><path d="M0 0 C10.67 -4.83, 53.33 -24.17, 64 -29 M0 0 C10.67 -4.83, 53.33 -24.17, 64 -29" stroke="#1e1e1e" stroke-width="2" fill="none"></path></g></g><mask></mask><g stroke-linecap="round"><g transform="translate(598.0625 214.05252918287943) rotate(0 -152.5 -85.5)"><path d="M0 0 C-50.83 -28.5, -254.17 -142.5, -305 -171 M0 0 C-50.83 -28.5, -254.17 -142.5, -305 -171" stroke="#1e1e1e" stroke-width="2" fill="none"></path></g></g><mask></mask><g stroke-linecap="round"><g transform="translate(608.0625 203.05252918287943) rotate(0 -70 -77)"><path d="M0 0 C-23.33 -25.67, -116.67 -128.33, -140 -154 M0 0 C-23.33 -25.67, -116.67 -128.33, -140 -154" stroke="#1e1e1e" stroke-width="2" fill="none"></path></g></g><mask></mask><g stroke-linecap="round"><g transform="translate(621.0625 189.05252918287943) rotate(0 -1 -33)"><path d="M0 0 C-0.33 -11, -1.67 -55, -2 -66 M0 0 C-0.33 -11, -1.67 -55, -2 -66" stroke="#1e1e1e" stroke-width="2" fill="none"></path></g></g><mask></mask><g stroke-linecap="round"><g transform="translate(589.0625 86.05252918287943) rotate(0 -139 -24)"><path d="M0 0 C-46.33 -8, -231.67 -40, -278 -48 M0 0 C-46.33 -8, -231.67 -40, -278 -48" stroke="#1e1e1e" stroke-width="2" fill="none"></path></g></g><mask></mask><g stroke-linecap="round"><g transform="translate(611.0625 88.05252918287943) rotate(0 -53.5 -23.5)"><path d="M0 0 C-17.83 -7.83, -89.17 -39.17, -107 -47 M0 0 C-17.83 -7.83, -89.17 -39.17, -107 -47" stroke="#1e1e1e" stroke-width="2" fill="none"></path></g></g><mask></mask></svg>