<svg version="1.1" xmlns="http://www.w3.org/2000/svg" viewBox="0 0 742.125 340.8525291828795" width="2226.375" height="1022.5575875486385">
  <!-- svg-source:excalidraw -->
  
  <defs>
    <style class="style-fonts">
      @font-face {
        font-family: "Virgil";
        src: url("https://excalidraw.com/Virgil.woff2");
      }
      @font-face {
        font-family: "Cascadia";
        src: url("https://excalidraw.com/Cascadia.woff2");
      }
      @font-face {
        font-family: "Assistant";
        src: url("https://excalidraw.com/Assistant-Regular.woff2");
      }
    </style>
    
  </defs>
  <g transform="translate(18.0625 54.052529182879425) rotate(0 73.0625 16.80000000000001)"><text x="0" y="27.0375" font-family="Cascadia, Segoe UI Emoji" font-size="28px" fill="#1e1e1e" text-anchor="start" style="white-space: pre;" direction="ltr" dominant-baseline="alphabetic">Spark</text></g><g transform="translate(203 10) rotate(0 73.0625 16.80000000000001)"><text x="0" y="27.0375" font-family="Cascadia, Segoe UI Emoji" font-size="28px" fill="#1e1e1e" text-anchor="start" style="white-space: pre;" direction="ltr" dominant-baseline="alphabetic">Pandas</text></g><g transform="translate(416 10) rotate(0 73.0625 16.80000000000001)"><text x="0" y="27.0375" font-family="Cascadia, Segoe UI Emoji" font-size="28px" fill="#1e1e1e" text-anchor="start" style="white-space: pre;" direction="ltr" dominant-baseline="alphabetic">Drill</text></g><g transform="translate(572 88.25252918287947) rotate(0 73.0625 16.80000000000001)"><text x="0" y="27.0375" font-family="Cascadia, Segoe UI Emoji" font-size="28px" fill="#1e1e1e" text-anchor="start" style="white-space: pre;" direction="ltr" dominant-baseline="alphabetic">Impala</text></g><g transform="translate(10 197.25252918287947) rotate(0 73.0625 16.80000000000001)"><text x="0" y="27.0375" font-family="Cascadia, Segoe UI Emoji" font-size="28px" fill="#1e1e1e" text-anchor="start" style="white-space: pre;" direction="ltr" dominant-baseline="alphabetic">Parquet</text></g><g transform="translate(188 297.25252918287947) rotate(0 78.56250000000006 16.80000000000001)"><text x="0" y="27.0375" font-family="Cascadia, Segoe UI Emoji" font-size="28px" fill="#1e1e1e" text-anchor="start" style="white-space: pre;" direction="ltr" dominant-baseline="alphabetic">Cassandra</text></g><g transform="translate(429 285.25252918287947) rotate(0 73.0625 16.80000000000001)"><text x="0" y="27.0375" font-family="Cascadia, Segoe UI Emoji" font-size="28px" fill="#1e1e1e" text-anchor="start" style="white-space: pre;" direction="ltr" dominant-baseline="alphabetic">Kudu</text></g><g transform="translate(586 220.25252918287947) rotate(0 73.0625 16.80000000000001)"><text x="0" y="27.0375" font-family="Cascadia, Segoe UI Emoji" font-size="28px" fill="#1e1e1e" text-anchor="start" style="white-space: pre;" direction="ltr" dominant-baseline="alphabetic">HBase</text></g><g transform="translate(275.0625 138.2525291828794) rotate(0 52.75 21.599999999999994)"><text x="0" y="34.762499999999996" font-family="Cascadia, Segoe UI Emoji" font-size="36px" fill="#1e1e1e" text-anchor="start" style="white-space: pre;" direction="ltr" dominant-baseline="alphabetic">Arrow</text></g><g stroke-linecap="round"><g transform="translate(150.0625 207.05252918287943) rotate(0 58.5 -14.5)"><path d="M0 0 C19.5 -4.83, 97.5 -24.17, 117 -29 M0 0 C19.5 -4.83, 97.5 -24.17, 117 -29" stroke="#1e1e1e" stroke-width="2" fill="none"></path></g></g><mask></mask><g stroke-linecap="round"><g transform="translate(296.0625 290.0525291828794) rotate(0 9.5 -46.5)"><path d="M0 0 C3.17 -15.5, 15.83 -77.5, 19 -93 M0 0 C3.17 -15.5, 15.83 -77.5, 19 -93" stroke="#1e1e1e" stroke-width="2" fill="none"></path></g></g><mask></mask><g stroke-linecap="round"><g transform="translate(454.0625 280.0525291828794) rotate(0 -42.5 -45)"><path d="M0 0 C-14.17 -15, -70.83 -75, -85 -90 M0 0 C-14.17 -15, -70.83 -75, -85 -90" stroke="#1e1e1e" stroke-width="2" fill="none"></path></g></g><mask></mask><g stroke-linecap="round"><g transform="translate(584.0625 213.05252918287943) rotate(0 -96.5 -20)"><path d="M0 0 C-32.17 -6.67, -160.83 -33.33, -193 -40 M0 0 C-32.17 -6.67, -160.83 -33.33, -193 -40" stroke="#1e1e1e" stroke-width="2" fill="none"></path></g></g><mask></mask><g stroke-linecap="round"><g transform="translate(565.0625 114.05252918287943) rotate(0 -81 19)"><path d="M0 0 C-27 6.33, -135 31.67, -162 38 M0 0 C-27 6.33, -135 31.67, -162 38" stroke="#1e1e1e" stroke-width="2" fill="none"></path></g></g><mask></mask><g stroke-linecap="round"><g transform="translate(419.0625 52.052529182879425) rotate(0 -35.5 41)"><path d="M0 0 C-11.83 13.67, -59.17 68.33, -71 82 M0 0 C-11.83 13.67, -59.17 68.33, -71 82" stroke="#1e1e1e" stroke-width="2" fill="none"></path></g></g><mask></mask><g stroke-linecap="round"><g transform="translate(262.0625 51.052529182879425) rotate(0 20 37)"><path d="M0 0 C6.67 12.33, 33.33 61.67, 40 74 M0 0 C6.67 12.33, 33.33 61.67, 40 74" stroke="#1e1e1e" stroke-width="2" fill="none"></path></g></g><mask></mask><g stroke-linecap="round"><g transform="translate(102.0625 87.05252918287943) rotate(0 82.5 24.5)"><path d="M0 0 C27.5 8.17, 137.5 40.83, 165 49 M0 0 C27.5 8.17, 137.5 40.83, 165 49" stroke="#1e1e1e" stroke-width="2" fill="none"></path></g></g><mask></mask></svg>